<?xml version="1.0" standalone="no"?>
<!DOCTYPE svg PUBLIC "-//W3C//DTD SVG 1.1//EN" "http://www.w3.org/Graphics/SVG/1.1/DTD/svg11.dtd" >
<svg>
<metadata>
Created by FontForge 20090914 at Sat Nov 19 17:11:04 2011
 By www-data
2009 Erik Spiekermann published by FSI FontShop International GmbH
</metadata>
<defs>
<font id="MetaOffc-Norm" horiz-adv-x="570" >
  <font-face 
    font-family="Meta Offc"
    font-weight="400"
    font-stretch="normal"
    units-per-em="1000"
    panose-1="2 11 5 4 3 1 1 2 1 2"
    ascent="754"
    descent="-246"
    x-height="498"
    cap-height="686"
    bbox="-145 -281 1183 925.003"
    underline-thickness="59"
    underline-position="-43"
    unicode-range="U+0020-U+FB06"
  />
<missing-glyph horiz-adv-x="556" 
d="M76 686h404v-686h-404v686zM430 50v586h-304v-586h304z" />
    <glyph glyph-name=".notdef" horiz-adv-x="556" 
d="M76 686h404v-686h-404v686zM430 50v586h-304v-586h304z" />
    <glyph glyph-name="space" unicode=" " horiz-adv-x="230" 
 />
    <glyph glyph-name="exclam" unicode="!" horiz-adv-x="292" 
d="M175 198h-60l-19 488l98 13zM207 56c0 -17.333 -5.83301 -32.166 -17.5 -44.499s-26.167 -18.5 -43.5 -18.5s-31.833 6 -43.5 18s-17.5 26.667 -17.5 44s5.83301 31.833 17.5 43.5s26.167 17.5 43.5 17.5s31.833 -5.83301 43.5 -17.5s17.5 -25.834 17.5 -42.501z" />
    <glyph glyph-name="quotedbl" unicode="&#x22;" horiz-adv-x="409" 
d="M242 468v240h72v-240h-72zM95 468v240h72v-240h-72z" />
    <glyph glyph-name="numbersign" unicode="#" horiz-adv-x="566" 
d="M424 431l-21 -152h98v-66h-108l-30 -213h-67l30 213h-126l-30 -213h-67l30 213h-98v66h108l20 152h-98v66h108l30 211h67l-30 -211h126l30 211h67l-30 -211h98v-66h-107zM231 431l-21 -152h126l21 152h-126z" />
    <glyph glyph-name="dollar" unicode="$" horiz-adv-x="622" 
d="M545 194c0 -24.667 -5.00098 -48.334 -15.001 -71.001s-23.833 -43.334 -41.5 -62.001s-38.667 -34.167 -63 -46.5s-50.833 -20.5 -79.5 -24.5v-97h-59v94c-40 0 -77 5.33301 -111 16s-67.333 26 -100 46l36 64c28 -19.333 56 -34 84 -44s58.333 -15 91 -15v269l-25 8
c-31.333 10 -56.166 19.333 -74.499 28s-34.166 19.667 -47.499 33c-28.667 30.667 -43 68 -43 112c0 54 17.167 98.5 51.5 133.5s80.5 55.5 138.5 61.5v84h59v-83c64 -5.33301 124 -27 180 -65l-36 -59c-28.667 18.667 -53.834 32.334 -75.501 41.001s-44.5 14 -68.5 16
v-239l33 -10c30.667 -9.33301 55 -19.166 73 -29.499s34 -23.5 48 -39.5s25 -34.833 33 -56.5s12 -43.167 12 -64.5zM453.999 182c0 56 -35.998 96.667 -107.998 122v-246c16 2.66699 30.667 7.66699 44 15s24.666 16.5 33.999 27.5s16.666 23.5 21.999 37.5s8 28.667 8 44z
M287.001 631c-32 -5.33301 -56.833 -17.5 -74.5 -36.5s-26.5 -43.5 -26.5 -73.5c0 -26 7.83301 -47.333 23.5 -64s41.5 -31.667 77.5 -45v219z" />
    <glyph glyph-name="percent" unicode="%" horiz-adv-x="858" 
d="M813 156c0 -51.333 -14.332 -91.833 -42.999 -121.5s-68 -44.5 -118 -44.5s-89.333 15.333 -118 46s-43 72.667 -43 126s14.167 95 42.5 125s67.5 45 117.5 45c55.333 0 96.166 -16.333 122.499 -49s39.5 -75 39.5 -127zM367.001 515
c0 -51.333 -14.332 -91.833 -42.999 -121.5s-68 -44.5 -118 -44.5s-89.333 15.333 -118 46s-43 72.667 -43 126s14.167 95 42.5 125s67.5 45 117.5 45c55.333 0 96.166 -16.333 122.499 -49s39.5 -75 39.5 -127zM298.002 0h-66l333 681h66zM300.002 511
c0 14.667 -0.999023 29.5 -2.99902 44.5s-6.33301 28.5 -13 40.5s-16.334 21.667 -29.001 29s-29.667 11 -51 11c-32 0 -55.167 -9.33301 -69.5 -28s-21.5 -45 -21.5 -79c0 -41.333 7 -72.5 21 -93.5s39 -31.5 75 -31.5c28.667 0 51 9 67 27s24 44.667 24 80zM746.003 152
c0 14.667 -0.999023 29.5 -2.99902 44.5s-6.33301 28.5 -13 40.5s-16.334 21.667 -29.001 29s-29.667 11 -51 11c-32 0 -55.167 -9.33301 -69.5 -28s-21.5 -45 -21.5 -79c0 -41.333 7 -72.5 21 -93.5s39 -31.5 75 -31.5c28.667 0 51 9 67 27s24 44.667 24 80z" />
    <glyph glyph-name="ampersand" unicode="&#x26;" horiz-adv-x="684" 
d="M560 0l-67.001 65c-20 -24.667 -47.667 -44.167 -83 -58.5s-73 -21.5 -113 -21.5c-36 0 -68.333 4.5 -97 13.5s-53 21.667 -73 38s-35.333 35.833 -46 58.5s-16 47.667 -16 75c0 22 3.16699 41.333 9.5 58s15.5 31.834 27.5 45.501s26.667 26.167 44 37.5
s37 22.333 59 33c-32.667 29.333 -57 56 -73 80s-24 48.667 -24 74c0 22.667 4.83301 43.667 14.5 63s22.667 36 39 50s35.333 25 57 33s44.167 12 67.5 12c24.667 0 48.167 -3.33301 70.5 -10s41.833 -16.5 58.5 -29.5s30 -29.167 40 -48.5s15 -41.333 15 -66
c0 -19.333 -3.16699 -36.5 -9.5 -51.5s-15.5 -28.833 -27.5 -41.5s-27 -24.834 -45 -36.501s-38.333 -23.5 -61 -35.5l161 -159c5.33301 11.333 9.83301 28.833 13.5 52.5s4.83398 57.5 3.50098 101.5h69c0 -30 -0.833008 -55.667 -2.5 -77s-4.16699 -39.666 -7.5 -54.999
s-7.33301 -28.833 -12 -40.5s-9.66699 -22.834 -15 -33.501l127 -126h-104zM251.999 303c-67.333 -32 -101 -78.333 -101 -139c0 -35.333 13.167 -63.833 39.5 -85.5s62.5 -32.5 108.5 -32.5c34 0 64.333 6.33301 91 19s46.667 27.667 60 45zM383.999 503
c0 28 -9.00098 50.999 -27.001 68.999s-41.333 27 -70 27c-12 0 -23.667 -1.66699 -35 -5s-21.5 -8.83301 -30.5 -16.5s-16.167 -17.167 -21.5 -28.5s-8 -25 -8 -41c0 -9.33301 1.16699 -18.333 3.5 -27s6.83301 -17.667 13.5 -27s15.834 -20 27.501 -32
s26.834 -26 45.501 -42c39.333 18.667 66.166 37.834 80.499 57.501s21.5 41.5 21.5 65.5z" />
    <glyph glyph-name="quotesingle" unicode="'" horiz-adv-x="262" 
d="M95 468v240h72v-240h-72z" />
    <glyph glyph-name="parenleft" unicode="(" horiz-adv-x="325" 
d="M328 -155c-42 16 -79.833 42.0049 -113.5 78.0049s-60.167 78.667 -79.5 128c-7.33301 19.333 -13.666 40.666 -18.999 63.999s-9.5 47 -12.5 71s-5.16699 47.5 -6.5 70.5s-2 44.5 -2 64.5c0 43.333 2.16699 82.166 6.5 116.499s10.666 65.333 18.999 93
s18.333 52.5 30 74.5s24.834 42 39.501 60c18.667 23.333 40.167 44.333 64.5 63s48.833 32.667 73.5 42l19 -38c-34 -20 -63.667 -43.667 -89 -71s-44.333 -63.333 -57 -108c-8.66699 -30.667 -15.167 -65.667 -19.5 -105s-6.5 -81 -6.5 -125
c0 -64.667 4.16699 -124.834 12.5 -180.501s24.166 -104.167 47.499 -145.5c14 -24.667 30 -45.834 48 -63.501s40.333 -33.834 67 -48.501z" />
    <glyph glyph-name="parenright" unicode=")" horiz-adv-x="325" 
d="M230 296c0 -43.333 -2.16699 -82.1709 -6.5 -116.504s-10.666 -65.333 -18.999 -93s-18.333 -52.5 -30 -74.5s-24.834 -42 -39.501 -60c-18.667 -23.333 -40.167 -44.333 -64.5 -63s-48.833 -32.667 -73.5 -42l-19 38c34 20 63.667 43.667 89 71s44.333 63.333 57 108
c8.66699 30.667 15.167 65.667 19.5 105s6.5 81 6.5 125c0 64.667 -4.16699 124.834 -12.5 180.501s-24.166 104.167 -47.499 145.5c-14 24.667 -30 45.834 -48 63.501s-40.333 33.834 -67 48.501l22 40c42 -16 79.833 -42 113.5 -78s60.167 -78.667 79.5 -128
c7.33301 -19.333 13.666 -40.666 18.999 -63.999s9.5 -47 12.5 -71s5.16699 -47.5 6.5 -70.5s2 -44.5 2 -64.5z" />
    <glyph glyph-name="asterisk" unicode="*" horiz-adv-x="472" 
d="M286 501l89 -119l-49 -38l-90 123l-87 -123l-50 38l87 119l-141 48l19 58l142 -48v149h60v-149l142 48l19 -58z" />
    <glyph glyph-name="plus" unicode="+" horiz-adv-x="538" 
d="M305 214v-178h-72v178h-178v72h178v178h72v-178h178v-72h-178z" />
    <glyph glyph-name="comma" unicode="," horiz-adv-x="290" 
d="M215 29c0 -17.333 -3.33301 -34.833 -10 -52.5s-16 -34.5 -28 -50.5c-10 -13.333 -22.667 -26 -38 -38s-30.666 -22.333 -45.999 -31l-28 44c39.333 19.333 61.666 49 66.999 89c-1.33301 -0.666992 -3.33301 -1 -6 -1h-5c-15.333 0 -28.333 6.33301 -39 19
s-16 27.667 -16 45c0 20 6.83301 37 20.5 51s30.167 21 49.5 21c23.333 0 42.333 -9 57 -27s22 -41 22 -69z" />
    <glyph glyph-name="hyphen" unicode="-" horiz-adv-x="301" 
d="M55 229v76h191v-76h-191z" />
    <glyph glyph-name="period" unicode="." horiz-adv-x="284" 
d="M209 56c0 -19.333 -6.50098 -35.666 -19.501 -48.999s-28.5 -20 -46.5 -20c-19.333 0 -35.5 6.66699 -48.5 20s-19.5 29.666 -19.5 48.999c0 18.667 6.33301 34.334 19 47.001s28.334 19 47.001 19c19.333 0 35.5 -6.33301 48.5 -19s19.5 -28.334 19.5 -47.001z" />
    <glyph glyph-name="slash" unicode="/" horiz-adv-x="455" 
d="M131 -148h-66l259 905h66z" />
    <glyph glyph-name="zero" unicode="0" 
d="M514 327c0 -51.333 -5.66602 -98.002 -16.999 -140.002s-27.333 -78 -48 -108s-45.167 -53.333 -73.5 -70s-59.833 -25 -94.5 -25c-42.667 0 -78.334 12 -107.001 36s-51.834 53.833 -69.501 89.5s-30.334 73.834 -38.001 114.501s-11.5 78 -11.5 112
c0 44.667 6 87 18 127s28.333 75 49 105s44.834 53.833 72.501 71.5s56.834 26.5 87.501 26.5c43.333 0 79.833 -11.167 109.5 -33.5s53.5 -50.166 71.5 -83.499s31 -70 39 -110s12 -77.333 12 -112zM426.001 325.998c0 36 -1.33203 66.5 -3.99902 91.5
s-8.33398 50.167 -17.001 75.5c-11.333 35.333 -27.5 62.5 -48.5 81.5s-45.167 28.5 -72.5 28.5c-20 0 -39.333 -7.33301 -58 -22s-34.667 -35.667 -48 -63c-22.667 -45.333 -34 -107.333 -34 -186c0 -36.667 1.66699 -69.667 5 -99s8.33301 -53.666 15 -72.999
c12 -36 28.667 -64.167 50 -84.5s44.333 -30.5 69 -30.5c22.667 0 44.5 8.66699 65.5 26s37.833 40.666 50.5 69.999c10 23.333 17 50.5 21 81.5s6 65.5 6 103.5z" />
    <glyph glyph-name="one" unicode="1" 
d="M149 0l0.000976562 63h114v496l-11 -7.5l-18.5 -12.5l-22 -14c-7.66699 -4.66699 -15.167 -8.66699 -22.5 -12l-23 -11c-8.66699 -4 -17 -7.66699 -25 -11l-22 -9.5c-6.66699 -3 -11.334 -5.16699 -14.001 -6.5l-17 43l192 135h62v-590h101v-63h-294z" />
    <glyph glyph-name="two" unicode="2" 
d="M468 0l-382.001 0.00390625v45c19.333 13.333 41.166 31.5 65.499 54.5s52.5 52.5 84.5 88.5c27.333 30.667 50.833 59 70.5 85s35.667 50.167 48 72.5s21.5 43.5 27.5 63.5s9 39.333 9 58c0 37.333 -11.333 68.166 -34 92.499s-51.667 36.5 -87 36.5
c-14.667 0 -28.5 -1.83301 -41.5 -5.5s-25.5 -8.33398 -37.5 -14.001s-24 -12.334 -36 -20.001l-38 -23.5l-34 38c37.333 32 73.333 55.667 108 71s70 23 106 23c26 0 50.333 -4.83301 73 -14.5s42.334 -22.667 59.001 -39s29.834 -35.833 39.501 -58.5s14.5 -47 14.5 -73
c0 -28.667 -5.66699 -58.334 -17 -89.001s-27 -60 -47 -88c-23.333 -31.333 -52.666 -66 -87.999 -104l-48 -50l-42.5 -43c-13 -12.667 -24.167 -23 -33.5 -31s-16 -13 -20 -15c5.33301 0.666992 16.666 1.5 33.999 2.5s34.333 1.5 51 1.5h212z" />
    <glyph glyph-name="three" unicode="3" 
d="M483 200c0 -22 -4.00488 -42.9902 -12.0049 -62.9902s-18.833 -38.667 -32.5 -56s-29.834 -32.833 -48.501 -46.5s-38.667 -25.167 -60 -34.5c-23.333 -10 -51.333 -18 -84 -24s-67 -9 -103 -9c-12 0 -20.833 0.166992 -26.5 0.5s-13.167 1.16602 -22.5 2.49902l-18 54
c4.66699 -0.666992 8.83398 -1.33398 12.501 -2.00098s7.16699 -1.16699 10.5 -1.5s7 -0.5 11 -0.5h17c44 0 83.5 4.5 118.5 13.5s67.5 27.167 97.5 54.5c18 16 31.167 34.333 39.5 55s12.5 42.334 12.5 65.001c0 27.333 -7.5 51 -22.5 71s-35.167 33.667 -60.5 41
c-7.33301 2 -14 3.66699 -20 5s-13 2.16602 -21 2.49902s-18.333 0.666016 -31 0.999023s-29 0.5 -49 0.5h-10v56h9c36 0 64.333 0.666992 85 2s37 4.66602 49 9.99902c17.333 7.33301 31 19.666 41 36.999s15 36.666 15 57.999c0 32 -10.833 57.833 -32.5 77.5
s-50.5 29.5 -86.5 29.5c-30 0 -58.167 -5.5 -84.5 -16.5s-51.166 -25.167 -74.499 -42.5l-35 41c12.667 12 27.334 23.167 44.001 33.5s34.167 19.166 52.5 26.499s37 13.166 56 17.499s37.5 6.5 55.5 6.5c28 0 53.5 -4 76.5 -12s43 -19.333 60 -34
s30.167 -31.834 39.5 -51.501s14 -41.5 14 -65.5c0 -36 -10.667 -67.167 -32 -93.5s-51 -44.5 -89 -54.5c18.667 -4.66699 36.334 -11.5 53.001 -20.5s31.334 -20 44.001 -33s22.834 -27.833 30.501 -44.5s11.5 -35.334 11.5 -56.001z" />
    <glyph glyph-name="four" unicode="4" 
d="M455 125c-6 0 -11.667 0.166016 -17 0.499023s-8.66602 0.5 -9.99902 0.5c0 -2 0.166992 -6.66699 0.5 -14s0.5 -15.666 0.5 -24.999v-91l-77 -23v113c0 8 0.166992 16.167 0.5 24.5s0.5 13.5 0.5 15.5c-2 0 -6.66699 -0.166992 -14 -0.5s-16 -0.5 -26 -0.5h-258v62
l237 468h87l-206 -408c-7.33301 -14 -14.666 -27.167 -21.999 -39.5l-14 -23.5c2 0.666992 7.16699 1.33398 15.5 2.00098s16.166 1 23.499 1h155c5.33301 0 10 -0.166992 14 -0.5s6.66699 -0.5 8 -0.5c0 2 -0.166992 6.5 -0.5 13.5s-0.5 11.833 -0.5 14.5
c0 8.66699 0.333008 17.167 1 25.5s1.33398 18.166 2.00098 29.499l12 177l62 19v-248c0 -8 -0.166992 -14.833 -0.5 -20.5s-0.5 -9.16699 -0.5 -10.5c1.33301 0 4.16602 0.166992 8.49902 0.5s9.16602 0.5 14.499 0.5h59v-62h-55z" />
    <glyph glyph-name="five" unicode="5" 
d="M478 203c0 -20 -2.99805 -39.999 -8.99805 -59.999s-14.5 -38.667 -25.5 -56s-24.167 -33.333 -39.5 -48s-32.333 -26.667 -51 -36c-22.667 -11.333 -48.834 -20.5 -78.501 -27.5s-58.167 -10.5 -85.5 -10.5c-7.33301 0 -14 0.333008 -20 1l-17 1
c-5.33301 0 -10.833 0.666992 -16.5 2l-20.5 5l-14 60c6.66699 -3.33301 12.834 -5.83301 18.501 -7.5s11.167 -3 16.5 -4s11 -1.66699 17 -2s13.333 -0.5 22 -0.5c30.667 0 59.167 4.66699 85.5 14s49.166 22.166 68.499 38.499s34.666 35.666 45.999 57.999
s17 46.166 17 71.499c0 30.667 -8.33301 57.334 -25 80.001c-12.667 17.333 -28.834 30 -48.501 38s-45.167 12 -76.5 12c-24 0 -47.333 -1.83301 -70 -5.5s-41.334 -9.16699 -56.001 -16.5l32 337h296l-12 -66h-213l-17 -193
c8.66699 0.666992 15.834 1.33398 21.501 2.00098s10.834 1.16699 15.501 1.5s9.33398 0.5 14.001 0.5h17c72.667 0 128 -22.333 166 -67c13.333 -16.667 23.666 -35.667 30.999 -57s11 -43 11 -65z" />
    <glyph glyph-name="six" unicode="6" 
d="M515 201c0 -31.333 -5.66016 -60.167 -16.9932 -86.5s-26.833 -49.333 -46.5 -69s-42.834 -35 -69.501 -46s-55.667 -16.5 -87 -16.5c-34 0 -64.833 6.5 -92.5 19.5s-51.334 31.333 -71.001 55s-34.834 52.167 -45.501 85.5s-16 70.666 -16 111.999
c0 54 7.66699 101.5 23 142.5s39.666 81.167 72.999 120.5c37.333 44 78.166 80 122.499 108s93.5 50 147.5 66l19 -50c-46.667 -15.333 -91.167 -38 -133.5 -68s-77.166 -65 -104.499 -105c-11.333 -16 -20.333 -33.5 -27 -52.5s-13.334 -42.5 -20.001 -70.5
c17.333 16 39.166 28.667 65.499 38s53.166 14 80.499 14c28 0 54.167 -5 78.5 -15s45.333 -23.667 63 -41s31.667 -38.166 42 -62.499s15.5 -50.5 15.5 -78.5zM425.007 198.999c0 42.667 -11.0029 76 -33.0029 100c-11.333 12 -25.166 21.5 -41.499 28.5
s-33.166 10.5 -50.499 10.5c-22.667 0 -45.5 -4.5 -68.5 -13.5s-45.167 -22.167 -66.5 -39.5c-1.33301 -11.333 -2.16602 -20.333 -2.49902 -27s-0.5 -14.667 -0.5 -24c0 -22 2 -44.333 6 -67s11 -43 21 -61s23.5 -32.833 40.5 -44.5s38.833 -17.5 65.5 -17.5
c40 0 71.667 13.833 95 41.5s35 65.5 35 113.5z" />
    <glyph glyph-name="seven" unicode="7" 
d="M494 566c-32.667 -45.333 -64.3311 -92.0029 -94.998 -140.003s-59 -97.667 -85 -149c-10 -19.333 -20.667 -41.166 -32 -65.499s-22 -49.166 -32 -74.499s-19 -50.666 -27 -75.999s-14 -49 -18 -71l-97 -24c3.33301 22 9.33301 46.333 18 73s19.167 54.667 31.5 84
s26.166 59.333 41.499 90l47 91c30 56 61.333 108.667 94 158s63.667 89 93 119c-4.66699 0 -15.834 -0.166992 -33.501 -0.5s-37.167 -0.5 -58.5 -0.5h-264l19 66h417z" />
    <glyph glyph-name="eight" unicode="8" 
d="M509 180c0 -31.333 -6.33301 -59.167 -19 -83.5s-29.5 -45 -50.5 -62s-45.167 -29.833 -72.5 -38.5s-55.333 -13 -84 -13c-32 0 -61.5 4.66699 -88.5 14s-50.5 22.166 -70.5 38.499s-35.5 35.833 -46.5 58.5s-16.5 47.334 -16.5 74.001c0 22 3.66699 42.167 11 60.5
s17.333 35 30 50s27.667 27.833 45 38.5s35.666 19.667 54.999 27c-38 17.333 -67.167 39.5 -87.5 66.5s-30.5 56.5 -30.5 88.5c0 30.667 6.16699 56.5 18.5 77.5s28.333 38 48 51s42.167 22.5 67.5 28.5s51 9 77 9c28.667 0 54.834 -3.66699 78.501 -11
s43.834 -17.666 60.501 -30.999s29.667 -29.333 39 -48s14 -39.334 14 -62.001c0 -21.333 -4 -40.5 -12 -57.5s-18.5 -32 -31.5 -45s-27.833 -24.5 -44.5 -34.5s-34 -18.333 -52 -25c22.667 -10 44 -20.167 64 -30.5s37.167 -22 51.5 -35s25.666 -27.833 33.999 -44.5
s12.5 -37 12.5 -61zM427 160.999c0 29.333 -8.66797 53.332 -26.001 71.999c-11.333 12 -28.166 24.5 -50.499 37.5s-55.5 29.5 -99.5 49.5c-15.333 -8.66699 -29.666 -17.5 -42.999 -26.5s-25 -19.333 -35 -31s-17.833 -24.667 -23.5 -39s-8.5 -31.166 -8.5 -50.499
c0 -40 13.5 -71.833 40.5 -95.5s62.833 -35.5 107.5 -35.5c41.333 0 74.666 11 99.999 33s38 50.667 38 86zM410.999 506.998c0 30.667 -11.333 55.165 -34 73.498s-53.334 27.5 -92.001 27.5c-38 0 -68.333 -9.16699 -91 -27.5s-34 -43.166 -34 -74.499
c0 -18 4.33301 -33.833 13 -47.5s19.834 -25.667 33.501 -36s28.5 -19.166 44.5 -26.499l45 -20c40.667 21.333 70 42.5 88 63.5s27 43.5 27 67.5z" />
    <glyph glyph-name="nine" unicode="9" 
d="M513 426c0 -56.667 -11.8301 -113.497 -35.4971 -170.497s-56.167 -108.167 -97.5 -153.5c-23.333 -25.333 -48.333 -47.166 -75 -65.499s-58 -35.166 -94 -50.499c-14 -6 -25.833 -10.833 -35.5 -14.5s-18.834 -6.83398 -27.501 -9.50098s-17.5 -4.66699 -26.5 -6
s-19.5 -2.66602 -31.5 -3.99902l-39 48c10 1.33301 19 2.66602 27 3.99902s15.5 3 22.5 5s14.167 4.33301 21.5 7s15.666 6 24.999 10c44.667 19.333 87.167 44.666 127.5 75.999s73.166 70 98.499 116c3.33301 5.33301 7.5 13.166 12.5 23.499s9.5 21.166 13.5 32.499
c-37.333 -26 -78.666 -39 -123.999 -39c-29.333 0 -56.166 5.16699 -80.499 15.5s-45.333 24.666 -63 42.999s-31.5 40.333 -41.5 66s-15 53.5 -15 83.5c0 32 5.83301 61.667 17.5 89s27.5 51 47.5 71s43.667 35.667 71 47s56.666 17 87.999 17c34 0 64.333 -6.5 91 -19.5
s49.167 -30.667 67.5 -53s32.166 -48 41.499 -77s14 -59.5 14 -91.5zM427.003 425.003c0 26.667 -3.16699 51.166 -9.5 73.499s-15.333 41.333 -27 57s-25.5 27.834 -41.5 36.501s-34 13 -54 13c-40 0 -72 -15 -96 -45s-36 -69.333 -36 -118
c0 -46 10.833 -82.167 32.5 -108.5s51.5 -39.5 89.5 -39.5c23.333 0 45.333 4.16699 66 12.5s42.667 21.833 66 40.5c4 17.333 6.66699 31 8 41s2 22.333 2 37z" />
    <glyph glyph-name="colon" unicode=":" horiz-adv-x="304" 
d="M219 56c0 -19.333 -6.49902 -35.5 -19.499 -48.5s-29.167 -19.5 -48.5 -19.5c-18.667 0 -34.334 6.5 -47.001 19.5s-19 28.833 -19 47.5c0 19.333 6.5 35.5 19.5 48.5s29.167 19.5 48.5 19.5c18 0 33.5 -6.5 46.5 -19.5s19.5 -28.833 19.5 -47.5zM219.001 372
c0 -19.333 -6.5 -35.5 -19.5 -48.5s-28.833 -19.5 -47.5 -19.5s-34.5 6.33301 -47.5 19s-19.5 28.334 -19.5 47.001c0 19.333 6.5 35.666 19.5 48.999s29.167 20 48.5 20c18 0 33.5 -6.5 46.5 -19.5s19.5 -28.833 19.5 -47.5z" />
    <glyph glyph-name="semicolon" unicode=";" horiz-adv-x="320" 
d="M235 29c0 -17.333 -3.33398 -34.833 -10.001 -52.5s-16 -34.5 -28 -50.5c-10 -13.333 -22.667 -26 -38 -38s-30.666 -22.333 -45.999 -31l-28 44c39.333 19.333 61.666 49 66.999 89c-3.33301 -0.666992 -5.66602 -1 -6.99902 -1h-4c-15.333 0 -28.333 6.33301 -39 19
s-16 27.667 -16 45c0 20 6.83301 37 20.5 51s30.167 21 49.5 21c23.333 0 42.333 -9 57 -27s22 -41 22 -69zM219.999 372c0 -19.333 -6.5 -35.667 -19.5 -49s-28.833 -20 -47.5 -20s-34.667 7 -48 21s-20 30.667 -20 50c0 17.333 6.5 32.333 19.5 45s28.833 19 47.5 19
s34.667 -6.5 48 -19.5s20 -28.5 20 -46.5z" />
    <glyph glyph-name="less" unicode="&#x3c;" horiz-adv-x="327" 
d="M216 43l-191 257l191 257l66 -43l-160 -214l160 -214z" />
    <glyph glyph-name="equal" unicode="=" horiz-adv-x="632" 
d="M55 348v66h522v-66h-522zM55 192v66h522v-66h-522z" />
    <glyph glyph-name="greater" unicode="&#x3e;" horiz-adv-x="328" 
d="M111 43l-66 43l160 214l-160 214l66 43l192 -257z" />
    <glyph glyph-name="question" unicode="?" horiz-adv-x="438" 
d="M383 548c0 -24.667 -4.66797 -46.3281 -14.001 -64.9951s-20.166 -34.667 -32.499 -48s-24.166 -24 -35.499 -32s-19 -13.667 -23 -17c-33.333 -27.333 -50 -64.666 -50 -111.999c0 -16.667 2 -34 6 -52h-67c-6 24 -9 46.667 -9 68c0 25.333 4.33301 49.166 13 71.499
s23 42.833 43 61.5c10 9.33301 20.167 17.666 30.5 24.999s20 15.166 29 23.499s16.333 18.166 22 29.499s8.5 25.666 8.5 42.999c0 24.667 -8.5 44.667 -25.5 60s-38.5 23 -64.5 23c-24 0 -46.5 -3.83301 -67.5 -11.5s-43.833 -19.167 -68.5 -34.5l-33 55
c23.333 18 51.666 32.333 84.999 43s66.333 16 99 16c46 0 83.167 -13.333 111.5 -40s42.5 -62.334 42.5 -107.001zM274.999 55.0059c0 -19.333 -6.5 -35.666 -19.5 -48.999s-28.833 -20 -47.5 -20s-34.667 6.66699 -48 20s-20 29.666 -20 48.999
c0 18.667 6.5 34.5 19.5 47.5s28.833 19.5 47.5 19.5s34.667 -6.5 48 -19.5s20 -28.833 20 -47.5z" />
    <glyph glyph-name="at" unicode="@" horiz-adv-x="921" 
d="M856 277c0 -44 -5.83398 -84.001 -17.501 -120.001s-27.5 -66.667 -47.5 -92s-43.167 -44.833 -69.5 -58.5s-53.833 -20.5 -82.5 -20.5c-23.333 0 -42.166 3.66699 -56.499 11s-25.5 16.666 -33.5 27.999s-12.833 23.833 -14.5 37.5s-1.5 27.167 0.5 40.5
c-7.33301 -13.333 -16.666 -26.333 -27.999 -39s-24 -23.834 -38 -33.501s-29.167 -17.5 -45.5 -23.5s-32.833 -9 -49.5 -9c-13.333 0 -26.666 2.83301 -39.999 8.5s-25.333 14.5 -36 26.5s-19.167 27 -25.5 45s-9.5 39 -9.5 63c0 40 5.66699 78.667 17 116s28 70.5 50 99.5
s49.5 52.333 82.5 70s71.167 26.5 114.5 26.5c24 0 46.167 -3 66.5 -9s39.166 -13.667 56.499 -23c-3.33301 -10.667 -7.16602 -25 -11.499 -43l-11.5 -49l-38 -181c-8.66699 -40 -9 -68.167 -1 -84.5s26 -24.5 54 -24.5c20 0 38.833 6.16699 56.5 18.5
s32.834 29.333 45.501 51s22.667 46.834 30 75.501s11 59.667 11 93c0 41.333 -7.66699 79.833 -23 115.5s-36.833 66.834 -64.5 93.501s-60.834 47.5 -99.501 62.5s-81.667 22.5 -129 22.5c-50.667 0 -96.334 -10.333 -137.001 -31s-75.5 -48 -104.5 -82
s-51.333 -73 -67 -117s-23.5 -89.667 -23.5 -137c0 -46.667 8.16699 -89.334 24.5 -128.001s38.666 -71.667 66.999 -99s61.666 -48.666 99.999 -63.999s79.166 -23 122.499 -23c27.333 0 52.833 1.83301 76.5 5.5s43.834 8.16699 60.501 13.5l13 -54
c-19.333 -6.66699 -42.166 -11.667 -68.499 -15s-53.5 -5 -81.5 -5c-52 0 -101.333 8 -148 24s-87.667 39.667 -123 71s-63.333 70 -84 116s-31 98.667 -31 158c0 58.667 10 113.667 30 165s48 96 84 134s78.667 67.833 128 89.5s103.333 32.5 162 32.5
c54.667 0 105.5 -8.16699 152.5 -24.5s87.833 -39.666 122.5 -69.999s62 -67 82 -110s30 -90.833 30 -143.5zM570.999 386.999c-6.66699 4 -14.167 7.33105 -22.5 9.99805s-17.833 4 -28.5 4c-34 0 -62.833 -8.33301 -86.5 -25s-43 -38 -58 -64s-25.833 -54.5 -32.5 -85.5
s-10 -60.833 -10 -89.5c0 -29.333 5.16699 -50 15.5 -62s25.833 -18 46.5 -18c12 0 24.833 2.83301 38.5 8.5s26.834 14.334 39.501 26.001s24.167 26.334 34.5 44.001s18.166 38.5 23.499 62.5z" />
    <glyph glyph-name="A" unicode="A" horiz-adv-x="583" 
d="M480 0l-65 211h-256l-66 -211h-83l229 686h107l227 -686h-93zM289 614l-108 -336h213z" />
    <glyph glyph-name="B" unicode="B" horiz-adv-x="609" 
d="M544 188c0 -38 -9.33496 -72.1689 -28.002 -102.502s-45 -52.166 -79 -65.499c-9.33301 -3.33301 -18.333 -6.33301 -27 -9s-19 -4.83398 -31 -6.50098s-26.5 -2.83398 -43.5 -3.50098s-38.167 -1 -63.5 -1h-177v686h99c34 0 62.167 -0.166992 84.5 -0.5
s40.833 -1.16602 55.5 -2.49902s26.834 -3 36.501 -5s18.834 -4.33301 27.501 -7c35.333 -12 63.666 -32.333 84.999 -61s32 -60.667 32 -96c0 -36 -10.667 -66.833 -32 -92.5s-51.666 -44.834 -90.999 -57.501c21.333 -4 38.833 -8.66699 52.5 -14
s26.167 -12.666 37.5 -21.999c22.667 -17.333 38.667 -38.666 48 -63.999s14 -50.666 14 -75.999zM457.998 194.998c0 30 -7.66992 56.333 -23.0029 79s-35.333 36.667 -60 42c-9.33301 2 -20.666 3.66699 -33.999 5s-28.666 2 -45.999 2h-121v-256h146
c50.667 0 86.334 11 107.001 33s31 53.667 31 95zM423.995 502.998c0 27.333 -7.16797 50.6631 -21.501 69.9961s-33.166 32 -56.499 38c-9.33301 2.66699 -19.833 4.33398 -31.5 5.00098s-26.167 1 -43.5 1h-97v-226h119c18.667 0 34.5 0.833008 47.5 2.5
s24 4.83398 33 9.50098s16.5 10.834 22.5 18.501s11.667 17.167 17 28.5c7.33301 16.667 11 34.334 11 53.001z" />
    <glyph glyph-name="C" unicode="C" horiz-adv-x="573" 
d="M538 45c-28 -18 -58.3301 -31.833 -90.9971 -41.5s-66 -14.5 -100 -14.5c-37.333 0 -73.333 7.66699 -108 23s-65.334 38 -92.001 68c-29.333 33.333 -50.333 72.333 -63 117s-19 92.667 -19 144c0 50.667 7.16699 97.667 21.5 141s34.333 80.833 60 112.5
s56.167 56.334 91.5 74.001s73.666 26.5 114.999 26.5c33.333 0 64.666 -4.83301 93.999 -14.5s55.666 -23.5 78.999 -41.5l-44 -53c-20.667 15.333 -41.167 26.333 -61.5 33s-43.166 10 -68.499 10c-40 0 -74 -10 -102 -30s-50.333 -49.333 -67 -88
c-10 -23.333 -17.333 -49.333 -22 -78s-7 -63.334 -7 -104.001c0 -33.333 1.66699 -60.833 5 -82.5s9 -42.5 17 -62.5c17.333 -43.333 42.5 -75.5 75.5 -96.5s69.167 -31.5 108.5 -31.5c25.333 0 48.5 3.5 69.5 10.5s42.5 18.167 64.5 33.5z" />
    <glyph glyph-name="D" unicode="D" horiz-adv-x="633" 
d="M568 342c0 -60.667 -7.16895 -112.168 -21.502 -154.501s-33.166 -76.166 -56.499 -101.499c-15.333 -16.667 -30.666 -30.5 -45.999 -41.5s-31.5 -19.833 -48.5 -26.5s-35.5 -11.334 -55.5 -14.001s-42 -4 -66 -4h-179v686h137c26 0 49 -0.5 69 -1.5
s38.333 -3.33301 55 -7s32.667 -9 48 -16s31.333 -16.5 48 -28.5c39.333 -28 68.5 -66.667 87.5 -116s28.5 -107.666 28.5 -174.999zM478.998 331.999c0 51.333 -4.16797 94.6689 -12.501 130.002s-23.833 66.666 -46.5 93.999
c-11.333 13.333 -22.666 24.166 -33.999 32.499s-23.5 14.666 -36.5 18.999s-26.833 7.33301 -41.5 9s-31 2.5 -49 2.5h-82v-551h82c18 0 35.333 0.666992 52 2s32.5 4.5 47.5 9.5s28.833 12.333 41.5 22s23.667 22.5 33 38.5c15.333 26.667 26.833 56.334 34.5 89.001
s11.5 67 11.5 103z" />
    <glyph glyph-name="E" unicode="E" horiz-adv-x="520" 
d="M95 0v686h375l-11 -68h-281v-225h235v-71h-235v-251h302v-71h-385z" />
    <glyph glyph-name="F" unicode="F" horiz-adv-x="441" 
d="M443 618h-265v-225h220v-67h-220v-326h-83v686h361z" />
    <glyph glyph-name="G" unicode="G" horiz-adv-x="640" 
d="M555 41c-24.667 -16 -54.1689 -28.6689 -88.502 -38.002s-69.166 -14 -104.499 -14c-87.333 0 -157.666 28.667 -210.999 86c-29.333 32 -50.833 69.5 -64.5 112.5s-20.5 94.167 -20.5 153.5c0 66 8.66699 122.5 26 169.5s44 86.5 80 118.5c48 43.333 107.667 65 179 65
c72.667 0 135.334 -22.667 188.001 -68l-37 -51c-28 19.333 -53.167 33 -75.5 41s-46.833 12 -73.5 12c-40 0 -75 -9.33301 -105 -28s-52 -48 -66 -88c-18 -51.333 -27 -109.333 -27 -174c0 -45.333 4.16699 -85.666 12.5 -120.999s20.166 -64.333 35.499 -87
c8 -11.333 18 -21.5 30 -30.5s25.333 -16.667 40 -23s30.334 -11.166 47.001 -14.499s33 -5 49 -5c43.333 0 79.666 9 108.999 27v209h-138l-16 68h231v-320z" />
    <glyph glyph-name="H" unicode="H" horiz-adv-x="641" 
d="M464 0v332h-289v-332h-80v686h80v-287h289v287h82v-686h-82z" />
    <glyph glyph-name="I" unicode="I" horiz-adv-x="270" 
d="M95 0v686h80v-686h-80z" />
    <glyph glyph-name="J" unicode="J" horiz-adv-x="279" 
d="M184 117c0 -22 -0.331055 -40.666 -0.998047 -55.999s-1.83398 -29 -3.50098 -41s-4.16699 -22.667 -7.5 -32s-7.66602 -18.666 -12.999 -27.999c-22.667 -40 -61.334 -69.333 -116.001 -88l-40 51c18.667 7.33301 35.167 17 49.5 29s25.166 24.667 32.499 38
c6.66699 11.333 11.167 26.166 13.5 44.499s3.5 45.166 3.5 80.499v571h82v-569z" />
    <glyph glyph-name="K" unicode="K" horiz-adv-x="556" 
d="M275 364l274 -364h-105l-262 363l264 323h105zM95 0v686h83v-686h-83z" />
    <glyph glyph-name="L" unicode="L" horiz-adv-x="463" 
d="M437 0h-342v686h82v-617h271z" />
    <glyph glyph-name="M" unicode="M" horiz-adv-x="806" 
d="M654 0l-39.9961 503.001c-0.666992 10.667 -1.33398 22.5 -2.00098 35.5s-1.16699 25.333 -1.5 37s-0.666016 21.5 -0.999023 29.5s-0.5 12.667 -0.5 14c-0.666992 -1.33301 -1.83398 -5.66602 -3.50098 -12.999s-3.83398 -16.333 -6.50098 -27l-8.5 -33.5l-8.5 -33.5
l-147 -512h-70l-136 487l-23 86c-6 21.333 -9.66699 35.666 -11 42.999c0 -2.66699 -0.333008 -8.33398 -1 -17.001c-0.666992 -10 -1.33398 -21.667 -2.00098 -35s-1.5 -26.833 -2.5 -40.5s-1.83301 -25.5 -2.5 -35.5l-38 -488h-79l60 686h120l125 -448
c8.66699 -32 15.167 -59 19.5 -81l7.5 -38c0.666992 2.66699 3.16699 15 7.5 37s10.166 46.667 17.499 74l129 456h121l59 -686h-82z" />
    <glyph glyph-name="N" unicode="N" horiz-adv-x="646" 
d="M465 0l-220.002 419.996c-10 18.667 -19.167 36.667 -27.5 54l-23 47.5c-7 14.333 -12.833 26.833 -17.5 37.5s-8 19 -10 25c0.666992 -5.33301 1.33398 -14 2.00098 -26c0.666992 -12.667 1.5 -27.5 2.5 -44.5s2 -35.5 3 -55.5s1.5 -40 1.5 -60l4 -398h-85v686h95
l228 -438c8.66699 -16 16.667 -32.333 24 -49l19.5 -45l14 -33.5c3.66699 -9 5.83398 -14.5 6.50098 -16.5c0 0.666992 -0.5 7.33398 -1.5 20.001s-2 28.834 -3 48.501s-2 41.834 -3 66.501s-1.5 49.334 -1.5 74.001l-3 373h81v-686h-86z" />
    <glyph glyph-name="O" unicode="O" horiz-adv-x="681" 
d="M616 332c0 -66 -8.00195 -121.001 -24.002 -165.001s-41.333 -82 -76 -114c-25.333 -23.333 -51.666 -40.166 -78.999 -50.499s-59 -15.5 -95 -15.5c-42 0 -79.167 7.83301 -111.5 23.5s-60.166 36.834 -83.499 63.501c-54.667 62.667 -82 153.334 -82 272.001
c0 54.667 6.33301 103.667 19 147s30.667 80.166 54 110.499s52 53.666 86 69.999s72 24.5 114 24.5c30 0 56.5 -3.5 79.5 -10.5s43.167 -16 60.5 -27s32.333 -23.167 45 -36.5s23 -26 31 -38c21.333 -32 37 -68.5 47 -109.5s15 -89.167 15 -144.5zM523.998 319.999
c0 50.667 -2.66992 93.6641 -8.00293 128.997s-13.666 65 -24.999 89c-12 25.333 -30.5 47.333 -55.5 66s-57.5 28 -97.5 28c-32 0 -61.167 -7.16699 -87.5 -21.5s-46.166 -33.833 -59.499 -58.5c-12 -22.667 -20.833 -49.167 -26.5 -79.5s-8.5 -66.833 -8.5 -109.5
c0 -52 4 -99 12 -141s18.667 -74.667 32 -98c6.66699 -11.333 15.334 -21.5 26.001 -30.5s22.5 -16.667 35.5 -23s26.833 -11.333 41.5 -15s29 -5.5 43 -5.5c28 0 52.5 5 73.5 15s39.167 24.667 54.5 44c8.66699 10.667 16.167 22.334 22.5 35.001s11.5 27.334 15.5 44.001
s7 35.834 9 57.501s3 46.5 3 74.5z" />
    <glyph glyph-name="P" unicode="P" horiz-adv-x="548" 
d="M523 490c0 -35.333 -4.66699 -66.165 -14 -92.498s-25.333 -49.833 -48 -70.5c-23.333 -20.667 -48 -34.834 -74 -42.501s-56.667 -11.5 -92 -11.5h-120v-273h-80v686h190c37.333 0 67 -2.33301 89 -7s42.333 -13 61 -25c58.667 -38.667 88 -93.334 88 -164.001z
M432 474.001c0 50 -13.3311 86.333 -39.998 109c-14 12 -31 20.667 -51 26s-46.333 8 -79 8h-87v-277h115c29.333 0 51.666 2.83301 66.999 8.5s28.666 15.167 39.999 28.5c23.333 26 35 58.333 35 97z" />
    <glyph glyph-name="Q" unicode="Q" horiz-adv-x="681" 
d="M670 -115c-12 -6 -31.666 -8.99414 -58.999 -8.99414c-10.667 0 -22 1.83301 -34 5.5s-23.833 8 -35.5 13s-22.834 10.5 -33.501 16.5s-20 11.667 -28 17c-17.333 10.667 -32 19.167 -44 25.5s-23.167 11.666 -33.5 15.999s-20.666 7.66602 -30.999 9.99902
s-22.5 4.83301 -36.5 7.5c-42.667 0 -79.334 8.66699 -110.001 26s-56.334 37.666 -77.001 60.999c-55.333 63.333 -83 154 -83 272c0 54.667 6.33301 103.667 19 147s30.667 80.166 54 110.499s52 53.666 86 69.999s72 24.5 114 24.5c26.667 0 51.167 -3 73.5 -9
s42.5 -14.167 60.5 -24.5s33.833 -22.333 47.5 -36s25.167 -27.834 34.5 -42.501c21.333 -33.333 37.166 -70.166 47.499 -110.499s15.5 -88.166 15.5 -143.499c0 -66 -8.16699 -120.833 -24.5 -164.5s-41.833 -81.834 -76.5 -114.501c-14 -12.667 -28.667 -23.667 -44 -33
c14 -4.66699 29.5 -11.834 46.5 -21.501l45.5 -25.5c9.33301 -5.33301 21.833 -11.333 37.5 -18s33.834 -10 54.501 -10c9.33301 0 17.833 0.5 25.5 1.5s12.834 2.16699 15.501 3.5zM525.001 320.006c0 50.667 -2.83203 93.6689 -8.49902 129.002s-14.167 65 -25.5 89
c-5.33301 11.333 -12.333 22.666 -21 33.999s-19.167 21.5 -31.5 30.5s-26.666 16.167 -42.999 21.5s-35.5 8 -57.5 8c-32 0 -60.833 -7.33301 -86.5 -22s-45.167 -34 -58.5 -58c-12.667 -22.667 -22 -49.167 -28 -79.5s-9 -66.833 -9 -109.5c0 -52 4.16699 -99 12.5 -141
s19.166 -74.667 32.499 -98c13.333 -22.667 33.5 -40.667 60.5 -54s55.5 -20 85.5 -20c28 0 52.333 4.83301 73 14.5s38.667 24.5 54 44.5c8.66699 10.667 16.167 22.667 22.5 36s11.666 28.333 15.999 45s7.5 35.667 9.5 57s3 45.666 3 72.999z" />
    <glyph glyph-name="R" unicode="R" horiz-adv-x="556" 
d="M428 0c-5.33301 11.333 -13.002 26.168 -23.002 44.501s-22.5 39 -37.5 62s-32.167 48 -51.5 75l-63 84.5c-13.333 16.667 -25.166 28 -35.499 34s-23.833 9.33301 -40.5 10v-310h-82v686h160c23.333 0 44 -1 62 -3s33.833 -5 47.5 -9s25.667 -8.66699 36 -14
s19.5 -11.333 27.5 -18c8 -6 16 -13.5 24 -22.5s15.167 -19.5 21.5 -31.5s11.666 -25.5 15.999 -40.5s6.5 -31.5 6.5 -49.5c0 -28 -4.33301 -53.667 -13 -77s-21 -43.166 -37 -59.499s-35.167 -29 -57.5 -38s-47.166 -13.5 -74.499 -13.5h-10
c11.333 -9.33301 23.333 -21.333 36 -36s23.667 -28.334 33 -41.001c6.66699 -8.66699 17.334 -23.834 32.001 -45.501l47 -69.5l47 -70l32 -48h-103zM409.998 499.002c0 22.667 -6.33105 43.665 -18.998 62.998s-28.667 33 -48 41
c-11.333 4.66699 -23.833 8.16699 -37.5 10.5s-29.834 3.5 -48.501 3.5h-79v-256h73c30.667 0 55.667 2.83301 75 8.5s35.666 14.5 48.999 26.5c11.333 10.667 20 24.834 26 42.501s9 37.834 9 60.501z" />
    <glyph glyph-name="S" unicode="S" horiz-adv-x="579" 
d="M524 194c0 -32 -8.16992 -62.6689 -24.5029 -92.002s-39.833 -53.666 -70.5 -72.999c-22.667 -14.667 -46 -25.334 -70 -32.001s-52 -10 -84 -10c-41.333 0 -79.833 5 -115.5 15s-70.5 25.667 -104.5 47l36 64c28.667 -20.667 57.834 -35.667 87.501 -45
s61.834 -14 96.501 -14c26 0 47 2.16699 63 6.5s31.333 12.166 46 23.499c32.667 24.667 49 57.334 49 98.001c0 60.667 -41 103.334 -123 128.001l-69 21c-31.333 9.33301 -56.166 18.333 -74.499 27s-34.166 20 -47.499 34c-28.667 30.667 -43 68 -43 112
c0 29.333 5.33301 56 16 80s25.667 44.667 45 62s42.666 30.833 69.999 40.5s57.666 14.5 90.999 14.5c72.667 0 141.667 -22 207 -66l-36 -59c-16.667 10.667 -32 19.667 -46 27s-27.5 13.333 -40.5 18s-26 8 -39 10s-26.833 3 -41.5 3c-43.333 0 -77 -10 -101 -30
s-36 -47.667 -36 -83c0 -28 8.83301 -50.333 26.5 -67s46.834 -31.667 87.501 -45l79 -25c30.667 -9.33301 55 -19.166 73 -29.499s34 -23.5 48 -39.5s25 -34.833 33 -56.5s12 -43.167 12 -64.5z" />
    <glyph glyph-name="T" unicode="T" horiz-adv-x="464" 
d="M474 617h-186v-617h-79v617h-184v69h454z" />
    <glyph glyph-name="U" unicode="U" horiz-adv-x="635" 
d="M545 198c0 -41.333 -3.50098 -73.499 -10.501 -96.499s-20.833 -43.167 -41.5 -60.5c-21.333 -18 -46.166 -31.333 -74.499 -40s-63.5 -13 -105.5 -13c-53.333 0 -95.833 8 -127.5 24s-56.834 41 -75.501 75c-9.33301 16.667 -15 34.834 -17 54.501s-3 37.167 -3 52.5
v492h81v-462c0 -17.333 0.833008 -35.5 2.5 -54.5s4.83398 -33.833 9.50098 -44.5c3.33301 -7.33301 8.16602 -15 14.499 -23s14.833 -15.333 25.5 -22s23.667 -12 39 -16s33.666 -6 54.999 -6c28.667 0 53.334 3.66699 74.001 11s36.334 18 47.001 32
c11.333 15.333 18.5 31.166 21.5 47.499s4.5 36.166 4.5 59.499v478h81v-488z" />
    <glyph glyph-name="V" unicode="V" horiz-adv-x="577" 
d="M327 0l-81.001 -0.000976562l-231 686h89l145 -442l14 -46.5c4.66699 -15.667 8.83398 -30.667 12.501 -45s6.66699 -27 9 -38s3.83301 -18.833 4.5 -23.5c2 8.66699 6.5 25.334 13.5 50.001s16.5 55.667 28.5 93l147 452h84z" />
    <glyph glyph-name="W" unicode="W" horiz-adv-x="822" 
d="M640 0l-106.998 -0.00390625l-85 381l-14.5 71.5c-4.33301 22.333 -8 42 -11 59l-7.5 42c-2 11 -3 17.833 -3 20.5c-0.666992 -2 -1.83398 -8.5 -3.50098 -19.5s-4 -25.167 -7 -42.5s-6.66699 -36.833 -11 -58.5l-13.5 -66.5l-84 -387h-106l-162 686h88l87 -401
c4.66699 -21.333 9.16699 -43.666 13.5 -66.999s8.16602 -45 11.499 -65s6 -37 8 -51s3.33301 -22.333 4 -25c0 1.33301 1.33301 8.83301 4 22.5l9.5 49.5l12.5 63l13 63l91 411h93l95 -426l14.5 -70c4.33301 -21.333 8 -40.166 11 -56.499s5.16699 -29.5 6.5 -39.5
c1.33301 -7.33301 2.33301 -12.333 3 -15c0.666992 2.66699 1.66699 9 3 19c2.66699 12.667 5.66699 28.834 9 48.501s7.5 41.834 12.5 66.501l15.5 75l85 398h82z" />
    <glyph glyph-name="X" unicode="X" horiz-adv-x="546" 
d="M437 0l-170 315l-161 -315h-96l203 368l-182 318h97l137 -254l131 254h96l-172 -312l216 -374h-99z" />
    <glyph glyph-name="Y" unicode="Y" horiz-adv-x="519" 
d="M301 267v-267h-85v272l-221 414h101l130 -262l35 -77c1.33301 4 5.5 13.5 12.5 28.5s15.167 31.167 24.5 48.5l132 262h94z" />
    <glyph glyph-name="Z" unicode="Z" horiz-adv-x="518" 
d="M452 0h-406.999v63l293 489c11.333 19.333 21 34.5 29 45.5l15 20.5c-3.33301 0 -11.333 -0.166992 -24 -0.5s-28.334 -0.5 -47.001 -0.5h-256l23 69h391v-70l-285 -481c-10 -17.333 -19 -32 -27 -44s-13 -19.333 -15 -22c3.33301 0 10.5 0.166992 21.5 0.5
s23.5 0.5 37.5 0.5h272z" />
    <glyph glyph-name="bracketleft" unicode="[" horiz-adv-x="285" 
d="M95 -156v888h165v-60h-93v-768h93v-60h-165z" />
    <glyph glyph-name="backslash" unicode="\" horiz-adv-x="414" 
d="M326 -43l-301 769l63 24l301 -768z" />
    <glyph glyph-name="bracketright" unicode="]" horiz-adv-x="285" 
d="M25 -156v60h93v768h-93v60h165v-888h-165z" />
    <glyph glyph-name="asciicircum" unicode="^" horiz-adv-x="636" 
d="M497 275l-179 349l-179 -349h-74l223 433h60l223 -433h-74z" />
    <glyph glyph-name="underscore" unicode="_" horiz-adv-x="510" 
d="M5 -131v59h500v-59h-500z" />
    <glyph glyph-name="grave" unicode="`" horiz-adv-x="360" 
d="M279 565l-224 100l43 77l207 -130z" />
    <glyph glyph-name="a" unicode="a" horiz-adv-x="529" 
d="M432 -19c-17.333 5.33301 -31.8301 14.502 -43.4971 27.502s-19.834 28.167 -24.501 45.5c-24 -24 -46.833 -41.167 -68.5 -51.5s-46.834 -15.5 -75.501 -15.5c-30.667 0 -56.334 4.33301 -77.001 13s-37.167 19.667 -49.5 33s-21 28.5 -26 45.5s-7.5 33.833 -7.5 50.5
c0 56.667 23 100.667 69 132s111 47 195 47h15c5.33301 0 12 -0.333008 20 -1v35c0 22 -0.833008 38.5 -2.5 49.5s-6.16699 20.5 -13.5 28.5c-8 9.33301 -17.333 16.166 -28 20.499s-23.667 6.5 -39 6.5c-14 0 -28.667 -1.66699 -44 -5s-30.166 -7.83301 -44.499 -13.5
s-27.666 -12 -39.999 -19s-22.5 -14.167 -30.5 -21.5l-39 56c66.667 44.667 136.334 67 209.001 67c70.667 0 116.667 -26 138 -78c5.33301 -13.333 8.66602 -29.333 9.99902 -48s1.66602 -39.334 0.999023 -62.001l-4 -164c-0.666992 -20 -0.666992 -36.667 0 -50
s2.5 -24.5 5.5 -33.5s7.16699 -16.5 12.5 -22.5s12.666 -11.333 21.999 -16zM357.003 253.002c-5.33301 0.666992 -11.833 1.16797 -19.5 1.50098s-14.167 0.5 -19.5 0.5c-31.333 0 -58 -2.66699 -80 -8s-39.667 -13 -53 -23s-23 -22.5 -29 -37.5s-9 -31.833 -9 -50.5
c0 -60.667 28.667 -91 86 -91c25.333 0 49 7.16699 71 21.5s38.667 33.166 50 56.499z" />
    <glyph glyph-name="b" unicode="b" horiz-adv-x="572" 
d="M507 256c0 -40 -4.6709 -76.5 -14.0039 -109.5s-22.666 -61.167 -39.999 -84.5s-38.166 -41.5 -62.499 -54.5s-51.5 -19.5 -81.5 -19.5c-26 0 -51.833 6.33301 -77.5 19s-45.5 28.334 -59.5 47.001c-1.33301 -10.667 -2.66602 -19.834 -3.99902 -27.501
s-4.66602 -16.5 -9.99902 -26.5h-78c5.33301 12 9.16602 27.167 11.499 45.5s3.5 44.5 3.5 78.5v490c0 29.333 -1.83301 52.833 -5.5 70.5s-6.16699 28.167 -7.5 31.5l78 15c1.33301 -4 3.83301 -16.167 7.5 -36.5s5.5 -47.5 5.5 -81.5v-116
c0 -11.333 -0.333008 -22.5 -1 -33.5s-1 -18.167 -1 -21.5c24.667 24 48 41.167 70 51.5s46.333 15.5 73 15.5c30 0 56.833 -5.83301 80.5 -17.5s43.834 -28.5 60.501 -50.5s29.5 -48.667 38.5 -80s13.5 -66.333 13.5 -105zM419.996 261
c0 33.333 -2.16602 60.3311 -6.49902 80.998s-11.833 38.334 -22.5 53.001c-9.33301 13.333 -22.5 23.833 -39.5 31.5s-35.167 11.5 -54.5 11.5c-24.667 0 -48.334 -6.16699 -71.001 -18.5s-40.667 -27.833 -54 -46.5v-256c13.333 -17.333 31.333 -31.666 54 -42.999
s45.667 -17 69 -17c17.333 0 34.333 4 51 12s29.667 18.667 39 32s17.5 32.833 24.5 58.5s10.5 59.5 10.5 101.5z" />
    <glyph glyph-name="c" unicode="c" horiz-adv-x="469" 
d="M424 55c-23.333 -23.333 -46.668 -40.166 -70.001 -50.499s-50.666 -15.5 -81.999 -15.5c-71.333 0 -124.333 25 -159 75c-16.667 24 -28.834 50.167 -36.501 78.5s-11.5 61.166 -11.5 98.499c0 54.667 7.16699 98.334 21.5 131.001s32.166 59.667 53.499 81
c38.667 38.667 83.667 58 135 58c31.333 0 57.333 -5.33301 78 -16s40 -23.334 58 -38.001l-43 -54c-17.333 14.667 -32.666 25 -45.999 31s-29.666 9 -48.999 9s-37.5 -5 -54.5 -15s-30.167 -23.667 -39.5 -41c-18.667 -34.667 -28 -89 -28 -163
c0 -56.667 10.5 -99.667 31.5 -129s51.5 -44 91.5 -44c41.333 0 77 18 107 54z" />
    <glyph glyph-name="d" unicode="d" horiz-adv-x="571" 
d="M411 0c-1.33301 2.66699 -3.33105 9.00098 -5.99805 19.001s-4.33398 20.667 -5.00098 32c-18 -20.667 -37.167 -35.5 -57.5 -44.5s-45.166 -13.5 -74.499 -13.5c-64.667 0 -114.667 22 -150 66s-53 106 -53 186c0 106.667 34.333 183.667 103 231
c16 11.333 31.5 19.333 46.5 24s31.5 7 49.5 7c28 0 53.667 -5.5 77 -16.5s42.666 -26.5 57.999 -46.5c0 4 -0.166992 13.833 -0.5 29.5s-0.5 31.5 -0.5 47.5v209l78 -13v-556c0 -43.333 1.16699 -77.333 3.5 -102s6.16602 -44.334 11.499 -59.001h-80zM397.002 391.001
c-12.667 17.333 -28.5 30.332 -47.5 38.999s-43.5 13 -73.5 13c-40.667 0 -71.667 -17.333 -93 -52c-12 -19.333 -20.333 -39.333 -25 -60s-7 -48.667 -7 -84c0 -29.333 1.33301 -54.666 4 -75.999s8 -39.333 16 -54c11.333 -20.667 25 -35.5 41 -44.5
s35.667 -13.5 59 -13.5c20.667 0 37.834 2.5 51.501 7.5s28.5 13.167 44.5 24.5c8 5.33301 14.667 11.833 20 19.5s8.66602 13.167 9.99902 16.5v264z" />
    <glyph glyph-name="e" unicode="e" horiz-adv-x="521" 
d="M155 236l0.00195312 -12c0 -23.333 1.66699 -44 5 -62s9.33301 -33.667 18 -47c14 -21.333 31.833 -36.833 53.5 -46.5s45.167 -14.5 70.5 -14.5c47.333 0 88 15.667 122 47l30 -50c-22 -20 -47.5 -35.333 -76.5 -46s-59.5 -16 -91.5 -16
c-69.333 0 -123.5 23.5 -162.5 70.5s-58.5 111.833 -58.5 194.5c0 42 4.66699 77.5 14 106.5s24.666 56.167 45.999 81.5c39.333 46 89 69 149 69c55.333 0 100.333 -18 135 -54c10.667 -11.333 19.667 -23 27 -35s13.166 -26 17.499 -42s7.5 -34.667 9.5 -56s3 -47 3 -77
v-11h-311zM383.002 295c-0.666992 27.333 -2.83301 49.667 -6.5 67s-9.16699 32 -16.5 44c-8.66699 13.333 -21 24 -37 32s-33.667 12 -53 12c-72.667 0 -111 -51.667 -115 -155h228z" />
    <glyph glyph-name="f" unicode="f" horiz-adv-x="303" 
d="M319 640c-9.33301 5.33301 -20.667 10.5 -34 15.5s-26.666 7.5 -39.999 7.5c-45.333 0 -68 -29.333 -68 -88v-77h138l-24 -59h-114v-439h-82v439h-48v59h48v78c0 18.667 1.83301 34.667 5.5 48s8.33398 24.833 14.001 34.5s11.667 17.667 18 24s12.166 11.5 17.499 15.5
c23.333 17.333 52.666 26 87.999 26c44 0 80.667 -9.66699 110 -29z" />
    <glyph glyph-name="g" unicode="g" horiz-adv-x="514" 
d="M514 454c-15.333 -11.333 -29.3311 -19.1699 -41.998 -23.5029s-26.667 -6.5 -42 -6.5c-14 0 -25.333 2 -34 6c20 -25.333 30 -53.666 30 -84.999c0 -28 -6.5 -54.167 -19.5 -78.5s-31.167 -43.833 -54.5 -58.5c-12.667 -8 -26.834 -13.667 -42.501 -17
s-32.5 -5 -50.5 -5c-34 -12 -57.5 -22.5 -70.5 -31.5s-19.5 -17.833 -19.5 -26.5c0 -16 13.333 -24 40 -24h80c29.333 0 52.833 -2 70.5 -6s34.167 -11.333 49.5 -22c19.333 -13.333 33.333 -28.833 42 -46.5s13 -37.167 13 -58.5c0 -54 -17.833 -93.667 -53.5 -119
s-83.834 -38 -144.501 -38c-39.333 0 -72.666 3.33301 -99.999 10s-49.5 15.667 -66.5 27s-29.5 24.666 -37.5 39.999s-12 32 -12 50c0 9.33301 0.833008 18 2.5 26s4.16699 17 7.5 27l82 7c-3.33301 -5.33301 -6.5 -12.166 -9.5 -20.499s-4.5 -16.5 -4.5 -24.5
c0 -26.667 9.66699 -46 29 -58c12 -7.33301 26.833 -13 44.5 -17s36.5 -6 56.5 -6c38.667 0 68.5 6.66699 89.5 20s31.5 35.666 31.5 66.999c0 28 -9 48 -27 60c-9.33301 6.66699 -21.833 11.334 -37.5 14.001s-35.834 4 -60.501 4h-19
c-6.66699 0 -13.667 -0.166992 -21 -0.5s-14.333 -0.5 -21 -0.5h-16c-30 0 -53.167 6.33301 -69.5 19s-24.5 30.334 -24.5 53.001c0 20 6.5 36.5 19.5 49.5s36.5 24.833 70.5 35.5c-34 10.667 -61.167 29 -81.5 55s-30.5 55.667 -30.5 89c0 24.667 4.5 47.334 13.5 68.001
s21.5 38.5 37.5 53.5s35.333 26.5 58 34.5s47.667 12 75 12c18.667 0 34.334 -1.5 47.001 -4.5s24.167 -6.16699 34.5 -9.5s20.833 -6.5 31.5 -9.5s23.667 -4.5 39 -4.5c13.333 0 25.166 1.66699 35.499 5s21.5 9 33.5 17zM335.002 343.996c0 34 -7 59.167 -21 75.5
s-37.667 24.5 -71 24.5c-62.667 0 -94 -34.333 -94 -103c0 -32 8 -56.5 24 -73.5s40 -25.5 72 -25.5c60 0 90 34 90 102z" />
    <glyph glyph-name="h" unicode="h" horiz-adv-x="567" 
d="M395 0l0.000976562 344c0 18.667 -1.33301 33.834 -4 45.501s-7.66699 21.167 -15 28.5c-6 6 -14 10.833 -24 14.5s-21.333 5.5 -34 5.5c-24 0 -48.833 -7.33301 -74.5 -22s-49.167 -35.334 -70.5 -62.001v-354h-78v614c0 29.333 -1.83301 52.833 -5.5 70.5
s-6.16699 28.167 -7.5 31.5l78 15c1.33301 -4 3.83301 -16.167 7.5 -36.5s5.5 -47.5 5.5 -81.5v-116c0 -14 -0.333008 -28 -1 -42s-1.33398 -22.667 -2.00098 -26c22.667 21.333 48 39.833 76 55.5s58 23.5 90 23.5c30 0 57 -7.33301 81 -22s39.667 -33.667 47 -57
c3.33301 -10 5.5 -20 6.5 -30s1.5 -24 1.5 -42v-357h-77z" />
    <glyph glyph-name="i" unicode="i" horiz-adv-x="271" 
d="M95 0v496l81 13v-509h-81zM198 652c0 -17.333 -5.83301 -31.834 -17.5 -43.501s-26.167 -17.5 -43.5 -17.5s-31.833 5.83301 -43.5 17.5s-17.5 25.834 -17.5 42.501c0 17.333 5.83301 32 17.5 44s26.167 18 43.5 18s31.833 -5.83301 43.5 -17.5s17.5 -26.167 17.5 -43.5z
" />
    <glyph glyph-name="j" unicode="j" horiz-adv-x="270" 
d="M175 10c0 -21.333 -1 -41.667 -3 -61s-5.66699 -35.666 -11 -48.999c-9.33301 -23.333 -22.833 -42.833 -40.5 -58.5s-38.167 -28.834 -61.5 -39.501l-39 52c17.333 7.33301 31 16 41 26s17.5 21.5 22.5 34.5s8.16699 27.833 9.5 44.5s2 36 2 58v477l80 16v-500z
M196 651.999c0 -17.333 -5.83301 -31.833 -17.5 -43.5s-26.167 -17.5 -43.5 -17.5s-31.833 5.83301 -43.5 17.5s-17.5 26.167 -17.5 43.5s5.83301 31.833 17.5 43.5s26.167 17.5 43.5 17.5s31.833 -5.83301 43.5 -17.5s17.5 -26.167 17.5 -43.5z" />
    <glyph glyph-name="k" unicode="k" horiz-adv-x="514" 
d="M95 0v614c0 29.333 -1.83301 52.833 -5.5 70.5s-6.16699 28.167 -7.5 31.5l78 15c1.33301 -4 3.83301 -16.167 7.5 -36.5s5.5 -47.5 5.5 -81.5v-613h-78zM405 0l-229 282l190 216h98l-196 -216l241 -282h-104z" />
    <glyph glyph-name="l" unicode="l" horiz-adv-x="269" 
d="M228 1c-10 -4.66699 -18.166 -7.66699 -24.499 -9s-14.833 -2 -25.5 -2c-24.667 0 -44.334 7 -59.001 21c-8 7.33301 -14 16.5 -18 27.5s-6 25.5 -6 43.5v528c0 29.333 -1.66699 52.833 -5 70.5s-5.66602 28.167 -6.99902 31.5l78 15
c1.33301 -4 3.83301 -16.167 7.5 -36.5s5.5 -47.5 5.5 -81.5v-509c0 -19.333 1.83301 -32.5 5.5 -39.5s11.167 -10.5 22.5 -10.5c1.33301 0 4.66602 0.666992 9.99902 2z" />
    <glyph glyph-name="m" unicode="m" horiz-adv-x="812" 
d="M637 0l-0.000976562 367.999c0 48.667 -21.333 73 -64 73c-22.667 0 -43.834 -6.83301 -63.501 -20.5s-42.5 -32.5 -68.5 -56.5v-364h-79v354c0 15.333 -1 28 -3 38s-5.66699 18.667 -11 26c-11.333 13.333 -28.333 20 -51 20c-19.333 0 -38.833 -5.16699 -58.5 -15.5
s-42.5 -27.166 -68.5 -50.499v-372h-75v386c0 32 -2.5 56.833 -7.5 74.5s-8.5 28.167 -10.5 31.5l76 18c2 -4 5.5 -13.5 10.5 -28.5s7.5 -30.167 7.5 -45.5c8 9.33301 17.667 18.5 29 27.5s23.5 17 36.5 24s26.333 12.667 40 17s26.834 6.5 39.501 6.5
c24.667 0 47.834 -7.16699 69.501 -21.5s37.167 -34.833 46.5 -61.5c24 25.333 50.333 45.5 79 60.5s55.667 22.5 81 22.5c37.333 0 67.5 -12.5 90.5 -37.5s34.5 -57.5 34.5 -97.5v-376h-80z" />
    <glyph glyph-name="n" unicode="n" horiz-adv-x="556" 
d="M382 0l-0.00195312 337c0 13.333 -0.333008 24.333 -1 33s-1.66699 16 -3 22s-3.16602 11.167 -5.49902 15.5s-5.16602 8.5 -8.49902 12.5c-12 14 -30.333 21 -55 21c-10 0 -21.167 -1.83301 -33.5 -5.5s-24.666 -8.66699 -36.999 -15s-24.5 -13.833 -36.5 -22.5
s-22.333 -17.667 -31 -27v-371h-76v384c0 32 -2.66699 56.667 -8 74s-9 27.666 -11 30.999l76 21c2 -3.33301 5.5 -12.666 10.5 -27.999s7.5 -32 7.5 -50c51.333 51.333 103.666 77 156.999 77c27.333 0 52 -6.66699 74 -20s38 -31 48 -53c8 -18 12 -37.333 12 -58v-378h-79
z" />
    <glyph glyph-name="o" unicode="o" horiz-adv-x="549" 
d="M489 241c0 -41.333 -5.33203 -77.8311 -15.999 -109.498s-25.5 -58.167 -44.5 -79.5s-41.5 -37.5 -67.5 -48.5s-54.667 -16.5 -86 -16.5c-68.667 0 -121.667 23.667 -159 71s-56 112 -56 194c0 81.333 18.833 145.166 56.5 191.499s89.5 69.5 155.5 69.5
c42 0 76.667 -8.33301 104 -25s49.666 -37.334 66.999 -62.001c15.333 -22.667 26.833 -49 34.5 -79s11.5 -65.333 11.5 -106zM400.001 235.002c0 68.667 -7.66211 118.668 -22.9951 150.001c-10.667 22 -25.834 38.167 -45.501 48.5s-39.834 15.5 -60.501 15.5
c-22 0 -42.333 -4.83301 -61 -14.5s-32.334 -22.834 -41.001 -39.501c-8 -15.333 -14 -33.333 -18 -54s-6 -46 -6 -76c0 -35.333 2.83301 -67.5 8.5 -96.5s13.167 -51.167 22.5 -66.5s23.166 -27.5 41.499 -36.5s38.166 -13.5 59.499 -13.5c26 0 48.333 6.5 67 19.5
s32.334 31.5 41.001 55.5c5.33301 15.333 9.16602 31 11.499 47s3.5 36.333 3.5 61z" />
    <glyph glyph-name="p" unicode="p" horiz-adv-x="569" 
d="M504 250c0 -40 -3.16895 -73.001 -9.50195 -99.001s-16.5 -50.333 -30.5 -73c-18 -29.333 -40 -51.833 -66 -67.5s-55.333 -23.5 -88 -23.5c-25.333 0 -50.166 5.16699 -74.499 15.5s-45.166 24.5 -62.499 42.5v-238l-78 -15v598c0 34 -1.5 59.5 -4.5 76.5
s-5.16699 27.167 -6.5 30.5l80 14c0.666992 -2 1.66699 -9 3 -21s2 -30.333 2 -55c41.333 48.667 90.333 73 147 73c25.333 0 49.833 -5.33301 73.5 -16s43.5 -26 59.5 -46c18.667 -23.333 32.5 -50.666 41.5 -81.999s13.5 -69.333 13.5 -114zM420.998 239.999
c0 30 -1.99902 57.5 -5.99902 82.5s-9.66699 45.167 -17 60.5c-8 17.333 -20.333 30.833 -37 40.5s-35 14.5 -55 14.5c-50 0 -94.333 -23.333 -133 -70v-251c38 -43.333 78.667 -65 122 -65c23.333 0 44.5 5.66699 63.5 17s32.833 26.333 41.5 45
c7.33301 16 12.666 34 15.999 54s5 44 5 72z" />
    <glyph glyph-name="q" unicode="q" horiz-adv-x="569" 
d="M489 498c-1.33301 -4.66699 -4.16699 -17.832 -8.5 -39.499s-6.5 -51.167 -6.5 -88.5v-557l-75 -16v259c-37.333 -43.333 -84 -65 -140 -65c-23.333 0 -44 3.16699 -62 9.5s-35.333 16.5 -52 30.5c-24.667 20.667 -44.167 47 -58.5 79s-21.5 73.333 -21.5 124
c0 49.333 3.66699 89.166 11 119.499s19.333 56.833 36 79.5c18.667 25.333 40.667 45 66 59s53 21 83 21c27.333 0 52.333 -5.66699 75 -17s44.667 -29 66 -53c0 3.33301 0.333008 7.5 1 12.5s1.5 10.167 2.5 15.5l3 15.5c1 5 2.16699 8.83301 3.5 11.5h77z
M398.999 372.002c-13.333 21.333 -31.834 38.498 -55.501 51.498s-47.5 19.5 -71.5 19.5c-21.333 0 -41 -5.33301 -59 -16s-32 -25.667 -42 -45c-4 -8 -7.5 -16.333 -10.5 -25s-5.5 -18 -7.5 -28s-3.33301 -21.167 -4 -33.5s-1 -26.833 -1 -43.5
c0 -27.333 1.33301 -50.166 4 -68.499s6.16699 -33.666 10.5 -45.999s9.33301 -22.333 15 -30s11.5 -14.5 17.5 -20.5c10.667 -10 22.334 -17.333 35.001 -22s28.667 -7 48 -7c25.333 0 48.5 6.66699 69.5 20s38.167 32.333 51.5 57v237z" />
    <glyph glyph-name="r" unicode="r" horiz-adv-x="324" 
d="M307 423c-6.66699 2.66699 -13.999 4.00098 -21.999 4.00098c-31.333 0 -59 -12 -83 -36c-11.333 -11.333 -19 -22.166 -23 -32.499s-6 -25.833 -6 -46.5v-312h-78v384c0 32.667 -2.5 57.667 -7.5 75s-8.16699 27.666 -9.5 30.999l78 21c2 -4 5.5 -13.833 10.5 -29.5
s6.83301 -32.834 5.5 -51.501c18 25.333 39.5 45.5 64.5 60.5s50.167 22.5 75.5 22.5c6 0 11.667 -0.666992 17 -2s8.66602 -2.33301 9.99902 -3z" />
    <glyph glyph-name="s" unicode="s" horiz-adv-x="481" 
d="M426 148c0 -24 -4.50488 -46.002 -13.5049 -66.002s-21.833 -37.167 -38.5 -51.5s-36.5 -25.5 -59.5 -33.5s-48.5 -12 -76.5 -12c-32 0 -64.167 4.5 -96.5 13.5s-61.166 21.167 -86.499 36.5l30 58c51.333 -31.333 104 -47 158 -47c30.667 0 55.167 7.66699 73.5 23
s27.5 36.333 27.5 63c0 22.667 -6.5 40.5 -19.5 53.5s-33.833 22.5 -62.5 28.5l-62 13c-41.333 8.66699 -72.666 25 -93.999 49s-32 53.333 -32 88c0 22.667 4.33301 43.334 13 62.001s20.834 34.667 36.501 48s34.334 23.833 56.001 31.5s45.5 11.5 71.5 11.5
s52.5 -3.66699 79.5 -11s51.167 -17 72.5 -29l-29 -58c-22 10.667 -42.833 19.334 -62.5 26.001s-40.5 10 -62.5 10c-28.667 0 -51.5 -7.5 -68.5 -22.5s-25.5 -34.833 -25.5 -59.5c0 -19.333 5.33301 -34.833 16 -46.5s29.334 -20.167 56.001 -25.5l66 -14
c88.667 -18.667 133 -65 133 -139z" />
    <glyph glyph-name="t" unicode="t" horiz-adv-x="320" 
d="M276 439l-104.005 -0.000976562v-321c0 -28 4.5 -47.333 13.5 -58s25.833 -16 50.5 -16c11.333 0 20.5 0.833008 27.5 2.5s14.167 4.16699 21.5 7.5l11 -50c-25.333 -13.333 -54.666 -20 -87.999 -20c-13.333 0 -25.166 1.16699 -35.499 3.5
s-20.166 5.83301 -29.499 10.5c-17.333 8.66699 -29.666 21 -36.999 37s-11 36.667 -11 62v342h-65v59h65c0 10.667 0.333008 22.5 1 35.5s1.5 25.5 2.5 37.5s1.83301 22.833 2.5 32.5s1.33398 16.5 2.00098 20.5l82 18c-0.666992 -4 -1.5 -11 -2.5 -21s-2 -21.667 -3 -35
s-2 -27.666 -3 -42.999s-1.5 -30.333 -1.5 -45h125z" />
    <glyph glyph-name="u" unicode="u" horiz-adv-x="557" 
d="M446 -21c-16.667 13.333 -28.998 25.8311 -36.998 37.498s-13.667 25.834 -17 42.501c-38 -50.667 -90.667 -76 -158 -76c-32 0 -59.167 6.33301 -81.5 19s-38.833 30 -49.5 52c-4.66699 9.33301 -8 20.333 -10 33s-3 26.334 -3 41.001v366l77 15v-358
c0 -23.333 2.16699 -41.166 6.5 -53.499s12.166 -22.5 23.499 -30.5c8 -5.33301 17.333 -9.5 28 -12.5s21.667 -4.5 33 -4.5c24.667 0 48.667 8.16699 72 24.5s41.666 38.166 54.999 65.499v353l77 13v-363c0 -31.333 2.5 -54.833 7.5 -70.5s13.833 -29.167 26.5 -40.5z" />
    <glyph glyph-name="v" unicode="v" horiz-adv-x="473" 
d="M271 -5h-76.999l-179 499l80 17l116 -343c6 -18 11.167 -35.5 15.5 -52.5s7.16602 -27.833 8.49902 -32.5h2c1.33301 4 3.83301 14 7.5 30s9.16699 34 16.5 54l114 331h83z" />
    <glyph glyph-name="w" unicode="w" horiz-adv-x="695" 
d="M534 -4h-77.001l-99 350c-4 14.667 -7.16699 27 -9.5 37s-3.83301 16 -4.5 18h-2c0 -2 -0.5 -5 -1.5 -9s-2 -8.5 -3 -13.5s-2.16699 -10.167 -3.5 -15.5s-2.33301 -9.66602 -3 -12.999l-100 -354h-73l-138 498l78 17l80 -329c5.33301 -20.667 9.5 -38.834 12.5 -54.501
l5.5 -28.5h3l5.5 26.5c3 14.333 6.83301 29.5 11.5 45.5l89 327h85l87 -331c1.33301 -6 3 -12.833 5 -20.5l6 -22l5.5 -19c1.66699 -5.66699 2.83398 -9.5 3.50098 -11.5h2l15 69l79 335h82z" />
    <glyph glyph-name="x" unicode="x" horiz-adv-x="467" 
d="M367 0l-135 212l-135 -212h-92l186 276l-154 222h96l99 -166l96 166h91l-148 -222l191 -276h-95z" />
    <glyph glyph-name="y" unicode="y" horiz-adv-x="459" 
d="M273 -18c-8 -25.333 -16.8311 -48.1631 -26.498 -68.4961s-20.834 -38.5 -33.501 -54.5s-27.167 -29.333 -43.5 -40s-35.5 -18.667 -57.5 -24l-23 53c16 4.66699 29.667 10.667 41 18s21.333 16.666 30 27.999s16.5 25.666 23.5 42.999s13.833 38.666 20.5 63.999l-32 -5
c-1.33301 8 -4 19.5 -8 34.5l-13 48.5c-4.66699 17.333 -9.66699 34.5 -15 51.5l-14 44.5l-107 312l77 26l102 -323c3.33301 -10.667 6.66602 -22.334 9.99902 -35.001s6.33301 -25 9 -37l7 -32c2 -9.33301 3.33301 -16 4 -20h2l31 105l98 327h89z" />
    <glyph glyph-name="z" unicode="z" horiz-adv-x="459" 
d="M377 0h-332v60l271 376h-250v62h332v-64l-259 -374h275z" />
    <glyph glyph-name="braceleft" unicode="{" horiz-adv-x="331" 
d="M236 -156c-12.667 0 -25.167 2.66504 -37.5 7.99805s-23.5 13.333 -33.5 24s-18.167 23.834 -24.5 39.501s-9.5 33.5 -9.5 53.5v175c0 18 -2.5 34 -7.5 48s-11.5 26 -19.5 36s-17.167 17.5 -27.5 22.5s-20.833 7.5 -31.5 7.5v60c10.667 0 21.167 2.66699 31.5 8
s19.5 12.833 27.5 22.5s14.5 21.5 19.5 35.5s7.5 29.667 7.5 47v176c0 20 3.33301 37.833 10 53.5s15 28.834 25 39.501s21.167 18.667 33.5 24s24.5 8 36.5 8h70v-60h-54c-10.667 0 -19.167 -2.16699 -25.5 -6.5s-11.333 -10.333 -15 -18s-6 -16.167 -7 -25.5
s-1.5 -19 -1.5 -29v-176c0 -22.667 -3.33301 -41.834 -10 -57.501s-14.667 -28.5 -24 -38.5s-18.833 -17.5 -28.5 -22.5s-17.5 -8.16699 -23.5 -9.5v-2c6 -0.666992 13.833 -3.16699 23.5 -7.5s19.167 -11.333 28.5 -21s17.333 -22.667 24 -39s10 -36.833 10 -61.5v-175
c0 -10 0.5 -19.667 1.5 -29s3.33301 -17.666 7 -24.999s8.66699 -13.333 15 -18s14.833 -7 25.5 -7h54v-60h-70z" />
    <glyph glyph-name="bar" unicode="|" horiz-adv-x="256" 
d="M95 -208v964h66v-964h-66z" />
    <glyph glyph-name="braceright" unicode="}" horiz-adv-x="331" 
d="M286 258c-10.667 0 -21.167 -2.49805 -31.5 -7.49805s-19.5 -12.5 -27.5 -22.5s-14.5 -22 -19.5 -36s-7.5 -30 -7.5 -48v-175c0 -20 -3.16699 -37.833 -9.5 -53.5s-14.5 -28.834 -24.5 -39.501s-21.167 -18.667 -33.5 -24s-24.833 -8 -37.5 -8h-70v60h54
c10.667 0 19.167 2.33301 25.5 7s11.166 10.667 14.499 18s5.66602 15.666 6.99902 24.999s2 19 2 29v175c0 24.667 3.33301 45.167 10 61.5s14.667 29.333 24 39s18.833 16.667 28.5 21s17.5 6.83301 23.5 7.5v2c-6 1.33301 -13.833 4.5 -23.5 9.5s-19.167 12.5 -28.5 22.5
s-17.333 22.833 -24 38.5s-10 34.834 -10 57.501v176c0 10 -0.666992 19.667 -2 29s-3.66602 17.833 -6.99902 25.5s-8.16602 13.667 -14.499 18s-14.833 6.5 -25.5 6.5h-54v60h70c12 0 24.167 -2.66699 36.5 -8s23.5 -13.333 33.5 -24s18.333 -23.834 25 -39.501
s10 -33.5 10 -53.5v-176c0 -17.333 2.5 -33 7.5 -47s11.5 -25.833 19.5 -35.5s17.167 -17.167 27.5 -22.5s20.833 -8 31.5 -8v-60z" />
    <glyph glyph-name="asciitilde" unicode="~" horiz-adv-x="590" 
d="M525 324l-23.999 -31.5c-8 -10.333 -17 -19.666 -27 -27.999s-21.167 -15.166 -33.5 -20.499s-26.166 -8 -41.499 -8c-19.333 0 -38 3.5 -56 10.5s-36 14.833 -54 23.5s-35.833 16.5 -53.5 23.5s-35.5 10.5 -53.5 10.5c-22 0 -39.5 -7.33301 -52.5 -22
s-23.5 -30.667 -31.5 -48l-33 48c7.33301 10.667 15.166 21.167 23.499 31.5s17.333 19.666 27 27.999s20.667 15.166 33 20.499s26.166 8 41.499 8c19.333 0 38.166 -3.5 56.499 -10.5s36.333 -14.833 54 -23.5s35.334 -16.5 53.001 -23.5s35.5 -10.5 53.5 -10.5
c22 0 39.5 7.33301 52.5 22s23.833 30.667 32.5 48z" />
    <glyph glyph-name="uni00A0" unicode="&#xa0;" horiz-adv-x="230" 
 />
    <glyph glyph-name="exclamdown" unicode="&#xa1;" horiz-adv-x="292" 
d="M98 -183l19 501h60l19 -488zM207 461c0 -17.333 -5.83301 -31.833 -17.5 -43.5s-26.167 -17.5 -43.5 -17.5s-31.833 5.83301 -43.5 17.5s-17.5 25.834 -17.5 42.501c0 17.333 5.83301 32.166 17.5 44.499s26.167 18.5 43.5 18.5s31.833 -6 43.5 -18
s17.5 -26.667 17.5 -44z" />
    <glyph glyph-name="cent" unicode="&#xa2;" horiz-adv-x="622" 
d="M490 55c-19.333 -19.333 -38.666 -34.167 -57.999 -44.5s-40.666 -16.833 -63.999 -19.5v-76h-55v75c-59.333 5.33301 -104 30 -134 74c-16.667 24 -28.834 50.167 -36.501 78.5s-11.5 61.166 -11.5 98.499c0 54.667 7.16699 98.334 21.5 131.001
s32.166 59.667 53.499 81c32 32 67.667 50.333 107 55v78h55v-78c23.333 -3.33301 43.5 -9.5 60.5 -18.5s33.167 -19.833 48.5 -32.5l-43 -54c-13.333 11.333 -25 19.833 -35 25.5s-20.333 9.5 -31 11.5v-386c30.667 6.66699 57 23.667 79 51zM313 439.999
c-14 -4 -27 -10.5 -39 -19.5s-21.667 -20.167 -29 -33.5c-18.667 -34.667 -28 -89 -28 -163c0 -100.667 32 -157.667 96 -171v387z" />
    <glyph glyph-name="sterling" unicode="&#xa3;" horiz-adv-x="622" 
d="M517 599c-15.333 15.333 -31.667 27.3311 -49 35.998s-37 13 -59 13c-24.667 0 -45.167 -4.16699 -61.5 -12.5s-29.5 -20.166 -39.5 -35.499s-17 -33.666 -21 -54.999s-6 -45 -6 -71v-78h162v-66h-162v-252h246v-78h-438v78h108v252h-96v66h96v80
c0 43.333 5.5 80.5 16.5 111.5s26 56.333 45 76s41.667 34 68 43s54.5 13.5 84.5 13.5s59 -5 87 -15s52.667 -25.667 74 -47z" />
    <glyph glyph-name="currency" unicode="&#xa4;" horiz-adv-x="622" 
d="M416 46l-41 63c-18 -6.66699 -40 -10 -66 -10c-22.667 0 -44 3.66699 -64 11l-41 -64l-62 41l43 65c-24.667 30 -37 69.667 -37 119c0 51.333 13.333 92 40 122l-44 63l68 40l38 -63c18 5.33301 37.333 8 58 8c21.333 0 41.333 -3.33301 60 -10l37 65l64 -40l-42 -63
c10.667 -7.33301 20.5 -22 29.5 -44s13.5 -50 13.5 -84c0 -25.333 -2.66699 -47 -8 -65s-14.333 -34 -27 -48l45 -65zM403 261c0 38.667 -6.66797 69.167 -20.001 91.5s-38.666 33.5 -75.999 33.5c-33.333 0 -56.833 -9.33301 -70.5 -28s-20.5 -45 -20.5 -79
c0 -44 7.5 -75.833 22.5 -95.5s39.5 -29.5 73.5 -29.5c31.333 0 54.333 9.16699 69 27.5s22 44.833 22 79.5z" />
    <glyph glyph-name="yen" unicode="&#xa5;" horiz-adv-x="622" 
d="M409 374h149v-59h-180l-26 -48v-48h206v-59h-206v-160h-85v160h-194v59h194v53l-23 43h-171v59h139l-166 312h101l130 -262c7.33301 -14 14.333 -29.333 21 -46l14 -31c2 4.66699 6.83301 15 14.5 31l22.5 46l132 262h94z" />
    <glyph glyph-name="brokenbar" unicode="&#xa6;" horiz-adv-x="256" 
d="M95 346v410h66v-410h-66zM95 -208v410h66v-410h-66z" />
    <glyph glyph-name="section" unicode="&#xa7;" horiz-adv-x="548" 
d="M483 282c0 -30.667 -7.99609 -56.999 -23.9961 -78.999s-36.667 -40 -62 -54c21.333 -14 38.166 -31 50.499 -51s18.5 -44 18.5 -72c0 -28.667 -5.83301 -53.667 -17.5 -75s-27 -39 -46 -53s-40.833 -24.5 -65.5 -31.5s-49.667 -10.5 -75 -10.5
c-43.333 0 -82.833 9.83301 -118.5 29.5s-61.834 50.834 -78.501 93.501l77 36c9.33301 -30.667 25.166 -52.834 47.499 -66.501s48.5 -20.5 78.5 -20.5c14 0 27.5 1.66699 40.5 5s24.5 8.83301 34.5 16.5s18 17.334 24 29.001s9 25.5 9 41.5c0 12 -2 22.333 -6 31
s-10.167 16.667 -18.5 24s-18.833 14.5 -31.5 21.5l-44 23.5l-122 64c-23.333 12 -41.333 28.667 -54 50s-19 45.333 -19 72c0 35.333 9.5 64 28.5 86s43.167 40 72.5 54c-23.333 13.333 -42 29.5 -56 48.5s-21 42.167 -21 69.5c0 26.667 5.5 50.167 16.5 70.5
s25.5 37.166 43.5 50.499s38.5 23.5 61.5 30.5s46.5 10.5 70.5 10.5c17.333 0 34.666 -1.83301 51.999 -5.5s33.833 -9.16699 49.5 -16.5s29.834 -17 42.501 -29s23 -26.333 31 -43l-75 -41c-8 22 -21.833 38 -41.5 48s-40.167 15 -61.5 15
c-12.667 0 -25.334 -1.66699 -38.001 -5s-24 -8.5 -34 -15.5s-18 -16 -24 -27s-9 -23.833 -9 -38.5c0 -32.667 14.667 -56.667 44 -72l98 -49l52 -27.5c18 -9.66699 34.5 -21 49.5 -34s27.167 -27.833 36.5 -44.5s14 -36.334 14 -59.001zM399.004 270.001
c0 14 -3.16895 26.3311 -9.50195 36.998s-14.166 20.334 -23.499 29.001s-19.666 16.167 -30.999 22.5s-22.333 12.166 -33 17.499l-58 29c-10 -4 -20 -8.33301 -30 -13s-19 -10.334 -27 -17.001s-14.667 -14.5 -20 -23.5s-8 -19.833 -8 -32.5
c0 -13.333 2.66699 -24.666 8 -33.999s12 -17.666 20 -24.999s17.167 -13.666 27.5 -18.999s20.5 -10.333 30.5 -15l89 -43c16.667 7.33301 31.667 18.833 45 34.5s20 33.167 20 52.5z" />
    <glyph glyph-name="dieresis" unicode="&#xa8;" horiz-adv-x="420" 
d="M365 621c0 -14.667 -5 -27.167 -15 -37.5s-22 -15.5 -36 -15.5c-14.667 0 -27.167 5.16699 -37.5 15.5s-15.5 22.833 -15.5 37.5c0 14 5 26 15 36s22.333 15 37 15c14 0 26.167 -5 36.5 -15s15.5 -22 15.5 -36zM158 621c0 -14.667 -4.83203 -27.167 -14.499 -37.5
s-21.834 -15.5 -36.501 -15.5s-27 5.16699 -37 15.5s-15 22.833 -15 37.5c0 14 5 26 15 36s22 15 36 15c14.667 0 27 -5 37 -15s15 -22 15 -36z" />
    <glyph glyph-name="copyright" unicode="&#xa9;" horiz-adv-x="874" 
d="M809 354c0 -53.333 -9.83301 -102.666 -29.5 -147.999s-46.5 -84.5 -80.5 -117.5s-73.5 -59 -118.5 -78s-92.833 -28.5 -143.5 -28.5s-98.5 9.5 -143.5 28.5s-84.5 45 -118.5 78s-60.833 72.167 -80.5 117.5s-29.5 94.666 -29.5 147.999
c0 52.667 9.83301 101.834 29.5 147.501s46.5 85 80.5 118s73.5 59 118.5 78s92.833 28.5 143.5 28.5s98.5 -9.5 143.5 -28.5s84.5 -45 118.5 -78s60.833 -72.333 80.5 -118s29.5 -94.834 29.5 -147.501zM743 354c0 44.667 -8 86.5 -24 125.5s-37.833 72.667 -65.5 101
s-60 50.666 -97 66.999s-76.833 24.5 -119.5 24.5s-82.667 -8.16699 -120 -24.5s-69.666 -38.666 -96.999 -66.999s-49 -62 -65 -101s-24 -80.833 -24 -125.5c0 -45.333 8 -87.333 24 -126s37.667 -72.167 65 -100.5s59.666 -50.666 96.999 -66.999s77.333 -24.5 120 -24.5
s82.5 8.16699 119.5 24.5s69.333 38.666 97 66.999s49.5 61.833 65.5 100.5s24 80.667 24 126zM563 173c-32.667 -23.333 -69.668 -34.998 -111.001 -34.998c-27.333 0 -51.833 5.5 -73.5 16.5s-40.167 26.167 -55.5 45.5c-30 39.333 -45 88.666 -45 147.999
c0 24 2.33301 46.167 7 66.5s11.334 39.166 20.001 56.499c15.333 30 36 53.333 62 70s55 25 87 25c19.333 0 37.833 -2.83301 55.5 -8.5s32.834 -13.834 45.501 -24.501l-28 -38c-11.333 8.66699 -22.833 14.834 -34.5 18.501s-24.5 5.5 -38.5 5.5
c-42 0 -72.667 -19.667 -92 -59c-6.66699 -13.333 -11.667 -28.833 -15 -46.5s-5 -39.167 -5 -64.5c0 -23.333 1.16699 -42.333 3.5 -57s6.16602 -28 11.499 -40c10 -23.333 24 -40.333 42 -51s38 -16 60 -16c16 0 29.833 2 41.5 6s23.167 10.333 34.5 19z" />
    <glyph glyph-name="ordfeminine" unicode="&#xaa;" horiz-adv-x="429" 
d="M342 365c-27.333 8.66699 -44.668 26.668 -52.001 54.001c-18 -19.333 -35.667 -32.333 -53 -39s-35.666 -10 -54.999 -10c-23.333 0 -42.833 3.16699 -58.5 9.5s-28.167 14.666 -37.5 24.999s-15.833 22 -19.5 35s-5.5 25.833 -5.5 38.5
c0 43.333 17.167 76.666 51.5 99.999s82.833 35 145.5 35h12c3.33301 0 8 -0.333008 14 -1v36c0 44 -20 66 -60 66c-20 0 -40.667 -4.16699 -62 -12.5s-40.666 -19.166 -57.999 -32.499l-30 46c26.667 17.333 53 30.166 79 38.499s52.667 12.5 80 12.5
c23.333 0 43.166 -3.83301 59.499 -11.5s28.5 -17.5 36.5 -29.5c9.33301 -14 14.833 -29.833 16.5 -47.5s2.16699 -35.834 1.5 -54.501l-4 -134c-0.666992 -21.333 1 -38.166 5 -50.499s12.667 -22.166 26 -29.499zM283.998 571.001c-6.66699 1.33301 -12 2 -16 2h-13
c-46 0 -79 -7.33301 -99 -22s-30 -37 -30 -67c0 -46 21.667 -69 65 -69c19.333 0 37 5.5 53 16.5s28.667 25.167 38 42.5zM54.998 240.001v54h313v-54h-313z" />
    <glyph glyph-name="guillemotleft" unicode="&#xab;" horiz-adv-x="504" 
d="M394 26l-143 214l143 214l55 -36l-117 -178l117 -178zM208 26l-143 214l143 214l55 -36l-117 -178l117 -178z" />
    <glyph glyph-name="logicalnot" unicode="&#xac;" horiz-adv-x="499" 
d="M373 77v140h-318v71h389v-211h-71z" />
    <glyph glyph-name="uni00AD" unicode="&#xad;" horiz-adv-x="301" 
d="M60 229v76h191v-76h-191z" />
    <glyph glyph-name="registered" unicode="&#xae;" horiz-adv-x="874" 
d="M809 354c0 -53.333 -9.83301 -102.666 -29.5 -147.999s-46.5 -84.5 -80.5 -117.5s-73.5 -59 -118.5 -78s-92.833 -28.5 -143.5 -28.5s-98.5 9.5 -143.5 28.5s-84.5 45 -118.5 78s-60.833 72.167 -80.5 117.5s-29.5 94.666 -29.5 147.999
c0 52.667 9.83301 101.834 29.5 147.501s46.5 85 80.5 118s73.5 59 118.5 78s92.833 28.5 143.5 28.5s98.5 -9.5 143.5 -28.5s84.5 -45 118.5 -78s60.833 -72.333 80.5 -118s29.5 -94.834 29.5 -147.501zM743 354c0 44.667 -8 86.5 -24 125.5s-37.833 72.667 -65.5 101
s-60 50.666 -97 66.999s-76.833 24.5 -119.5 24.5s-82.667 -8.16699 -120 -24.5s-69.666 -38.666 -96.999 -66.999s-49 -62 -65 -101s-24 -80.833 -24 -125.5c0 -45.333 8 -87.333 24 -126s37.667 -72.167 65 -100.5s59.666 -50.666 96.999 -66.999s77.333 -24.5 120 -24.5
s82.5 8.16699 119.5 24.5s69.333 38.666 97 66.999s49.5 61.833 65.5 100.5s24 80.667 24 126zM523 150l-15.501 28.498l-18.5 32.5l-20.5 34c-5.66699 9.33301 -11 17.666 -16 24.999s-10.333 14.5 -16 21.5s-12.167 14.5 -19.5 22.5c-5.33301 6 -10.666 10.5 -15.999 13.5
s-12.333 4.83301 -21 5.5v-183h-58v413h116c24.667 0 44.667 -2.66699 60 -8s28 -12.666 38 -21.999c9.33301 -8.66699 17.833 -20 25.5 -34s11.5 -31 11.5 -51c0 -16 -2.5 -31 -7.5 -45s-12.333 -26.167 -22 -36.5s-21.334 -18.5 -35.001 -24.5s-29.167 -8.66699 -46.5 -8
c9.33301 -7.33301 16.833 -14.166 22.5 -20.499s10.167 -12.166 13.5 -17.499c4.66699 -5.33301 9.83398 -12.333 15.501 -21l19.5 -30l60 -95h-70zM511.999 446.998c0 14.667 -3.5 27.332 -10.5 37.999s-16.167 18.334 -27.5 23.001c-12.667 5.33301 -29.667 8 -51 8h-43
v-144h40c18.667 0 33.5 1.5 44.5 4.5s20.167 7.83301 27.5 14.5c13.333 13.333 20 32 20 56z" />
    <glyph glyph-name="macron" unicode="&#xaf;" horiz-adv-x="324" 
d="M25 683v54h274v-54h-274z" />
    <glyph glyph-name="degree" unicode="&#xb0;" horiz-adv-x="412" 
d="M367 515c0 -23.333 -3.16797 -45 -9.50098 -65s-16 -37.5 -29 -52.5s-29.667 -26.833 -50 -35.5s-44.5 -13 -72.5 -13c-50 0 -89.333 15.333 -118 46s-43 72.667 -43 126s14.167 95 42.5 125s67.5 45 117.5 45c50.667 0 90.334 -15.167 119.001 -45.5
s43 -73.833 43 -130.5zM299.999 511c0 38.667 -6.83301 69.167 -20.5 91.5s-38.834 33.5 -75.501 33.5c-32 0 -55.167 -8.83301 -69.5 -26.5s-21.5 -44.5 -21.5 -80.5c0 -44.667 7.83301 -76.667 23.5 -96s39.834 -29 72.501 -29c28 0 50.167 8.33301 66.5 25
s24.5 44 24.5 82z" />
    <glyph glyph-name="plusminus" unicode="&#xb1;" horiz-adv-x="481" 
d="M276 294v-140h-71v140h-150v71h150v133h71v-133h150v-71h-150zM57 36v71h367v-71h-367z" />
    <glyph glyph-name="twosuperior" unicode="&#xb2;" horiz-adv-x="358" 
d="M298 260h-247v40c13.333 9.33301 27.333 20.333 42 33s31.667 29.334 51 50.001c33.333 35.333 56.666 64.833 69.999 88.5s20 45.167 20 64.5s-5.83301 35 -17.5 47s-26.5 18 -44.5 18s-34.5 -4.33301 -49.5 -13l-44.5 -26l-33 35c26.667 22 51.334 37.833 74.001 47.5
s45.667 14.5 69 14.5c16.667 0 32.5 -3 47.5 -9s27.833 -14.167 38.5 -24.5s19.167 -22.5 25.5 -36.5s9.5 -29 9.5 -45c0 -16.667 -2.83301 -32.667 -8.5 -48s-13 -29.833 -22 -43.5s-19 -26.834 -30 -39.501s-22.167 -24.667 -33.5 -36l-34 -34l-29 -28
c3.33301 0 6.83301 0.166992 10.5 0.5s7.16699 0.5 10.5 0.5h140z" />
    <glyph glyph-name="threesuperior" unicode="&#xb3;" horiz-adv-x="363" 
d="M318 383c0 -28 -9.5 -52.6699 -28.5 -74.0029s-41.833 -37.666 -68.5 -48.999c-14.667 -6 -32.334 -10.833 -53.001 -14.5s-42 -5.5 -64 -5.5c-7.33301 0 -13 0.166992 -17 0.5s-10.667 1.16602 -20 2.49902l-17 51c13.333 -2 22.333 -3.16699 27 -3.5
s10.667 -0.5 18 -0.5c25.333 0 48 2.33301 68 7s38.333 14.334 55 29.001c9.33301 8 16.333 17.5 21 28.5s7 22.167 7 33.5c0 13.333 -3.83301 25 -11.5 35s-18.167 16.667 -31.5 20c-4 0.666992 -7.66699 1.33398 -11 2.00098s-7.33301 1.33398 -12 2.00098
s-10.667 1 -18 1h-45v51h16c22 0 38.667 0.333008 50 1s20 2.33398 26 5.00098c8 3.33301 14.667 9 20 17s8 17.333 8 28c0 15.333 -5.5 27.833 -16.5 37.5s-26.167 14.5 -45.5 14.5s-36.5 -3.5 -51.5 -10.5s-30.167 -15.833 -45.5 -26.5l-33 37c18 16 39.333 29.5 64 40.5
s49.667 16.5 75 16.5c36 0 65.667 -9.5 89 -28.5s35 -43.833 35 -74.5c0 -18.667 -4.66699 -35.167 -14 -49.5s-22.666 -25.833 -39.999 -34.5c19.333 -8.66699 34.833 -20.334 46.5 -35.001s17.5 -32.667 17.5 -54z" />
    <glyph glyph-name="acute" unicode="&#xb4;" horiz-adv-x="360" 
d="M81 565l-26 47l207 130l43 -77z" />
    <glyph glyph-name="mu" unicode="&#xb5;" horiz-adv-x="558" 
d="M447 -21c-16.667 13.333 -28.999 25.832 -36.999 37.499s-13.667 25.834 -17 42.501c-38 -50.667 -90.667 -76 -158 -76c-12.667 0 -25.167 1.5 -37.5 4.5s-22.166 7.83301 -29.499 14.5v-195l-78 -15v702l78 16v-359c0 -24.667 2 -42.5 6 -53.5s11.667 -20.5 23 -28.5
c8 -5.33301 17.5 -9.83301 28.5 -13.5s22.167 -5.5 33.5 -5.5c24.667 0 48.667 8.16699 72 24.5s41.666 38.166 54.999 65.499v353l77 13v-353c0 -16.667 0.333008 -31 1 -43s2.16699 -22.667 4.5 -32s5.66602 -17.666 9.99902 -24.999s10.5 -14.333 18.5 -21z" />
    <glyph glyph-name="paragraph" unicode="&#xb6;" horiz-adv-x="601" 
d="M434 -126l-0.000976562 767.998h-118v-768h-72v442c-30.667 0 -58.834 4.83301 -84.501 14.5s-47.667 22.834 -66 39.501s-32.666 36.334 -42.999 59.001s-15.5 47 -15.5 73c0 65.333 20.333 116 61 152s96.334 54 167.001 54h243v-834h-72z" />
    <glyph glyph-name="periodcentered" unicode="&#xb7;" horiz-adv-x="301" 
d="M216 279c0 -18 -6.33301 -33.5 -19 -46.5s-28 -19.5 -46 -19.5s-33.5 6.5 -46.5 19.5s-19.5 28.5 -19.5 46.5c0 18.667 6.33301 34.334 19 47.001s28 19 46 19s33.5 -6.33301 46.5 -19s19.5 -28.334 19.5 -47.001z" />
    <glyph glyph-name="cedilla" unicode="&#xb8;" horiz-adv-x="290" 
d="M235 -114c0 -9.33301 -2.16504 -18.999 -6.49805 -28.999s-10.5 -19 -18.5 -27s-18.167 -14.5 -30.5 -19.5s-26.5 -7.5 -42.5 -7.5c-15.333 0 -30.333 2.66699 -45 8s-27 10.666 -37 15.999l21 47c13.333 -6 24 -10.167 32 -12.5s17.667 -3.5 29 -3.5
c9.33301 0 17.666 2.66699 24.999 8s11 12.666 11 21.999c0 10 -4.16699 17.333 -12.5 22s-16.833 7 -25.5 7c-10.667 0 -19.334 -0.666992 -26.001 -2l-9 10l20 75h61l-11 -42c25.333 -3.33301 42.5 -11.666 51.5 -24.999s13.5 -29 13.5 -47z" />
    <glyph glyph-name="onesuperior" unicode="&#xb9;" horiz-adv-x="325" 
d="M90 260v54.999h62v256c-14 -9.33301 -28.667 -17.166 -44 -23.499l-46 -19.5l-17 41l124 83h51v-337h60v-55h-190z" />
    <glyph glyph-name="ordmasculine" unicode="&#xba;" horiz-adv-x="432" 
d="M377 557c0 -61.333 -14.332 -108.333 -42.999 -141s-68 -49 -118 -49s-89.333 17.667 -118 53s-43 84 -43 146c0 61.333 14.167 109.166 42.5 143.499s67.166 51.5 116.499 51.5c54.667 0 95.5 -18.167 122.5 -54.5s40.5 -86.166 40.5 -149.499zM305.001 554
c0 30 -2.33496 54.832 -7.00195 74.499s-11 35.334 -19 47.001s-17.667 19.667 -29 24s-23.666 6.5 -36.999 6.5c-31.333 0 -54 -11 -68 -33s-21 -55 -21 -99c0 -53.333 7.66699 -91.833 23 -115.5s39 -35.5 71 -35.5c28.667 0 50.334 10.333 65.001 31s22 54 22 100z
M59.999 239.999v54h313v-54h-313z" />
    <glyph glyph-name="guillemotright" unicode="&#xbb;" horiz-adv-x="504" 
d="M296 26l-55 36l117 178l-117 178l55 36l143 -214zM110 26l-55 36l117 178l-117 178l55 36l143 -214z" />
    <glyph glyph-name="onequarter" unicode="&#xbc;" horiz-adv-x="950" 
d="M254 -154h-66l527 917h66zM856 71c0 -2 0.166992 -4.00098 0.5 -6.00098s0.5 -4 0.5 -6v-60l-67 -18v77c0 2 0.166992 4.16699 0.5 6.5s0.5 4.5 0.5 6.5h-179v47l146 275h75l-26.5 -51.5l-36.5 -70.5l-41.5 -77c-14.333 -26 -27.833 -49.333 -40.5 -70l7 1h96l-1 6
c-1.33301 5.33301 -1.5 10.333 -0.5 15s1.83301 10.334 2.5 17.001l8 108l57 17v-155l-1 -8h49v-54h-49zM90 259.999v54.999h62v256c-14 -9.33301 -28.667 -17.166 -44 -23.499l-46 -19.5l-17 41l124 83h51v-337h60v-55h-190z" />
    <glyph glyph-name="onehalf" unicode="&#xbd;" horiz-adv-x="925" 
d="M235 -154h-66l527 917h66zM865 0h-247v40c13.333 9.33301 27.333 20.333 42 33s31.667 29.334 51 50.001c33.333 35.333 56.666 64.833 69.999 88.5s20 45.167 20 64.5s-5.83301 35 -17.5 47s-26.5 18 -44.5 18s-34.5 -4.33301 -49.5 -13l-44.5 -26l-33 35
c26.667 22 51.334 37.833 74.001 47.5s45.667 14.5 69 14.5c16.667 0 32.5 -3 47.5 -9s27.833 -14.167 38.5 -24.5s19.167 -22.5 25.5 -36.5s9.5 -29 9.5 -45c0 -16.667 -2.83301 -32.667 -8.5 -48s-13 -29.833 -22 -43.5s-19 -26.834 -30 -39.501
s-22.167 -24.667 -33.5 -36l-34 -34l-29 -28c3.33301 0 6.83301 0.166992 10.5 0.5s7.16699 0.5 10.5 0.5h140zM90 260v54.999h62v256c-14 -9.33301 -28.667 -17.166 -44 -23.499l-46 -19.5l-17 41l124 83h51v-337h60v-55h-190z" />
    <glyph glyph-name="threequarters" unicode="&#xbe;" horiz-adv-x="993" 
d="M296 -154h-66l527 917h66zM899 71c0 -2 0.166992 -4.00098 0.5 -6.00098s0.5 -4 0.5 -6v-60l-67 -18v77c0 2 0.166992 4.16699 0.5 6.5s0.5 4.5 0.5 6.5h-179v47l146 275h75l-26.5 -51.5l-36.5 -70.5l-41.5 -77c-14.333 -26 -27.833 -49.333 -40.5 -70l7 1h96l-1 6
c-1.33301 5.33301 -1.5 10.333 -0.5 15s1.83301 10.334 2.5 17.001l8 108l57 17v-155l-1 -8h49v-54h-49zM318 382.999c0 -28 -9.5 -52.6699 -28.5 -74.0029s-41.833 -37.666 -68.5 -48.999c-14.667 -6 -32.334 -10.833 -53.001 -14.5s-42 -5.5 -64 -5.5
c-7.33301 0 -13 0.166992 -17 0.5s-10.667 1.16602 -20 2.49902l-17 51c13.333 -2 22.333 -3.16699 27 -3.5s10.667 -0.5 18 -0.5c25.333 0 48 2.33301 68 7s38.333 14.334 55 29.001c9.33301 8 16.333 17.5 21 28.5s7 22.167 7 33.5c0 13.333 -3.83301 25 -11.5 35
s-18.167 16.667 -31.5 20c-4 0.666992 -7.66699 1.33398 -11 2.00098s-7.33301 1.33398 -12 2.00098s-10.667 1 -18 1h-45v51h16c22 0 38.667 0.333008 50 1s20 2.33398 26 5.00098c8 3.33301 14.667 9 20 17s8 17.333 8 28c0 15.333 -5.5 27.833 -16.5 37.5
s-26.167 14.5 -45.5 14.5s-36.5 -3.5 -51.5 -10.5s-30.167 -15.833 -45.5 -26.5l-33 37c18 16 39.333 29.5 64 40.5s49.667 16.5 75 16.5c36 0 65.667 -9.5 89 -28.5s35 -43.833 35 -74.5c0 -18.667 -4.66699 -35.167 -14 -49.5s-22.666 -25.833 -39.999 -34.5
c19.333 -8.66699 34.833 -20.334 46.5 -35.001s17.5 -32.667 17.5 -54z" />
    <glyph glyph-name="questiondown" unicode="&#xbf;" horiz-adv-x="438" 
d="M393 -127c-23.333 -18 -51.665 -32.3389 -84.998 -43.0059s-66.333 -16 -99 -16c-46 0 -83.167 13.333 -111.5 40s-42.5 62.334 -42.5 107.001c0 24.667 4.66699 46.334 14 65.001s20.166 34.667 32.499 48s24.166 24 35.499 32s19 13.667 23 17
c33.333 27.333 50 64.666 50 111.999c0 16.667 -2 34 -6 52h67c6 -24 9 -46.667 9 -68c0 -25.333 -4.33301 -49.166 -13 -71.499s-23 -42.833 -43 -61.5c-10 -9.33301 -20.167 -17.666 -30.5 -24.999s-20 -15.166 -29 -23.499s-16.333 -18.166 -22 -29.499
s-8.5 -25.666 -8.5 -42.999c0 -24.667 8.5 -44.667 25.5 -60s38.5 -23 64.5 -23c24 0 47.333 4.16699 70 12.5s44.667 19.5 66 33.5zM298.001 453.994c0 -18.667 -6.5 -34.5 -19.5 -47.5s-28.833 -19.5 -47.5 -19.5s-34.667 6.5 -48 19.5s-20 28.833 -20 47.5
c0 19.333 6.5 35.666 19.5 48.999s28.833 20 47.5 20s34.667 -6.66699 48 -20s20 -29.666 20 -48.999z" />
    <glyph glyph-name="Agrave" unicode="&#xc0;" horiz-adv-x="583" 
d="M480 0l-65 211h-256l-66 -211h-83l229 686h107l227 -686h-93zM289 614l-108 -336h213zM353 725l-224 100l43 77l207 -130z" />
    <glyph glyph-name="Aacute" unicode="&#xc1;" horiz-adv-x="583" 
d="M480 0l-65 211h-256l-66 -211h-83l229 686h107l227 -686h-93zM289 614l-108 -336h213zM231 725l-26 47l207 130l43 -77z" />
    <glyph glyph-name="Acircumflex" unicode="&#xc2;" horiz-adv-x="583" 
d="M480 0l-65 211h-256l-66 -211h-83l229 686h107l227 -686h-93zM289 614l-108 -336h213zM427 721l-139 85l-135 -85l-31 44l170 135l171 -135z" />
    <glyph glyph-name="Atilde" unicode="&#xc3;" horiz-adv-x="583" 
d="M480 0l-65 211h-256l-66 -211h-83l229 686h107l227 -686h-93zM289 614l-108 -336h213zM460 816c-16.667 -20.667 -33.667 -36.334 -51 -47.001s-40.666 -16 -69.999 -16c-15.333 0 -27.833 2 -37.5 6s-18.667 8.16699 -27 12.5s-17.166 8.5 -26.499 12.5s-21.333 6 -36 6
c-16 0 -28.833 -3.66699 -38.5 -11s-19.834 -16.666 -30.501 -27.999l-28 45c16.667 20.667 33.5 36.334 50.5 47.001s40.167 16 69.5 16c15.333 0 27.833 -2 37.5 -6s18.667 -8.16699 27 -12.5s17.166 -8.5 26.499 -12.5s21.333 -6 36 -6c16 0 29 3.66699 39 11
s20.333 16.666 31 27.999z" />
    <glyph glyph-name="Adieresis" unicode="&#xc4;" horiz-adv-x="583" 
d="M480 0l-65 211h-256l-66 -211h-83l229 686h107l227 -686h-93zM289 614l-108 -336h213zM241 781c0 -14.667 -4.83203 -27.167 -14.499 -37.5s-21.834 -15.5 -36.501 -15.5s-27 5.16699 -37 15.5s-15 22.833 -15 37.5c0 14 5 26 15 36s22 15 36 15c14.667 0 27 -5 37 -15
s15 -22 15 -36zM448.001 781c0 -14.667 -4.83203 -27.167 -14.499 -37.5s-21.834 -15.5 -36.501 -15.5s-27 5.16699 -37 15.5s-15 22.833 -15 37.5c0 14 5 26 15 36s22 15 36 15c14.667 0 27 -5 37 -15s15 -22 15 -36z" />
    <glyph glyph-name="Aring" unicode="&#xc5;" horiz-adv-x="583" 
d="M480 0l-65 211h-256l-66 -211h-83l229 686h107l227 -686h-93zM289 614l-108 -336h213zM396 819c0 -14.667 -2.66504 -28.334 -7.99805 -41.001s-12.833 -23.834 -22.5 -33.501s-20.834 -17.334 -33.501 -23.001s-26 -8.5 -40 -8.5c-14.667 0 -28.334 2.83301 -41.001 8.5
s-23.834 13.334 -33.501 23.001s-17.334 20.834 -23.001 33.501s-8.5 26.334 -8.5 41.001s2.66699 28.334 8 41.001s12.833 23.834 22.5 33.501s20.834 17.334 33.501 23.001s26 8.5 40 8.5s27.5 -2.83301 40.5 -8.5s24.333 -13.334 34 -23.001
s17.334 -20.834 23.001 -33.501s8.5 -26.334 8.5 -41.001zM351.002 819c0 16 -6.00098 30 -18.001 42s-26.667 18 -44 18c-15.333 0 -28.666 -6 -39.999 -18s-17 -26 -17 -42s6 -30 18 -42s26 -18 42 -18c15.333 0 29 6 41 18s18 26 18 42z" />
    <glyph glyph-name="AE" unicode="&#xc6;" horiz-adv-x="885" 
d="M460 0v213h-236l-130 -213h-89l424 686h406l-11 -69h-281v-224h235v-71h-235v-251h302v-71h-385zM460 607l-195 -327h195v327z" />
    <glyph glyph-name="Ccedilla" unicode="&#xc7;" horiz-adv-x="573" 
d="M538 45c-27.333 -17.333 -56.9961 -30.8311 -88.9961 -40.498s-65 -14.834 -99 -15.501l-8 -31c25.333 -3.33301 42.5 -11.666 51.5 -24.999s13.5 -29 13.5 -47c0 -9.33301 -2.16699 -19 -6.5 -29s-10.5 -19 -18.5 -27s-18.167 -14.5 -30.5 -19.5s-26.5 -7.5 -42.5 -7.5
c-15.333 0 -30.333 2.66699 -45 8s-27 10.666 -37 15.999l21 47c13.333 -6 24 -10.167 32 -12.5s17.667 -3.5 29 -3.5c9.33301 0 17.666 2.66699 24.999 8s11 12.666 11 21.999c0 10 -4.16699 17.333 -12.5 22s-16.833 7 -25.5 7c-10.667 0 -19.334 -0.666992 -26.001 -2
l-9 10l19 70c-27.333 6 -53.333 16 -78 30s-46.667 32.333 -66 55c-29.333 33.333 -50.333 72.333 -63 117s-19 92.667 -19 144c0 50.667 7.16699 97.667 21.5 141s34.333 80.833 60 112.5s56.167 56.334 91.5 74.001s73.666 26.5 114.999 26.5
c33.333 0 64.666 -4.83301 93.999 -14.5s55.666 -23.5 78.999 -41.5l-44 -53c-20.667 15.333 -41.167 26.333 -61.5 33s-43.166 10 -68.499 10c-40 0 -74 -10 -102 -30s-50.333 -49.333 -67 -88c-10 -23.333 -17.333 -49.333 -22 -78s-7 -63.334 -7 -104.001
c0 -33.333 1.66699 -60.833 5 -82.5s9 -42.5 17 -62.5c17.333 -43.333 42.5 -75.5 75.5 -96.5s69.167 -31.5 108.5 -31.5c25.333 0 48.5 3.5 69.5 10.5s42.5 18.167 64.5 33.5z" />
    <glyph glyph-name="Egrave" unicode="&#xc8;" horiz-adv-x="520" 
d="M95 0v686h375l-11 -68h-281v-225h235v-71h-235v-251h302v-71h-385zM371 725l-224 100l43 77l207 -130z" />
    <glyph glyph-name="Eacute" unicode="&#xc9;" horiz-adv-x="520" 
d="M95 0v686h375l-11 -68h-281v-225h235v-71h-235v-251h302v-71h-385zM203 725l-26 47l207 130l43 -77z" />
    <glyph glyph-name="Ecircumflex" unicode="&#xca;" horiz-adv-x="520" 
d="M95 0v686h375l-11 -68h-281v-225h235v-71h-235v-251h302v-71h-385zM421 721l-139 85l-135 -85l-31 44l170 135l171 -135z" />
    <glyph glyph-name="Edieresis" unicode="&#xcb;" horiz-adv-x="520" 
d="M95 0v686h375l-11 -68h-281v-225h235v-71h-235v-251h302v-71h-385zM233 781c0 -14.667 -4.83203 -27.167 -14.499 -37.5s-21.834 -15.5 -36.501 -15.5s-27 5.16699 -37 15.5s-15 22.833 -15 37.5c0 14 5 26 15 36s22 15 36 15c14.667 0 27 -5 37 -15s15 -22 15 -36z
M440.001 781c0 -14.667 -4.83203 -27.167 -14.499 -37.5s-21.834 -15.5 -36.501 -15.5s-27 5.16699 -37 15.5s-15 22.833 -15 37.5c0 14 5 26 15 36s22 15 36 15c14.667 0 27 -5 37 -15s15 -22 15 -36z" />
    <glyph glyph-name="Igrave" unicode="&#xcc;" horiz-adv-x="270" 
d="M95 0v686h80v-686h-80zM183 725l-224 100l43 77l207 -130z" />
    <glyph glyph-name="Iacute" unicode="&#xcd;" horiz-adv-x="270" 
d="M95 0v686h80v-686h-80zM93 725l-26 47l207 130l43 -77z" />
    <glyph glyph-name="Icircumflex" unicode="&#xce;" horiz-adv-x="270" 
d="M95 0v686h80v-686h-80zM270 721l-139 85l-135 -85l-31 44l170 135l171 -135z" />
    <glyph glyph-name="Idieresis" unicode="&#xcf;" horiz-adv-x="270" 
d="M95 0v686h80v-686h-80zM82 781c0 -14.667 -4.83203 -27.167 -14.499 -37.5s-21.834 -15.5 -36.501 -15.5s-27 5.16699 -37 15.5s-15 22.833 -15 37.5c0 14 5 26 15 36s22 15 36 15c14.667 0 27 -5 37 -15s15 -22 15 -36zM289.001 781
c0 -14.667 -4.83203 -27.167 -14.499 -37.5s-21.834 -15.5 -36.501 -15.5s-27 5.16699 -37 15.5s-15 22.833 -15 37.5c0 14 5 26 15 36s22 15 36 15c14.667 0 27 -5 37 -15s15 -22 15 -36z" />
    <glyph glyph-name="Eth" unicode="&#xd0;" horiz-adv-x="633" 
d="M568 342c0 -60.667 -7.16895 -112.168 -21.502 -154.501s-33.166 -76.166 -56.499 -101.499c-15.333 -16.667 -30.666 -30.5 -45.999 -41.5s-31.5 -19.833 -48.5 -26.5s-35.5 -11.334 -55.5 -14.001s-42 -4 -66 -4h-179v321h-84v59h84v306h137c26 0 49 -0.5 69 -1.5
s38.333 -3.33301 55 -7s32.667 -9 48 -16s31.333 -16.5 48 -28.5c39.333 -28 68.5 -66.667 87.5 -116s28.5 -107.666 28.5 -174.999zM478.998 331.999c0 51.333 -4.16797 94.6689 -12.501 130.002s-23.833 66.666 -46.5 93.999
c-11.333 13.333 -22.666 24.166 -33.999 32.499s-23.5 14.666 -36.5 18.999s-26.833 7.33301 -41.5 9s-31 2.5 -49 2.5h-82v-239h159l-24 -59h-135v-253h82c18 0 35.333 0.666992 52 2s32.5 4.5 47.5 9.5s28.833 12.333 41.5 22s23.667 22.5 33 38.5
c15.333 26.667 26.833 56.334 34.5 89.001s11.5 67 11.5 103z" />
    <glyph glyph-name="Ntilde" unicode="&#xd1;" horiz-adv-x="646" 
d="M465 0l-220.002 419.996c-10 18.667 -19.167 36.667 -27.5 54l-23 47.5c-7 14.333 -12.833 26.833 -17.5 37.5s-8 19 -10 25c0.666992 -5.33301 1.33398 -14 2.00098 -26c0.666992 -12.667 1.5 -27.5 2.5 -44.5s2 -35.5 3 -55.5s1.5 -40 1.5 -60l4 -398h-85v686h95
l228 -438c8.66699 -16 16.667 -32.333 24 -49l19.5 -45l14 -33.5c3.66699 -9 5.83398 -14.5 6.50098 -16.5c0 0.666992 -0.5 7.33398 -1.5 20.001s-2 28.834 -3 48.501s-2 41.834 -3 66.501s-1.5 49.334 -1.5 74.001l-3 373h81v-686h-86zM490.998 815.996
c-16.667 -20.667 -33.667 -36.334 -51 -47.001s-40.666 -16 -69.999 -16c-15.333 0 -27.833 2 -37.5 6s-18.667 8.16699 -27 12.5s-17.166 8.5 -26.499 12.5s-21.333 6 -36 6c-16 0 -28.833 -3.66699 -38.5 -11s-19.834 -16.666 -30.501 -27.999l-28 45
c16.667 20.667 33.5 36.334 50.5 47.001s40.167 16 69.5 16c15.333 0 27.833 -2 37.5 -6s18.667 -8.16699 27 -12.5s17.166 -8.5 26.499 -12.5s21.333 -6 36 -6c16 0 29 3.66699 39 11s20.333 16.666 31 27.999z" />
    <glyph glyph-name="Ograve" unicode="&#xd2;" horiz-adv-x="681" 
d="M616 332c0 -66 -8.00195 -121.001 -24.002 -165.001s-41.333 -82 -76 -114c-25.333 -23.333 -51.666 -40.166 -78.999 -50.499s-59 -15.5 -95 -15.5c-42 0 -79.167 7.83301 -111.5 23.5s-60.166 36.834 -83.499 63.501c-54.667 62.667 -82 153.334 -82 272.001
c0 54.667 6.33301 103.667 19 147s30.667 80.166 54 110.499s52 53.666 86 69.999s72 24.5 114 24.5c30 0 56.5 -3.5 79.5 -10.5s43.167 -16 60.5 -27s32.333 -23.167 45 -36.5s23 -26 31 -38c21.333 -32 37 -68.5 47 -109.5s15 -89.167 15 -144.5zM523.998 319.999
c0 50.667 -2.66992 93.6641 -8.00293 128.997s-13.666 65 -24.999 89c-12 25.333 -30.5 47.333 -55.5 66s-57.5 28 -97.5 28c-32 0 -61.167 -7.16699 -87.5 -21.5s-46.166 -33.833 -59.499 -58.5c-12 -22.667 -20.833 -49.167 -26.5 -79.5s-8.5 -66.833 -8.5 -109.5
c0 -52 4 -99 12 -141s18.667 -74.667 32 -98c6.66699 -11.333 15.334 -21.5 26.001 -30.5s22.5 -16.667 35.5 -23s26.833 -11.333 41.5 -15s29 -5.5 43 -5.5c28 0 52.5 5 73.5 15s39.167 24.667 54.5 44c8.66699 10.667 16.167 22.334 22.5 35.001s11.5 27.334 15.5 44.001
s7 35.834 9 57.501s3 46.5 3 74.5zM417.995 724.996l-224 100l43 77l207 -130z" />
    <glyph glyph-name="Oacute" unicode="&#xd3;" horiz-adv-x="681" 
d="M616 332c0 -66 -8.00195 -121.001 -24.002 -165.001s-41.333 -82 -76 -114c-25.333 -23.333 -51.666 -40.166 -78.999 -50.499s-59 -15.5 -95 -15.5c-42 0 -79.167 7.83301 -111.5 23.5s-60.166 36.834 -83.499 63.501c-54.667 62.667 -82 153.334 -82 272.001
c0 54.667 6.33301 103.667 19 147s30.667 80.166 54 110.499s52 53.666 86 69.999s72 24.5 114 24.5c30 0 56.5 -3.5 79.5 -10.5s43.167 -16 60.5 -27s32.333 -23.167 45 -36.5s23 -26 31 -38c21.333 -32 37 -68.5 47 -109.5s15 -89.167 15 -144.5zM523.998 319.999
c0 50.667 -2.66992 93.6641 -8.00293 128.997s-13.666 65 -24.999 89c-12 25.333 -30.5 47.333 -55.5 66s-57.5 28 -97.5 28c-32 0 -61.167 -7.16699 -87.5 -21.5s-46.166 -33.833 -59.499 -58.5c-12 -22.667 -20.833 -49.167 -26.5 -79.5s-8.5 -66.833 -8.5 -109.5
c0 -52 4 -99 12 -141s18.667 -74.667 32 -98c6.66699 -11.333 15.334 -21.5 26.001 -30.5s22.5 -16.667 35.5 -23s26.833 -11.333 41.5 -15s29 -5.5 43 -5.5c28 0 52.5 5 73.5 15s39.167 24.667 54.5 44c8.66699 10.667 16.167 22.334 22.5 35.001s11.5 27.334 15.5 44.001
s7 35.834 9 57.501s3 46.5 3 74.5zM282.995 724.996l-26 47l207 130l43 -77z" />
    <glyph glyph-name="Ocircumflex" unicode="&#xd4;" horiz-adv-x="681" 
d="M616 332c0 -66 -8.00195 -121.001 -24.002 -165.001s-41.333 -82 -76 -114c-25.333 -23.333 -51.666 -40.166 -78.999 -50.499s-59 -15.5 -95 -15.5c-42 0 -79.167 7.83301 -111.5 23.5s-60.166 36.834 -83.499 63.501c-54.667 62.667 -82 153.334 -82 272.001
c0 54.667 6.33301 103.667 19 147s30.667 80.166 54 110.499s52 53.666 86 69.999s72 24.5 114 24.5c30 0 56.5 -3.5 79.5 -10.5s43.167 -16 60.5 -27s32.333 -23.167 45 -36.5s23 -26 31 -38c21.333 -32 37 -68.5 47 -109.5s15 -89.167 15 -144.5zM523.998 319.999
c0 50.667 -2.66992 93.6641 -8.00293 128.997s-13.666 65 -24.999 89c-12 25.333 -30.5 47.333 -55.5 66s-57.5 28 -97.5 28c-32 0 -61.167 -7.16699 -87.5 -21.5s-46.166 -33.833 -59.499 -58.5c-12 -22.667 -20.833 -49.167 -26.5 -79.5s-8.5 -66.833 -8.5 -109.5
c0 -52 4 -99 12 -141s18.667 -74.667 32 -98c6.66699 -11.333 15.334 -21.5 26.001 -30.5s22.5 -16.667 35.5 -23s26.833 -11.333 41.5 -15s29 -5.5 43 -5.5c28 0 52.5 5 73.5 15s39.167 24.667 54.5 44c8.66699 10.667 16.167 22.334 22.5 35.001s11.5 27.334 15.5 44.001
s7 35.834 9 57.501s3 46.5 3 74.5zM476.995 720.996l-139 85l-135 -85l-31 44l170 135l171 -135z" />
    <glyph glyph-name="Otilde" unicode="&#xd5;" horiz-adv-x="681" 
d="M616 332c0 -66 -8.00195 -121.001 -24.002 -165.001s-41.333 -82 -76 -114c-25.333 -23.333 -51.666 -40.166 -78.999 -50.499s-59 -15.5 -95 -15.5c-42 0 -79.167 7.83301 -111.5 23.5s-60.166 36.834 -83.499 63.501c-54.667 62.667 -82 153.334 -82 272.001
c0 54.667 6.33301 103.667 19 147s30.667 80.166 54 110.499s52 53.666 86 69.999s72 24.5 114 24.5c30 0 56.5 -3.5 79.5 -10.5s43.167 -16 60.5 -27s32.333 -23.167 45 -36.5s23 -26 31 -38c21.333 -32 37 -68.5 47 -109.5s15 -89.167 15 -144.5zM523.998 319.999
c0 50.667 -2.66992 93.6641 -8.00293 128.997s-13.666 65 -24.999 89c-12 25.333 -30.5 47.333 -55.5 66s-57.5 28 -97.5 28c-32 0 -61.167 -7.16699 -87.5 -21.5s-46.166 -33.833 -59.499 -58.5c-12 -22.667 -20.833 -49.167 -26.5 -79.5s-8.5 -66.833 -8.5 -109.5
c0 -52 4 -99 12 -141s18.667 -74.667 32 -98c6.66699 -11.333 15.334 -21.5 26.001 -30.5s22.5 -16.667 35.5 -23s26.833 -11.333 41.5 -15s29 -5.5 43 -5.5c28 0 52.5 5 73.5 15s39.167 24.667 54.5 44c8.66699 10.667 16.167 22.334 22.5 35.001s11.5 27.334 15.5 44.001
s7 35.834 9 57.501s3 46.5 3 74.5zM512.995 815.996c-16.667 -20.667 -33.667 -36.334 -51 -47.001s-40.666 -16 -69.999 -16c-15.333 0 -27.833 2 -37.5 6s-18.667 8.16699 -27 12.5s-17.166 8.5 -26.499 12.5s-21.333 6 -36 6c-16 0 -28.833 -3.66699 -38.5 -11
s-19.834 -16.666 -30.501 -27.999l-28 45c16.667 20.667 33.5 36.334 50.5 47.001s40.167 16 69.5 16c15.333 0 27.833 -2 37.5 -6s18.667 -8.16699 27 -12.5s17.166 -8.5 26.499 -12.5s21.333 -6 36 -6c16 0 29 3.66699 39 11s20.333 16.666 31 27.999z" />
    <glyph glyph-name="Odieresis" unicode="&#xd6;" horiz-adv-x="681" 
d="M616 332c0 -66 -8.00195 -121.001 -24.002 -165.001s-41.333 -82 -76 -114c-25.333 -23.333 -51.666 -40.166 -78.999 -50.499s-59 -15.5 -95 -15.5c-42 0 -79.167 7.83301 -111.5 23.5s-60.166 36.834 -83.499 63.501c-54.667 62.667 -82 153.334 -82 272.001
c0 54.667 6.33301 103.667 19 147s30.667 80.166 54 110.499s52 53.666 86 69.999s72 24.5 114 24.5c30 0 56.5 -3.5 79.5 -10.5s43.167 -16 60.5 -27s32.333 -23.167 45 -36.5s23 -26 31 -38c21.333 -32 37 -68.5 47 -109.5s15 -89.167 15 -144.5zM523.998 319.999
c0 50.667 -2.66992 93.6641 -8.00293 128.997s-13.666 65 -24.999 89c-12 25.333 -30.5 47.333 -55.5 66s-57.5 28 -97.5 28c-32 0 -61.167 -7.16699 -87.5 -21.5s-46.166 -33.833 -59.499 -58.5c-12 -22.667 -20.833 -49.167 -26.5 -79.5s-8.5 -66.833 -8.5 -109.5
c0 -52 4 -99 12 -141s18.667 -74.667 32 -98c6.66699 -11.333 15.334 -21.5 26.001 -30.5s22.5 -16.667 35.5 -23s26.833 -11.333 41.5 -15s29 -5.5 43 -5.5c28 0 52.5 5 73.5 15s39.167 24.667 54.5 44c8.66699 10.667 16.167 22.334 22.5 35.001s11.5 27.334 15.5 44.001
s7 35.834 9 57.501s3 46.5 3 74.5zM284.995 780.996c0 -14.667 -4.83203 -27.167 -14.499 -37.5s-21.834 -15.5 -36.501 -15.5s-27 5.16699 -37 15.5s-15 22.833 -15 37.5c0 14 5 26 15 36s22 15 36 15c14.667 0 27 -5 37 -15s15 -22 15 -36zM490.996 780.996
c0 -14.667 -4.83203 -27.167 -14.499 -37.5s-21.834 -15.5 -36.501 -15.5s-27 5.16699 -37 15.5s-15 22.833 -15 37.5c0 14 5 26 15 36s22 15 36 15c14.667 0 27 -5 37 -15s15 -22 15 -36z" />
    <glyph glyph-name="multiply" unicode="&#xd7;" horiz-adv-x="544" 
d="M398 73l-126 126l-126 -126l-51 51l126 126l-126 126l51 51l126 -126l126 126l51 -51l-126 -126l126 -126z" />
    <glyph glyph-name="Oslash" unicode="&#xd8;" horiz-adv-x="681" 
d="M616 332c0 -66 -8.00098 -120.999 -24.001 -164.999s-41.333 -82 -76 -114c-25.333 -23.333 -51.666 -40.166 -78.999 -50.499s-59 -15.5 -95 -15.5c-30 0 -57.333 4 -82 12s-47 19 -67 33l-68 -113l-52 32l74 123c-54.667 62.667 -82 153.334 -82 272.001
c0 54.667 6.33301 103.667 19 147s30.667 80.166 54 110.499s52 53.666 86 69.999s72 24.5 114 24.5c34 0 63.667 -4.5 89 -13.5s47.333 -20.167 66 -33.5l64 107l53 -32l-71 -119c26.667 -32.667 46.167 -71.334 58.5 -116.001s18.5 -97.667 18.5 -159zM454.999 588.001
c-14 13.333 -30.6689 24.001 -50.002 32.001s-41.666 12 -66.999 12c-32 0 -61.167 -7.16699 -87.5 -21.5s-46.166 -33.833 -59.499 -58.5c-12 -22.667 -20.833 -49.167 -26.5 -79.5s-8.5 -66.833 -8.5 -109.5c0 -44.667 3 -85.834 9 -123.501s14 -69.167 24 -94.5z
M523.997 320.002c0 48.667 -2.5 90.1641 -7.5 124.497s-12.5 63.5 -22.5 87.5l-265 -441c15.333 -12.667 33.5 -22.667 54.5 -30s41.833 -11 62.5 -11c28 0 52.5 5 73.5 15s39.167 24.667 54.5 44c8.66699 10.667 16.167 22.334 22.5 35.001s11.5 27.334 15.5 44.001
s7 35.834 9 57.501s3 46.5 3 74.5z" />
    <glyph glyph-name="Ugrave" unicode="&#xd9;" horiz-adv-x="635" 
d="M545 198c0 -41.333 -3.50098 -73.499 -10.501 -96.499s-20.833 -43.167 -41.5 -60.5c-21.333 -18 -46.166 -31.333 -74.499 -40s-63.5 -13 -105.5 -13c-53.333 0 -95.833 8 -127.5 24s-56.834 41 -75.501 75c-9.33301 16.667 -15 34.834 -17 54.501s-3 37.167 -3 52.5
v492h81v-462c0 -17.333 0.833008 -35.5 2.5 -54.5s4.83398 -33.833 9.50098 -44.5c3.33301 -7.33301 8.16602 -15 14.499 -23s14.833 -15.333 25.5 -22s23.667 -12 39 -16s33.666 -6 54.999 -6c28.667 0 53.334 3.66699 74.001 11s36.334 18 47.001 32
c11.333 15.333 18.5 31.166 21.5 47.499s4.5 36.166 4.5 59.499v478h81v-488zM378.999 725.001l-224 100l43 77l207 -130z" />
    <glyph glyph-name="Uacute" unicode="&#xda;" horiz-adv-x="635" 
d="M545 198c0 -41.333 -3.50098 -73.499 -10.501 -96.499s-20.833 -43.167 -41.5 -60.5c-21.333 -18 -46.166 -31.333 -74.499 -40s-63.5 -13 -105.5 -13c-53.333 0 -95.833 8 -127.5 24s-56.834 41 -75.501 75c-9.33301 16.667 -15 34.834 -17 54.501s-3 37.167 -3 52.5
v492h81v-462c0 -17.333 0.833008 -35.5 2.5 -54.5s4.83398 -33.833 9.50098 -44.5c3.33301 -7.33301 8.16602 -15 14.499 -23s14.833 -15.333 25.5 -22s23.667 -12 39 -16s33.666 -6 54.999 -6c28.667 0 53.334 3.66699 74.001 11s36.334 18 47.001 32
c11.333 15.333 18.5 31.166 21.5 47.499s4.5 36.166 4.5 59.499v478h81v-488zM217.999 725.001l-26 47l207 130l43 -77z" />
    <glyph glyph-name="Ucircumflex" unicode="&#xdb;" horiz-adv-x="635" 
d="M545 198c0 -41.333 -3.50098 -73.499 -10.501 -96.499s-20.833 -43.167 -41.5 -60.5c-21.333 -18 -46.166 -31.333 -74.499 -40s-63.5 -13 -105.5 -13c-53.333 0 -95.833 8 -127.5 24s-56.834 41 -75.501 75c-9.33301 16.667 -15 34.834 -17 54.501s-3 37.167 -3 52.5
v492h81v-462c0 -17.333 0.833008 -35.5 2.5 -54.5s4.83398 -33.833 9.50098 -44.5c3.33301 -7.33301 8.16602 -15 14.499 -23s14.833 -15.333 25.5 -22s23.667 -12 39 -16s33.666 -6 54.999 -6c28.667 0 53.334 3.66699 74.001 11s36.334 18 47.001 32
c11.333 15.333 18.5 31.166 21.5 47.499s4.5 36.166 4.5 59.499v478h81v-488zM451.999 721.001l-139 85l-135 -85l-31 44l170 135l171 -135z" />
    <glyph glyph-name="Udieresis" unicode="&#xdc;" horiz-adv-x="635" 
d="M545 198c0 -41.333 -3.50098 -73.499 -10.501 -96.499s-20.833 -43.167 -41.5 -60.5c-21.333 -18 -46.166 -31.333 -74.499 -40s-63.5 -13 -105.5 -13c-53.333 0 -95.833 8 -127.5 24s-56.834 41 -75.501 75c-9.33301 16.667 -15 34.834 -17 54.501s-3 37.167 -3 52.5
v492h81v-462c0 -17.333 0.833008 -35.5 2.5 -54.5s4.83398 -33.833 9.50098 -44.5c3.33301 -7.33301 8.16602 -15 14.499 -23s14.833 -15.333 25.5 -22s23.667 -12 39 -16s33.666 -6 54.999 -6c28.667 0 53.334 3.66699 74.001 11s36.334 18 47.001 32
c11.333 15.333 18.5 31.166 21.5 47.499s4.5 36.166 4.5 59.499v478h81v-488zM264.999 781.001c0 -14.667 -4.83203 -27.167 -14.499 -37.5s-21.834 -15.5 -36.501 -15.5s-27 5.16699 -37 15.5s-15 22.833 -15 37.5c0 14 5 26 15 36s22 15 36 15c14.667 0 27 -5 37 -15
s15 -22 15 -36zM471 781.001c0 -14.667 -4.83203 -27.167 -14.499 -37.5s-21.834 -15.5 -36.501 -15.5s-27 5.16699 -37 15.5s-15 22.833 -15 37.5c0 14 5 26 15 36s22 15 36 15c14.667 0 27 -5 37 -15s15 -22 15 -36z" />
    <glyph glyph-name="Yacute" unicode="&#xdd;" horiz-adv-x="519" 
d="M301 267v-267h-85v272l-221 414h101l130 -262l35 -77c1.33301 4 5.5 13.5 12.5 28.5s15.167 31.167 24.5 48.5l132 262h94zM185 726l-26 47l207 130l43 -77z" />
    <glyph glyph-name="Thorn" unicode="&#xde;" horiz-adv-x="548" 
d="M523 360c0 -35.333 -4.66699 -66.165 -14 -92.498s-25.333 -49.833 -48 -70.5c-23.333 -20.667 -48 -34.834 -74 -42.501s-56.667 -11.5 -92 -11.5h-120v-143h-80v686h80v-130h110c37.333 0 67 -2.33301 89 -7s42.333 -13 61 -25c58.667 -38.667 88 -93.334 88 -164.001z
M432 344.001c0 25.333 -3.16504 46.833 -9.49805 64.5s-16.5 32.5 -30.5 44.5s-31 20.667 -51 26s-46.333 8 -79 8h-87v-277h115c29.333 0 51.666 2.83301 66.999 8.5s28.666 15.167 39.999 28.5c23.333 26 35 58.333 35 97z" />
    <glyph glyph-name="germandbls" unicode="&#xdf;" horiz-adv-x="577" 
d="M522 174c0 -25.333 -4.66895 -49.3223 -14.002 -71.9893s-22.166 -42.5 -38.499 -59.5s-36 -30.333 -59 -40s-48.5 -14.5 -76.5 -14.5c-19.333 0 -37.833 1.66699 -55.5 5s-32.167 7.66602 -43.5 12.999l23 52c9.33301 -4 19.166 -7.16699 29.499 -9.5
s22.166 -3.5 35.499 -3.5c16.667 0 32 3.33301 46 10s26.167 15.667 36.5 27s18.5 24.666 24.5 39.999s9 31.666 9 48.999c0 18.667 -2.16699 34.5 -6.5 47.5s-10.666 24 -18.999 33s-18.666 17 -30.999 24s-26.166 14.167 -41.499 21.5c-18 8 -33.5 15.333 -46.5 22
s-23.833 13.5 -32.5 20.5s-15.167 14.5 -19.5 22.5s-6.5 17.667 -6.5 29c0 12 2.33301 22.167 7 30.5s10.667 15.666 18 21.999s15.5 11.833 24.5 16.5l27.5 14l9 5c14.667 7.33301 27.667 16.666 39 27.999s17 29.333 17 54c0 26.667 -9.33301 48.334 -28 65.001
s-43.334 25 -74.001 25c-32 0 -57.333 -11.167 -76 -33.5s-28 -58.5 -28 -108.5v-408c0 -42.667 -4 -76.334 -12 -101.001h-75c3.33301 14 5.83301 31.167 7.5 51.5s2.5 42.166 2.5 65.499v322h-74v59h74c0 34.667 2.33301 63.167 7 85.5s15.667 43.5 33 63.5
s38.166 35.333 62.499 46s52.5 16 84.5 16c26 0 49.833 -3.83301 71.5 -11.5s40.5 -18.5 56.5 -32.5s28.5 -30.333 37.5 -49s13.5 -39 13.5 -61c0 -16 -2.5 -30.333 -7.5 -43s-11.5 -23.834 -19.5 -33.501s-17 -17.834 -27 -24.501s-20 -12.334 -30 -17.001
c-9.33301 -4.66699 -18.166 -8.33398 -26.499 -11.001s-15.666 -5.33398 -21.999 -8.00098s-11.333 -5.66699 -15 -9s-5.5 -7.66602 -5.5 -12.999c0 -4.66699 3.83301 -9.33398 11.5 -14.001s18.167 -9.83398 31.5 -15.501l45.5 -20c17 -7.66699 35.167 -17.167 54.5 -28.5
c22 -13.333 39.333 -32.666 52 -57.999s19 -54 19 -86z" />
    <glyph glyph-name="agrave" unicode="&#xe0;" horiz-adv-x="529" 
d="M432 -19c-17.333 5.33301 -31.8301 14.502 -43.4971 27.502s-19.834 28.167 -24.501 45.5c-24 -24 -46.833 -41.167 -68.5 -51.5s-46.834 -15.5 -75.501 -15.5c-30.667 0 -56.334 4.33301 -77.001 13s-37.167 19.667 -49.5 33s-21 28.5 -26 45.5s-7.5 33.833 -7.5 50.5
c0 56.667 23 100.667 69 132s111 47 195 47h15c5.33301 0 12 -0.333008 20 -1v35c0 22 -0.833008 38.5 -2.5 49.5s-6.16699 20.5 -13.5 28.5c-8 9.33301 -17.333 16.166 -28 20.499s-23.667 6.5 -39 6.5c-14 0 -28.667 -1.66699 -44 -5s-30.166 -7.83301 -44.499 -13.5
s-27.666 -12 -39.999 -19s-22.5 -14.167 -30.5 -21.5l-39 56c66.667 44.667 136.334 67 209.001 67c70.667 0 116.667 -26 138 -78c5.33301 -13.333 8.66602 -29.333 9.99902 -48s1.66602 -39.334 0.999023 -62.001l-4 -164c-0.666992 -20 -0.666992 -36.667 0 -50
s2.5 -24.5 5.5 -33.5s7.16699 -16.5 12.5 -22.5s12.666 -11.333 21.999 -16zM357.003 253.002c-5.33301 0.666992 -11.833 1.16797 -19.5 1.50098s-14.167 0.5 -19.5 0.5c-31.333 0 -58 -2.66699 -80 -8s-39.667 -13 -53 -23s-23 -22.5 -29 -37.5s-9 -31.833 -9 -50.5
c0 -60.667 28.667 -91 86 -91c25.333 0 49 7.16699 71 21.5s38.667 33.166 50 56.499zM351.003 565.003l-224 100l43 77l207 -130z" />
    <glyph glyph-name="aacute" unicode="&#xe1;" horiz-adv-x="529" 
d="M432 -19c-17.333 5.33301 -31.8301 14.502 -43.4971 27.502s-19.834 28.167 -24.501 45.5c-24 -24 -46.833 -41.167 -68.5 -51.5s-46.834 -15.5 -75.501 -15.5c-30.667 0 -56.334 4.33301 -77.001 13s-37.167 19.667 -49.5 33s-21 28.5 -26 45.5s-7.5 33.833 -7.5 50.5
c0 56.667 23 100.667 69 132s111 47 195 47h15c5.33301 0 12 -0.333008 20 -1v35c0 22 -0.833008 38.5 -2.5 49.5s-6.16699 20.5 -13.5 28.5c-8 9.33301 -17.333 16.166 -28 20.499s-23.667 6.5 -39 6.5c-14 0 -28.667 -1.66699 -44 -5s-30.166 -7.83301 -44.499 -13.5
s-27.666 -12 -39.999 -19s-22.5 -14.167 -30.5 -21.5l-39 56c66.667 44.667 136.334 67 209.001 67c70.667 0 116.667 -26 138 -78c5.33301 -13.333 8.66602 -29.333 9.99902 -48s1.66602 -39.334 0.999023 -62.001l-4 -164c-0.666992 -20 -0.666992 -36.667 0 -50
s2.5 -24.5 5.5 -33.5s7.16699 -16.5 12.5 -22.5s12.666 -11.333 21.999 -16zM357.003 253.002c-5.33301 0.666992 -11.833 1.16797 -19.5 1.50098s-14.167 0.5 -19.5 0.5c-31.333 0 -58 -2.66699 -80 -8s-39.667 -13 -53 -23s-23 -22.5 -29 -37.5s-9 -31.833 -9 -50.5
c0 -60.667 28.667 -91 86 -91c25.333 0 49 7.16699 71 21.5s38.667 33.166 50 56.499zM187.003 565.003l-26 47l207 130l43 -77z" />
    <glyph glyph-name="acircumflex" unicode="&#xe2;" horiz-adv-x="529" 
d="M432 -19c-17.333 5.33301 -31.8301 14.502 -43.4971 27.502s-19.834 28.167 -24.501 45.5c-24 -24 -46.833 -41.167 -68.5 -51.5s-46.834 -15.5 -75.501 -15.5c-30.667 0 -56.334 4.33301 -77.001 13s-37.167 19.667 -49.5 33s-21 28.5 -26 45.5s-7.5 33.833 -7.5 50.5
c0 56.667 23 100.667 69 132s111 47 195 47h15c5.33301 0 12 -0.333008 20 -1v35c0 22 -0.833008 38.5 -2.5 49.5s-6.16699 20.5 -13.5 28.5c-8 9.33301 -17.333 16.166 -28 20.499s-23.667 6.5 -39 6.5c-14 0 -28.667 -1.66699 -44 -5s-30.166 -7.83301 -44.499 -13.5
s-27.666 -12 -39.999 -19s-22.5 -14.167 -30.5 -21.5l-39 56c66.667 44.667 136.334 67 209.001 67c70.667 0 116.667 -26 138 -78c5.33301 -13.333 8.66602 -29.333 9.99902 -48s1.66602 -39.334 0.999023 -62.001l-4 -164c-0.666992 -20 -0.666992 -36.667 0 -50
s2.5 -24.5 5.5 -33.5s7.16699 -16.5 12.5 -22.5s12.666 -11.333 21.999 -16zM357.003 253.002c-5.33301 0.666992 -11.833 1.16797 -19.5 1.50098s-14.167 0.5 -19.5 0.5c-31.333 0 -58 -2.66699 -80 -8s-39.667 -13 -53 -23s-23 -22.5 -29 -37.5s-9 -31.833 -9 -50.5
c0 -60.667 28.667 -91 86 -91c25.333 0 49 7.16699 71 21.5s38.667 33.166 50 56.499zM401.003 561.003l-139 85l-135 -85l-31 44l170 135l171 -135z" />
    <glyph glyph-name="atilde" unicode="&#xe3;" horiz-adv-x="529" 
d="M432 -19c-17.333 5.33301 -31.8301 14.502 -43.4971 27.502s-19.834 28.167 -24.501 45.5c-24 -24 -46.833 -41.167 -68.5 -51.5s-46.834 -15.5 -75.501 -15.5c-30.667 0 -56.334 4.33301 -77.001 13s-37.167 19.667 -49.5 33s-21 28.5 -26 45.5s-7.5 33.833 -7.5 50.5
c0 56.667 23 100.667 69 132s111 47 195 47h15c5.33301 0 12 -0.333008 20 -1v35c0 22 -0.833008 38.5 -2.5 49.5s-6.16699 20.5 -13.5 28.5c-8 9.33301 -17.333 16.166 -28 20.499s-23.667 6.5 -39 6.5c-14 0 -28.667 -1.66699 -44 -5s-30.166 -7.83301 -44.499 -13.5
s-27.666 -12 -39.999 -19s-22.5 -14.167 -30.5 -21.5l-39 56c66.667 44.667 136.334 67 209.001 67c70.667 0 116.667 -26 138 -78c5.33301 -13.333 8.66602 -29.333 9.99902 -48s1.66602 -39.334 0.999023 -62.001l-4 -164c-0.666992 -20 -0.666992 -36.667 0 -50
s2.5 -24.5 5.5 -33.5s7.16699 -16.5 12.5 -22.5s12.666 -11.333 21.999 -16zM357.003 253.002c-5.33301 0.666992 -11.833 1.16797 -19.5 1.50098s-14.167 0.5 -19.5 0.5c-31.333 0 -58 -2.66699 -80 -8s-39.667 -13 -53 -23s-23 -22.5 -29 -37.5s-9 -31.833 -9 -50.5
c0 -60.667 28.667 -91 86 -91c25.333 0 49 7.16699 71 21.5s38.667 33.166 50 56.499zM440.003 656.003c-16.667 -20.667 -33.667 -36.334 -51 -47.001s-40.666 -16 -69.999 -16c-15.333 0 -27.833 2 -37.5 6s-18.667 8.16699 -27 12.5s-17.166 8.5 -26.499 12.5
s-21.333 6 -36 6c-16 0 -28.833 -3.66699 -38.5 -11s-19.834 -16.666 -30.501 -27.999l-28 45c16.667 20.667 33.5 36.334 50.5 47.001s40.167 16 69.5 16c15.333 0 27.833 -2 37.5 -6s18.667 -8.16699 27 -12.5s17.166 -8.5 26.499 -12.5s21.333 -6 36 -6
c16 0 29 3.66699 39 11s20.333 16.666 31 27.999z" />
    <glyph glyph-name="adieresis" unicode="&#xe4;" horiz-adv-x="529" 
d="M432 -19c-17.333 5.33301 -31.8301 14.502 -43.4971 27.502s-19.834 28.167 -24.501 45.5c-24 -24 -46.833 -41.167 -68.5 -51.5s-46.834 -15.5 -75.501 -15.5c-30.667 0 -56.334 4.33301 -77.001 13s-37.167 19.667 -49.5 33s-21 28.5 -26 45.5s-7.5 33.833 -7.5 50.5
c0 56.667 23 100.667 69 132s111 47 195 47h15c5.33301 0 12 -0.333008 20 -1v35c0 22 -0.833008 38.5 -2.5 49.5s-6.16699 20.5 -13.5 28.5c-8 9.33301 -17.333 16.166 -28 20.499s-23.667 6.5 -39 6.5c-14 0 -28.667 -1.66699 -44 -5s-30.166 -7.83301 -44.499 -13.5
s-27.666 -12 -39.999 -19s-22.5 -14.167 -30.5 -21.5l-39 56c66.667 44.667 136.334 67 209.001 67c70.667 0 116.667 -26 138 -78c5.33301 -13.333 8.66602 -29.333 9.99902 -48s1.66602 -39.334 0.999023 -62.001l-4 -164c-0.666992 -20 -0.666992 -36.667 0 -50
s2.5 -24.5 5.5 -33.5s7.16699 -16.5 12.5 -22.5s12.666 -11.333 21.999 -16zM357.003 253.002c-5.33301 0.666992 -11.833 1.16797 -19.5 1.50098s-14.167 0.5 -19.5 0.5c-31.333 0 -58 -2.66699 -80 -8s-39.667 -13 -53 -23s-23 -22.5 -29 -37.5s-9 -31.833 -9 -50.5
c0 -60.667 28.667 -91 86 -91c25.333 0 49 7.16699 71 21.5s38.667 33.166 50 56.499zM221.003 621.003c0 -14.667 -4.83203 -27.167 -14.499 -37.5s-21.834 -15.5 -36.501 -15.5s-27 5.16699 -37 15.5s-15 22.833 -15 37.5c0 14 5 26 15 36s22 15 36 15
c14.667 0 27 -5 37 -15s15 -22 15 -36zM428.004 621.003c0 -14.667 -4.83203 -27.167 -14.499 -37.5s-21.834 -15.5 -36.501 -15.5s-27 5.16699 -37 15.5s-15 22.833 -15 37.5c0 14 5 26 15 36s22 15 36 15c14.667 0 27 -5 37 -15s15 -22 15 -36z" />
    <glyph glyph-name="aring" unicode="&#xe5;" horiz-adv-x="529" 
d="M432 -19c-17.333 5.33301 -31.8301 14.502 -43.4971 27.502s-19.834 28.167 -24.501 45.5c-24 -24 -46.833 -41.167 -68.5 -51.5s-46.834 -15.5 -75.501 -15.5c-30.667 0 -56.334 4.33301 -77.001 13s-37.167 19.667 -49.5 33s-21 28.5 -26 45.5s-7.5 33.833 -7.5 50.5
c0 56.667 23 100.667 69 132s111 47 195 47h15c5.33301 0 12 -0.333008 20 -1v35c0 22 -0.833008 38.5 -2.5 49.5s-6.16699 20.5 -13.5 28.5c-8 9.33301 -17.333 16.166 -28 20.499s-23.667 6.5 -39 6.5c-14 0 -28.667 -1.66699 -44 -5s-30.166 -7.83301 -44.499 -13.5
s-27.666 -12 -39.999 -19s-22.5 -14.167 -30.5 -21.5l-39 56c66.667 44.667 136.334 67 209.001 67c70.667 0 116.667 -26 138 -78c5.33301 -13.333 8.66602 -29.333 9.99902 -48s1.66602 -39.334 0.999023 -62.001l-4 -164c-0.666992 -20 -0.666992 -36.667 0 -50
s2.5 -24.5 5.5 -33.5s7.16699 -16.5 12.5 -22.5s12.666 -11.333 21.999 -16zM357.003 253.002c-5.33301 0.666992 -11.833 1.16797 -19.5 1.50098s-14.167 0.5 -19.5 0.5c-31.333 0 -58 -2.66699 -80 -8s-39.667 -13 -53 -23s-23 -22.5 -29 -37.5s-9 -31.833 -9 -50.5
c0 -60.667 28.667 -91 86 -91c25.333 0 49 7.16699 71 21.5s38.667 33.166 50 56.499zM383.003 659.003c0 -14.667 -2.66504 -28.334 -7.99805 -41.001s-12.833 -23.834 -22.5 -33.501s-20.834 -17.334 -33.501 -23.001s-26 -8.5 -40 -8.5
c-14.667 0 -28.334 2.83301 -41.001 8.5s-23.834 13.334 -33.501 23.001s-17.334 20.834 -23.001 33.501s-8.5 26.334 -8.5 41.001s2.66699 28.334 8 41.001s12.833 23.834 22.5 33.501s20.834 17.334 33.501 23.001s26 8.5 40 8.5s27.5 -2.83301 40.5 -8.5
s24.333 -13.334 34 -23.001s17.334 -20.834 23.001 -33.501s8.5 -26.334 8.5 -41.001zM338.005 659.003c0 16 -6.00098 30 -18.001 42s-26.667 18 -44 18c-15.333 0 -28.666 -6 -39.999 -18s-17 -26 -17 -42s6 -30 18 -42s26 -18 42 -18c15.333 0 29 6 41 18s18 26 18 42z
" />
    <glyph glyph-name="ae" unicode="&#xe6;" horiz-adv-x="795" 
d="M429 236l0.00195312 -16.999c0 -22.667 2.66699 -44 8 -64s13.666 -37.5 24.999 -52.5s26.333 -26.833 45 -35.5s41.667 -13 69 -13c47.333 0 88 15.667 122 47l30 -50c-22 -20 -47.5 -35.333 -76.5 -46s-59.5 -16 -91.5 -16c-40 0 -74.833 8.5 -104.5 25.5
s-51.834 36.833 -66.501 59.5c-10.667 -13.333 -22.834 -25.333 -36.501 -36s-28 -19.834 -43 -27.501s-30.167 -13.5 -45.5 -17.5s-30 -6 -44 -6c-31.333 0 -57.333 4.5 -78 13.5s-37 20.5 -49 34.5s-20.5 29.333 -25.5 46s-7.5 32.667 -7.5 48c0 56.667 23 100.667 69 132
s111 47 195 47c6.66699 0 13.667 -0.166992 21 -0.5s12 -0.5 14 -0.5v35c0 22 -0.833008 38.5 -2.5 49.5s-6.16699 20.5 -13.5 28.5c-8 9.33301 -17.333 16.166 -28 20.499s-23.667 6.5 -39 6.5c-26 0 -53.167 -5.33301 -81.5 -16s-54.166 -25 -77.499 -43l-39 56
c66.667 44.667 136.334 67 209.001 67c30 0 54.667 -5.83301 74 -17.5s35 -27.5 47 -47.5c19.333 20 40.5 36 63.5 48s48.5 18 76.5 18c55.333 0 100.333 -18 135 -54c10.667 -11.333 19.667 -23 27 -35s13.166 -26.167 17.499 -42.5s7.5 -35.166 9.5 -56.499s3 -47 3 -77
v-11h-311zM357.002 253.001c-2.66699 0 -8.33398 0.333984 -17.001 1.00098s-16 1 -22 1c-61.333 0 -105.166 -10.167 -131.499 -30.5s-39.5 -49.833 -39.5 -88.5c0 -60.667 28.667 -91 86 -91c25.333 0 49 7.16699 71 21.5s38.667 33.166 50 56.499zM657.002 295.002
c0 52 -8.83301 90.833 -26.5 116.5s-46.5 38.5 -86.5 38.5c-72.667 0 -111 -51.667 -115 -155h228z" />
    <glyph glyph-name="ccedilla" unicode="&#xe7;" horiz-adv-x="469" 
d="M424 55c-22.667 -23.333 -45.3311 -39.998 -67.998 -49.998s-49 -15.333 -79 -16l-8 -31c25.333 -3.33301 42.5 -11.666 51.5 -24.999s13.5 -29 13.5 -47c0 -9.33301 -2.16699 -19 -6.5 -29s-10.5 -19 -18.5 -27s-18.167 -14.5 -30.5 -19.5s-26.5 -7.5 -42.5 -7.5
c-15.333 0 -30.333 2.66699 -45 8s-27 10.666 -37 15.999l21 47c13.333 -6 24 -10.167 32 -12.5s17.667 -3.5 29 -3.5c9.33301 0 17.666 2.66699 24.999 8s11 12.666 11 21.999c0 10 -4.16699 17.333 -12.5 22s-16.833 7 -25.5 7c-10.667 0 -19.334 -0.666992 -26.001 -2
l-9 10l19 70c-45.333 10 -80.333 33 -105 69c-16.667 24 -28.834 50.167 -36.501 78.5s-11.5 61.166 -11.5 98.499c0 54.667 7.16699 98.334 21.5 131.001s32.166 59.667 53.499 81c38.667 38.667 83.667 58 135 58c31.333 0 57.333 -5.33301 78 -16s40 -23.334 58 -38.001
l-43 -54c-17.333 14.667 -32.666 25 -45.999 31s-29.666 9 -48.999 9s-37.5 -5 -54.5 -15s-30.167 -23.667 -39.5 -41c-18.667 -34.667 -28 -89 -28 -163c0 -56.667 10.5 -99.667 31.5 -129s51.5 -44 91.5 -44c41.333 0 77 18 107 54z" />
    <glyph glyph-name="egrave" unicode="&#xe8;" horiz-adv-x="521" 
d="M155 236l0.00195312 -12c0 -23.333 1.66699 -44 5 -62s9.33301 -33.667 18 -47c14 -21.333 31.833 -36.833 53.5 -46.5s45.167 -14.5 70.5 -14.5c47.333 0 88 15.667 122 47l30 -50c-22 -20 -47.5 -35.333 -76.5 -46s-59.5 -16 -91.5 -16
c-69.333 0 -123.5 23.5 -162.5 70.5s-58.5 111.833 -58.5 194.5c0 42 4.66699 77.5 14 106.5s24.666 56.167 45.999 81.5c39.333 46 89 69 149 69c55.333 0 100.333 -18 135 -54c10.667 -11.333 19.667 -23 27 -35s13.166 -26 17.499 -42s7.5 -34.667 9.5 -56s3 -47 3 -77
v-11h-311zM383.002 295c-0.666992 27.333 -2.83301 49.667 -6.5 67s-9.16699 32 -16.5 44c-8.66699 13.333 -21 24 -37 32s-33.667 12 -53 12c-72.667 0 -111 -51.667 -115 -155h228zM357.003 565.001l-224 100l43 77l207 -130z" />
    <glyph glyph-name="eacute" unicode="&#xe9;" horiz-adv-x="521" 
d="M155 236l0.00195312 -12c0 -23.333 1.66699 -44 5 -62s9.33301 -33.667 18 -47c14 -21.333 31.833 -36.833 53.5 -46.5s45.167 -14.5 70.5 -14.5c47.333 0 88 15.667 122 47l30 -50c-22 -20 -47.5 -35.333 -76.5 -46s-59.5 -16 -91.5 -16
c-69.333 0 -123.5 23.5 -162.5 70.5s-58.5 111.833 -58.5 194.5c0 42 4.66699 77.5 14 106.5s24.666 56.167 45.999 81.5c39.333 46 89 69 149 69c55.333 0 100.333 -18 135 -54c10.667 -11.333 19.667 -23 27 -35s13.166 -26 17.499 -42s7.5 -34.667 9.5 -56s3 -47 3 -77
v-11h-311zM383.002 295c-0.666992 27.333 -2.83301 49.667 -6.5 67s-9.16699 32 -16.5 44c-8.66699 13.333 -21 24 -37 32s-33.667 12 -53 12c-72.667 0 -111 -51.667 -115 -155h228zM186.003 565.001l-26 47l207 130l43 -77z" />
    <glyph glyph-name="ecircumflex" unicode="&#xea;" horiz-adv-x="521" 
d="M155 236l0.00195312 -12c0 -23.333 1.66699 -44 5 -62s9.33301 -33.667 18 -47c14 -21.333 31.833 -36.833 53.5 -46.5s45.167 -14.5 70.5 -14.5c47.333 0 88 15.667 122 47l30 -50c-22 -20 -47.5 -35.333 -76.5 -46s-59.5 -16 -91.5 -16
c-69.333 0 -123.5 23.5 -162.5 70.5s-58.5 111.833 -58.5 194.5c0 42 4.66699 77.5 14 106.5s24.666 56.167 45.999 81.5c39.333 46 89 69 149 69c55.333 0 100.333 -18 135 -54c10.667 -11.333 19.667 -23 27 -35s13.166 -26 17.499 -42s7.5 -34.667 9.5 -56s3 -47 3 -77
v-11h-311zM383.002 295c-0.666992 27.333 -2.83301 49.667 -6.5 67s-9.16699 32 -16.5 44c-8.66699 13.333 -21 24 -37 32s-33.667 12 -53 12c-72.667 0 -111 -51.667 -115 -155h228zM408.003 561.001l-139 85l-135 -85l-31 44l170 135l171 -135z" />
    <glyph glyph-name="edieresis" unicode="&#xeb;" horiz-adv-x="521" 
d="M155 236l0.00195312 -12c0 -23.333 1.66699 -44 5 -62s9.33301 -33.667 18 -47c14 -21.333 31.833 -36.833 53.5 -46.5s45.167 -14.5 70.5 -14.5c47.333 0 88 15.667 122 47l30 -50c-22 -20 -47.5 -35.333 -76.5 -46s-59.5 -16 -91.5 -16
c-69.333 0 -123.5 23.5 -162.5 70.5s-58.5 111.833 -58.5 194.5c0 42 4.66699 77.5 14 106.5s24.666 56.167 45.999 81.5c39.333 46 89 69 149 69c55.333 0 100.333 -18 135 -54c10.667 -11.333 19.667 -23 27 -35s13.166 -26 17.499 -42s7.5 -34.667 9.5 -56s3 -47 3 -77
v-11h-311zM383.002 295c-0.666992 27.333 -2.83301 49.667 -6.5 67s-9.16699 32 -16.5 44c-8.66699 13.333 -21 24 -37 32s-33.667 12 -53 12c-72.667 0 -111 -51.667 -115 -155h228zM218.003 621.001c0 -14.667 -4.83203 -27.167 -14.499 -37.5
s-21.834 -15.5 -36.501 -15.5s-27 5.16699 -37 15.5s-15 22.833 -15 37.5c0 14 5 26 15 36s22 15 36 15c14.667 0 27 -5 37 -15s15 -22 15 -36zM425.004 621.001c0 -14.667 -4.83203 -27.167 -14.499 -37.5s-21.834 -15.5 -36.501 -15.5s-27 5.16699 -37 15.5
s-15 22.833 -15 37.5c0 14 5 26 15 36s22 15 36 15c14.667 0 27 -5 37 -15s15 -22 15 -36z" />
    <glyph glyph-name="igrave" unicode="&#xec;" horiz-adv-x="271" 
d="M95 0v496l81 13v-509h-81zM210 565l-224 100l43 77l207 -130z" />
    <glyph glyph-name="iacute" unicode="&#xed;" horiz-adv-x="271" 
d="M95 0v496l81 13v-509h-81zM62 565l-26 47l207 130l43 -77z" />
    <glyph glyph-name="icircumflex" unicode="&#xee;" horiz-adv-x="271" 
d="M95 0v496l81 13v-509h-81zM271 561l-139 85l-135 -85l-31 44l170 135l171 -135z" />
    <glyph glyph-name="idieresis" unicode="&#xef;" horiz-adv-x="271" 
d="M95 0v496l81 13v-509h-81zM94 621c0 -14.667 -4.83203 -27.167 -14.499 -37.5s-21.834 -15.5 -36.501 -15.5s-27 5.16699 -37 15.5s-15 22.833 -15 37.5c0 14 5 26 15 36s22 15 36 15c14.667 0 27 -5 37 -15s15 -22 15 -36zM280.001 621
c0 -14.667 -4.83203 -27.167 -14.499 -37.5s-21.834 -15.5 -36.501 -15.5s-27 5.16699 -37 15.5s-15 22.833 -15 37.5c0 14 5 26 15 36s22 15 36 15c14.667 0 27 -5 37 -15s15 -22 15 -36z" />
    <glyph glyph-name="eth" unicode="&#xf0;" horiz-adv-x="562" 
d="M497 260c0 -43.333 -5.83008 -82.001 -17.4971 -116.001s-27.334 -62.667 -47.001 -86s-42.834 -41.166 -69.501 -53.499s-55 -18.5 -85 -18.5s-58 6.83301 -84 20.5s-48.5 31.667 -67.5 54s-34 48.166 -45 77.499s-16.5 60 -16.5 92c0 30.667 5 60.334 15 89.001
s24 53.667 42 75s39.667 38.5 65 51.5s53.333 19.5 84 19.5c24.667 0 46.167 -2.16699 64.5 -6.5s34.166 -9.5 47.499 -15.5c-11.333 32 -27.333 61.333 -48 88s-47 50.667 -79 72l-52 -59l-51 36l49 55c-35.333 18.667 -77 34.667 -125 48l40 48c48 -12 91 -27 129 -45
l43 50l51 -36l-39 -44c68.667 -43.333 118.5 -98 149.5 -164s46.5 -143.333 46.5 -232zM412.003 250.999c0 8 -0.667969 18.334 -2.00098 31.001l-4 37.5c-1.33301 12.333 -2.66602 23.5 -3.99902 33.5s-2.33301 16 -3 18c-14.667 9.33301 -33.167 17.166 -55.5 23.499
s-45.166 9.5 -68.499 9.5c-19.333 0 -36.5 -4.66699 -51.5 -14s-27.833 -22 -38.5 -38s-18.834 -34.667 -24.501 -56s-8.5 -44 -8.5 -68s3.16699 -46.667 9.5 -68s15.333 -40 27 -56s25.5 -28.833 41.5 -38.5s34 -14.5 54 -14.5c43.333 0 75.5 17.667 96.5 53
s31.5 84.333 31.5 147z" />
    <glyph glyph-name="ntilde" unicode="&#xf1;" horiz-adv-x="556" 
d="M382 0l-0.00195312 337c0 13.333 -0.333008 24.333 -1 33s-1.66699 16 -3 22s-3.16602 11.167 -5.49902 15.5s-5.16602 8.5 -8.49902 12.5c-12 14 -30.333 21 -55 21c-10 0 -21.167 -1.83301 -33.5 -5.5s-24.666 -8.66699 -36.999 -15s-24.5 -13.833 -36.5 -22.5
s-22.333 -17.667 -31 -27v-371h-76v384c0 32 -2.66699 56.667 -8 74s-9 27.666 -11 30.999l76 21c2 -3.33301 5.5 -12.666 10.5 -27.999s7.5 -32 7.5 -50c51.333 51.333 103.666 77 156.999 77c27.333 0 52 -6.66699 74 -20s38 -31 48 -53c8 -18 12 -37.333 12 -58v-378h-79
zM444.998 656c-16.667 -20.667 -33.667 -36.334 -51 -47.001s-40.666 -16 -69.999 -16c-15.333 0 -27.833 2 -37.5 6s-18.667 8.16699 -27 12.5s-17.166 8.5 -26.499 12.5s-21.333 6 -36 6c-16 0 -28.833 -3.66699 -38.5 -11s-19.834 -16.666 -30.501 -27.999l-28 45
c16.667 20.667 33.5 36.334 50.5 47.001s40.167 16 69.5 16c15.333 0 27.833 -2 37.5 -6s18.667 -8.16699 27 -12.5s17.166 -8.5 26.499 -12.5s21.333 -6 36 -6c16 0 29 3.66699 39 11s20.333 16.666 31 27.999z" />
    <glyph glyph-name="ograve" unicode="&#xf2;" horiz-adv-x="549" 
d="M489 241c0 -41.333 -5.33203 -77.8311 -15.999 -109.498s-25.5 -58.167 -44.5 -79.5s-41.5 -37.5 -67.5 -48.5s-54.667 -16.5 -86 -16.5c-68.667 0 -121.667 23.667 -159 71s-56 112 -56 194c0 81.333 18.833 145.166 56.5 191.499s89.5 69.5 155.5 69.5
c42 0 76.667 -8.33301 104 -25s49.666 -37.334 66.999 -62.001c15.333 -22.667 26.833 -49 34.5 -79s11.5 -65.333 11.5 -106zM400.001 235.002c0 68.667 -7.66211 118.668 -22.9951 150.001c-10.667 22 -25.834 38.167 -45.501 48.5s-39.834 15.5 -60.501 15.5
c-22 0 -42.333 -4.83301 -61 -14.5s-32.334 -22.834 -41.001 -39.501c-8 -15.333 -14 -33.333 -18 -54s-6 -46 -6 -76c0 -35.333 2.83301 -67.5 8.5 -96.5s13.167 -51.167 22.5 -66.5s23.166 -27.5 41.499 -36.5s38.166 -13.5 59.499 -13.5c26 0 48.333 6.5 67 19.5
s32.334 31.5 41.001 55.5c5.33301 15.333 9.16602 31 11.499 47s3.5 36.333 3.5 61zM354.006 565.003l-224 100l43 77l207 -130z" />
    <glyph glyph-name="oacute" unicode="&#xf3;" horiz-adv-x="549" 
d="M489 241c0 -41.333 -5.33203 -77.8311 -15.999 -109.498s-25.5 -58.167 -44.5 -79.5s-41.5 -37.5 -67.5 -48.5s-54.667 -16.5 -86 -16.5c-68.667 0 -121.667 23.667 -159 71s-56 112 -56 194c0 81.333 18.833 145.166 56.5 191.499s89.5 69.5 155.5 69.5
c42 0 76.667 -8.33301 104 -25s49.666 -37.334 66.999 -62.001c15.333 -22.667 26.833 -49 34.5 -79s11.5 -65.333 11.5 -106zM400.001 235.002c0 68.667 -7.66211 118.668 -22.9951 150.001c-10.667 22 -25.834 38.167 -45.501 48.5s-39.834 15.5 -60.501 15.5
c-22 0 -42.333 -4.83301 -61 -14.5s-32.334 -22.834 -41.001 -39.501c-8 -15.333 -14 -33.333 -18 -54s-6 -46 -6 -76c0 -35.333 2.83301 -67.5 8.5 -96.5s13.167 -51.167 22.5 -66.5s23.166 -27.5 41.499 -36.5s38.166 -13.5 59.499 -13.5c26 0 48.333 6.5 67 19.5
s32.334 31.5 41.001 55.5c5.33301 15.333 9.16602 31 11.499 47s3.5 36.333 3.5 61zM200.006 565.003l-26 47l207 130l43 -77z" />
    <glyph glyph-name="ocircumflex" unicode="&#xf4;" horiz-adv-x="549" 
d="M489 241c0 -41.333 -5.33203 -77.8311 -15.999 -109.498s-25.5 -58.167 -44.5 -79.5s-41.5 -37.5 -67.5 -48.5s-54.667 -16.5 -86 -16.5c-68.667 0 -121.667 23.667 -159 71s-56 112 -56 194c0 81.333 18.833 145.166 56.5 191.499s89.5 69.5 155.5 69.5
c42 0 76.667 -8.33301 104 -25s49.666 -37.334 66.999 -62.001c15.333 -22.667 26.833 -49 34.5 -79s11.5 -65.333 11.5 -106zM400.001 235.002c0 68.667 -7.66211 118.668 -22.9951 150.001c-10.667 22 -25.834 38.167 -45.501 48.5s-39.834 15.5 -60.501 15.5
c-22 0 -42.333 -4.83301 -61 -14.5s-32.334 -22.834 -41.001 -39.501c-8 -15.333 -14 -33.333 -18 -54s-6 -46 -6 -76c0 -35.333 2.83301 -67.5 8.5 -96.5s13.167 -51.167 22.5 -66.5s23.166 -27.5 41.499 -36.5s38.166 -13.5 59.499 -13.5c26 0 48.333 6.5 67 19.5
s32.334 31.5 41.001 55.5c5.33301 15.333 9.16602 31 11.499 47s3.5 36.333 3.5 61zM410.006 561.003l-139 85l-135 -85l-31 44l170 135l171 -135z" />
    <glyph glyph-name="otilde" unicode="&#xf5;" horiz-adv-x="549" 
d="M489 241c0 -41.333 -5.33203 -77.8311 -15.999 -109.498s-25.5 -58.167 -44.5 -79.5s-41.5 -37.5 -67.5 -48.5s-54.667 -16.5 -86 -16.5c-68.667 0 -121.667 23.667 -159 71s-56 112 -56 194c0 81.333 18.833 145.166 56.5 191.499s89.5 69.5 155.5 69.5
c42 0 76.667 -8.33301 104 -25s49.666 -37.334 66.999 -62.001c15.333 -22.667 26.833 -49 34.5 -79s11.5 -65.333 11.5 -106zM400.001 235.002c0 68.667 -7.66211 118.668 -22.9951 150.001c-10.667 22 -25.834 38.167 -45.501 48.5s-39.834 15.5 -60.501 15.5
c-22 0 -42.333 -4.83301 -61 -14.5s-32.334 -22.834 -41.001 -39.501c-8 -15.333 -14 -33.333 -18 -54s-6 -46 -6 -76c0 -35.333 2.83301 -67.5 8.5 -96.5s13.167 -51.167 22.5 -66.5s23.166 -27.5 41.499 -36.5s38.166 -13.5 59.499 -13.5c26 0 48.333 6.5 67 19.5
s32.334 31.5 41.001 55.5c5.33301 15.333 9.16602 31 11.499 47s3.5 36.333 3.5 61zM450.006 656.003c-16.667 -20.667 -33.667 -36.334 -51 -47.001s-40.666 -16 -69.999 -16c-15.333 0 -27.833 2 -37.5 6s-18.667 8.16699 -27 12.5s-17.166 8.5 -26.499 12.5
s-21.333 6 -36 6c-16 0 -28.833 -3.66699 -38.5 -11s-19.834 -16.666 -30.501 -27.999l-28 45c16.667 20.667 33.5 36.334 50.5 47.001s40.167 16 69.5 16c15.333 0 27.833 -2 37.5 -6s18.667 -8.16699 27 -12.5s17.166 -8.5 26.499 -12.5s21.333 -6 36 -6
c16 0 29 3.66699 39 11s20.333 16.666 31 27.999z" />
    <glyph glyph-name="odieresis" unicode="&#xf6;" horiz-adv-x="549" 
d="M489 241c0 -41.333 -5.33203 -77.8311 -15.999 -109.498s-25.5 -58.167 -44.5 -79.5s-41.5 -37.5 -67.5 -48.5s-54.667 -16.5 -86 -16.5c-68.667 0 -121.667 23.667 -159 71s-56 112 -56 194c0 81.333 18.833 145.166 56.5 191.499s89.5 69.5 155.5 69.5
c42 0 76.667 -8.33301 104 -25s49.666 -37.334 66.999 -62.001c15.333 -22.667 26.833 -49 34.5 -79s11.5 -65.333 11.5 -106zM400.001 235.002c0 68.667 -7.66211 118.668 -22.9951 150.001c-10.667 22 -25.834 38.167 -45.501 48.5s-39.834 15.5 -60.501 15.5
c-22 0 -42.333 -4.83301 -61 -14.5s-32.334 -22.834 -41.001 -39.501c-8 -15.333 -14 -33.333 -18 -54s-6 -46 -6 -76c0 -35.333 2.83301 -67.5 8.5 -96.5s13.167 -51.167 22.5 -66.5s23.166 -27.5 41.499 -36.5s38.166 -13.5 59.499 -13.5c26 0 48.333 6.5 67 19.5
s32.334 31.5 41.001 55.5c5.33301 15.333 9.16602 31 11.499 47s3.5 36.333 3.5 61zM219.006 621.003c0 -14.667 -4.83203 -27.167 -14.499 -37.5s-21.834 -15.5 -36.501 -15.5s-27 5.16699 -37 15.5s-15 22.833 -15 37.5c0 14 5 26 15 36s22 15 36 15
c14.667 0 27 -5 37 -15s15 -22 15 -36zM427.007 621.003c0 -14.667 -4.83203 -27.167 -14.499 -37.5s-21.834 -15.5 -36.501 -15.5s-27 5.16699 -37 15.5s-15 22.833 -15 37.5c0 14 5 26 15 36s22 15 36 15c14.667 0 27 -5 37 -15s15 -22 15 -36z" />
    <glyph glyph-name="divide" unicode="&#xf7;" horiz-adv-x="610" 
d="M55 235v65h500v-65h-500zM374 56c0 -19.333 -6.49902 -35.5 -19.499 -48.5s-29.167 -19.5 -48.5 -19.5c-18.667 0 -34.334 6.5 -47.001 19.5s-19 28.833 -19 47.5c0 19.333 6.5 35.5 19.5 48.5s29.167 19.5 48.5 19.5c18 0 33.5 -6.5 46.5 -19.5s19.5 -28.833 19.5 -47.5
zM374.001 472c0 -19.333 -6.5 -35.5 -19.5 -48.5s-28.833 -19.5 -47.5 -19.5s-34.5 6.33301 -47.5 19s-19.5 28.334 -19.5 47.001c0 19.333 6.5 35.666 19.5 48.999s29.167 20 48.5 20c18 0 33.5 -6.5 46.5 -19.5s19.5 -28.833 19.5 -47.5z" />
    <glyph glyph-name="oslash" unicode="&#xf8;" horiz-adv-x="549" 
d="M489 237c0 -48.667 -6.00195 -89.166 -18.002 -121.499s-32 -60.5 -60 -84.5c-19.333 -17.333 -39.833 -29.666 -61.5 -36.999s-46.5 -11 -74.5 -11c-43.333 0 -80.333 10 -111 30l-48 -79l-48 30l52 87c-19.333 22.667 -34.166 50.667 -44.499 84s-15.5 71 -15.5 113
c0 81.333 18.833 145.166 56.5 191.499s89.5 69.5 155.5 69.5c21.333 0 40.833 -2.33301 58.5 -7s33.834 -11.334 48.501 -20.001l50 83l49 -30l-54 -89c22.667 -26 39.167 -55.333 49.5 -88s15.5 -73 15.5 -121zM399.998 231.001c0 63.333 -6.66699 110.333 -20 141
l-180 -299c10 -7.33301 21.667 -13.333 35 -18s27.333 -7 42 -7c26 0 48.333 6.5 67 19.5s32.334 31.5 41.001 55.5c5.33301 15.333 9.16602 31 11.499 47s3.5 36.333 3.5 61zM342.998 422.001c-10.667 8 -22.166 13.832 -34.499 17.499s-24.833 5.5 -37.5 5.5
c-22 0 -42.333 -4.83301 -61 -14.5s-32.334 -22.834 -41.001 -39.501c-8 -15.333 -14 -33.333 -18 -54s-6 -46 -6 -76c0 -27.333 1.66699 -52.666 5 -75.999s8 -43.666 14 -60.999z" />
    <glyph glyph-name="ugrave" unicode="&#xf9;" horiz-adv-x="557" 
d="M446 -21c-16.667 13.333 -28.998 25.8311 -36.998 37.498s-13.667 25.834 -17 42.501c-38 -50.667 -90.667 -76 -158 -76c-32 0 -59.167 6.33301 -81.5 19s-38.833 30 -49.5 52c-4.66699 9.33301 -8 20.333 -10 33s-3 26.334 -3 41.001v366l77 15v-358
c0 -23.333 2.16699 -41.166 6.5 -53.499s12.166 -22.5 23.499 -30.5c8 -5.33301 17.333 -9.5 28 -12.5s21.667 -4.5 33 -4.5c24.667 0 48.667 8.16699 72 24.5s41.666 38.166 54.999 65.499v353l77 13v-363c0 -31.333 2.5 -54.833 7.5 -70.5s13.833 -29.167 26.5 -40.5z
M371.002 564.998l-224 100l43 77l207 -130z" />
    <glyph glyph-name="uacute" unicode="&#xfa;" horiz-adv-x="557" 
d="M446 -21c-16.667 13.333 -28.998 25.8311 -36.998 37.498s-13.667 25.834 -17 42.501c-38 -50.667 -90.667 -76 -158 -76c-32 0 -59.167 6.33301 -81.5 19s-38.833 30 -49.5 52c-4.66699 9.33301 -8 20.333 -10 33s-3 26.334 -3 41.001v366l77 15v-358
c0 -23.333 2.16699 -41.166 6.5 -53.499s12.166 -22.5 23.499 -30.5c8 -5.33301 17.333 -9.5 28 -12.5s21.667 -4.5 33 -4.5c24.667 0 48.667 8.16699 72 24.5s41.666 38.166 54.999 65.499v353l77 13v-363c0 -31.333 2.5 -54.833 7.5 -70.5s13.833 -29.167 26.5 -40.5z
M223.002 564.998l-26 47l207 130l43 -77z" />
    <glyph glyph-name="ucircumflex" unicode="&#xfb;" horiz-adv-x="557" 
d="M446 -21c-16.667 13.333 -28.998 25.8311 -36.998 37.498s-13.667 25.834 -17 42.501c-38 -50.667 -90.667 -76 -158 -76c-32 0 -59.167 6.33301 -81.5 19s-38.833 30 -49.5 52c-4.66699 9.33301 -8 20.333 -10 33s-3 26.334 -3 41.001v366l77 15v-358
c0 -23.333 2.16699 -41.166 6.5 -53.499s12.166 -22.5 23.499 -30.5c8 -5.33301 17.333 -9.5 28 -12.5s21.667 -4.5 33 -4.5c24.667 0 48.667 8.16699 72 24.5s41.666 38.166 54.999 65.499v353l77 13v-363c0 -31.333 2.5 -54.833 7.5 -70.5s13.833 -29.167 26.5 -40.5z
M412.002 560.998l-139 85l-135 -85l-31 44l170 135l171 -135z" />
    <glyph glyph-name="udieresis" unicode="&#xfc;" horiz-adv-x="557" 
d="M446 -21c-16.667 13.333 -28.998 25.8311 -36.998 37.498s-13.667 25.834 -17 42.501c-38 -50.667 -90.667 -76 -158 -76c-32 0 -59.167 6.33301 -81.5 19s-38.833 30 -49.5 52c-4.66699 9.33301 -8 20.333 -10 33s-3 26.334 -3 41.001v366l77 15v-358
c0 -23.333 2.16699 -41.166 6.5 -53.499s12.166 -22.5 23.499 -30.5c8 -5.33301 17.333 -9.5 28 -12.5s21.667 -4.5 33 -4.5c24.667 0 48.667 8.16699 72 24.5s41.666 38.166 54.999 65.499v353l77 13v-363c0 -31.333 2.5 -54.833 7.5 -70.5s13.833 -29.167 26.5 -40.5z
M223.002 620.998c0 -14.667 -4.83203 -27.167 -14.499 -37.5s-21.834 -15.5 -36.501 -15.5s-27 5.16699 -37 15.5s-15 22.833 -15 37.5c0 14 5 26 15 36s22 15 36 15c14.667 0 27 -5 37 -15s15 -22 15 -36zM430.003 620.998c0 -14.667 -4.83203 -27.167 -14.499 -37.5
s-21.834 -15.5 -36.501 -15.5s-27 5.16699 -37 15.5s-15 22.833 -15 37.5c0 14 5 26 15 36s22 15 36 15c14.667 0 27 -5 37 -15s15 -22 15 -36z" />
    <glyph glyph-name="yacute" unicode="&#xfd;" horiz-adv-x="459" 
d="M273 -18c-8 -25.333 -16.8311 -48.1631 -26.498 -68.4961s-20.834 -38.5 -33.501 -54.5s-27.167 -29.333 -43.5 -40s-35.5 -18.667 -57.5 -24l-23 53c16 4.66699 29.667 10.667 41 18s21.333 16.666 30 27.999s16.5 25.666 23.5 42.999s13.833 38.666 20.5 63.999l-32 -5
c-1.33301 8 -4 19.5 -8 34.5l-13 48.5c-4.66699 17.333 -9.66699 34.5 -15 51.5l-14 44.5l-107 312l77 26l102 -323c3.33301 -10.667 6.66602 -22.334 9.99902 -35.001s6.33301 -25 9 -37l7 -32c2 -9.33301 3.33301 -16 4 -20h2l31 105l98 327h89zM190.002 562.003l-26 47
l207 130l43 -77z" />
    <glyph glyph-name="thorn" unicode="&#xfe;" horiz-adv-x="567" 
d="M502 250c0 -40 -3.83398 -72.667 -11.501 -98s-18.5 -49.333 -32.5 -72c-18 -29.333 -40 -51.833 -66 -67.5s-55.333 -23.5 -88 -23.5c-52.667 0 -97 18.667 -133 56v-238l-78 -15v818c0 40.667 -4.33301 76 -13 106l78 15c4 -17.333 7.16699 -35.833 9.5 -55.5
s3.5 -39.167 3.5 -58.5v-100c0 -20 -0.666992 -35.833 -2 -47.5s-2 -21.834 -2 -30.501c20.667 24 43.334 41.5 68.001 52.5s51 16.5 79 16.5c25.333 0 49.833 -5.33301 73.5 -16s43.5 -26 59.5 -46c18.667 -23.333 32.5 -50.666 41.5 -81.999s13.5 -69.333 13.5 -114z
M418.999 240c0 30 -2 57.499 -6 82.499s-9.66699 45.167 -17 60.5c-8 17.333 -20.333 30.833 -37 40.5s-35 14.5 -55 14.5c-25.333 0 -49 -5.16699 -71 -15.5s-42.667 -27.166 -62 -50.499v-255c36.667 -42 76 -63 118 -63c23.333 0 44.5 5.66699 63.5 17
s32.833 26.333 41.5 45c7.33301 16 13.333 33.667 18 53s7 43 7 71z" />
    <glyph glyph-name="ydieresis" unicode="&#xff;" horiz-adv-x="459" 
d="M273 -18c-8 -25.333 -16.8311 -48.1631 -26.498 -68.4961s-20.834 -38.5 -33.501 -54.5s-27.167 -29.333 -43.5 -40s-35.5 -18.667 -57.5 -24l-23 53c16 4.66699 29.667 10.667 41 18s21.333 16.666 30 27.999s16.5 25.666 23.5 42.999s13.833 38.666 20.5 63.999l-32 -5
c-1.33301 8 -4 19.5 -8 34.5l-13 48.5c-4.66699 17.333 -9.66699 34.5 -15 51.5l-14 44.5l-107 312l77 26l102 -323c3.33301 -10.667 6.66602 -22.334 9.99902 -35.001s6.33301 -25 9 -37l7 -32c2 -9.33301 3.33301 -16 4 -20h2l31 105l98 327h89zM178.002 621.003
c0 -14.667 -4.83203 -27.167 -14.499 -37.5s-21.834 -15.5 -36.501 -15.5s-27 5.16699 -37 15.5s-15 22.833 -15 37.5c0 14 5 26 15 36s22 15 36 15c14.667 0 27 -5 37 -15s15 -22 15 -36zM385.003 621.003c0 -14.667 -4.83203 -27.167 -14.499 -37.5
s-21.834 -15.5 -36.501 -15.5s-27 5.16699 -37 15.5s-15 22.833 -15 37.5c0 14 5 26 15 36s22 15 36 15c14.667 0 27 -5 37 -15s15 -22 15 -36z" />
    <glyph glyph-name="dotlessi" unicode="&#x131;" horiz-adv-x="271" 
d="M95 0v496l81 13v-509h-81z" />
    <glyph glyph-name="IJ" unicode="&#x132;" horiz-adv-x="539" 
d="M95 0v686h80v-686h-80zM444 117c0 -22 -0.331055 -40.666 -0.998047 -55.999s-1.83398 -29 -3.50098 -41s-4.16699 -22.667 -7.5 -32s-7.66602 -18.666 -12.999 -27.999c-22.667 -40 -61.334 -69.333 -116.001 -88l-40 51c18.667 7.33301 35.167 17 49.5 29
s25.166 24.667 32.499 38c6.66699 11.333 11.167 26.166 13.5 44.499s3.5 45.166 3.5 80.499v571h82v-569z" />
    <glyph glyph-name="ij" unicode="&#x133;" horiz-adv-x="541" 
d="M95 0v496l81 13v-509h-81zM198 652c0 -17.333 -5.83301 -31.834 -17.5 -43.501s-26.167 -17.5 -43.5 -17.5s-31.833 5.83301 -43.5 17.5s-17.5 25.834 -17.5 42.501c0 17.333 5.83301 32 17.5 44s26.167 18 43.5 18s31.833 -5.83301 43.5 -17.5s17.5 -26.167 17.5 -43.5z
M446 9.99902c0 -21.333 -1 -41.667 -3 -61s-5.66699 -35.666 -11 -48.999c-9.33301 -23.333 -22.833 -42.833 -40.5 -58.5s-38.167 -28.834 -61.5 -39.501l-39 52c17.333 7.33301 31 16 41 26s17.5 21.5 22.5 34.5s8.16699 27.833 9.5 44.5s2 36 2 58v477l80 16v-500z
M467 651.998c0 -17.333 -5.83301 -31.833 -17.5 -43.5s-26.167 -17.5 -43.5 -17.5s-31.833 5.83301 -43.5 17.5s-17.5 26.167 -17.5 43.5s5.83301 31.833 17.5 43.5s26.167 17.5 43.5 17.5s31.833 -5.83301 43.5 -17.5s17.5 -26.167 17.5 -43.5z" />
    <glyph glyph-name="Lslash" unicode="&#x141;" horiz-adv-x="463" 
d="M437 0h-342v308l-67 -22v72l67 22v306h82v-280l178 57v-72l-178 -57v-265h271z" />
    <glyph glyph-name="lslash" unicode="&#x142;" horiz-adv-x="269" 
d="M174 332l0.000976562 -232c0 -19.333 1.83301 -32.5 5.5 -39.5s11.167 -10.5 22.5 -10.5c1.33301 0 4.66602 0.666992 9.99902 2l16 -51c-10 -4.66699 -18.167 -7.66699 -24.5 -9s-14.833 -2 -25.5 -2c-24.667 0 -44.334 7 -59.001 21c-8 7.33301 -14 16.5 -18 27.5
s-6 25.5 -6 43.5v224l-59 -20v72l59 20v232c0 29.333 -1.66699 52.833 -5 70.5s-5.66602 28.167 -6.99902 31.5l78 15c1.33301 -4 3.83301 -16.167 7.5 -36.5s5.5 -47.5 5.5 -81.5v-205l73 26v-72z" />
    <glyph glyph-name="OE" unicode="&#x152;" horiz-adv-x="881" 
d="M401 0c-26 0 -48.999 0.500977 -68.999 1.50098s-38.333 3.16699 -55 6.5s-32.667 8.5 -48 15.5s-31.333 16.5 -48 28.5c-39.333 28 -68.5 66.5 -87.5 115.5s-28.5 107.167 -28.5 174.5c0 60.667 7.16699 112.167 21.5 154.5s33.166 76.166 56.499 101.499
c13.333 14.667 27.166 27.667 41.499 39s30 20.5 47 27.5s35.833 12.333 56.5 16s44.334 5.5 71.001 5.5h472l-11 -69h-281v-224h235v-71h-235v-251h302v-71h-440zM456.001 608.001c-15.333 2 -30.501 3.66699 -45.501 5s-29.167 2 -42.5 2
c-40 0 -73.667 -4.83301 -101 -14.5s-49.666 -28.5 -66.999 -56.5c-16 -26 -27.667 -55.5 -35 -88.5s-11 -67.5 -11 -103.5c0 -52 4 -95.5 12 -130.5s23.667 -66.167 47 -93.5c35.333 -41.333 78.333 -62 129 -62h24c10 0 20.167 0.333008 30.5 1l31.5 2
c10.667 0.666992 20 1.66699 28 3v536z" />
    <glyph glyph-name="oe" unicode="&#x153;" horiz-adv-x="849" 
d="M483 236l-0.000976562 -12c0 -23.333 1.66699 -44 5 -62s9.33301 -33.667 18 -47c14 -21.333 31.833 -36.833 53.5 -46.5s45.167 -14.5 70.5 -14.5c47.333 0 88 15.667 122 47l30 -50c-22 -20 -47.5 -35.333 -76.5 -46s-59.5 -16 -91.5 -16
c-37.333 0 -71.166 7.5 -101.499 22.5s-52.166 34.5 -65.499 58.5c-23.333 -30 -48.333 -52 -75 -66s-59 -21 -97 -21c-33.333 0 -63.333 6.16699 -90 18.5s-49.167 29.833 -67.5 52.5s-32.5 50.334 -42.5 83.001s-15 69.667 -15 111c0 81.333 18.833 145.166 56.5 191.499
s89.5 69.5 155.5 69.5c40.667 0 74.667 -8 102 -24s49.333 -36.333 66 -61c40 58.667 94 88 162 88c27.333 0 52.333 -4.83301 75 -14.5s42.667 -23.167 60 -40.5c10.667 -11.333 19.667 -23 27 -35s13.166 -26 17.499 -42s7.5 -34.667 9.5 -56s3 -47 3 -77v-11h-311z
M399.999 231c0 68.667 -7.66211 118.668 -22.9951 150.001c-10.667 22 -25.834 38.167 -45.501 48.5s-39.834 15.5 -60.501 15.5c-22 0 -42.333 -4.83301 -61 -14.5s-32.334 -22.834 -41.001 -39.501c-8 -15.333 -14 -33.333 -18 -54s-6 -46 -6 -76
c0 -35.333 2.83301 -67.5 8.5 -96.5s13.167 -51.167 22.5 -66.5s23.166 -27.5 41.499 -36.5s38.166 -13.5 59.499 -13.5c26 0 48.333 6.5 67 19.5s32.334 31.5 41.001 55.5c5.33301 15.333 9.16602 31 11.499 47s3.5 36.333 3.5 61zM711.004 295.001
c-0.666992 27.333 -2.83301 49.667 -6.5 67s-9.16699 32 -16.5 44c-8.66699 13.333 -21 24 -37 32s-33.667 12 -53 12c-72.667 0 -111 -51.667 -115 -155h228z" />
    <glyph glyph-name="Scaron" unicode="&#x160;" horiz-adv-x="579" 
d="M524 194c0 -32 -8.16992 -62.6689 -24.5029 -92.002s-39.833 -53.666 -70.5 -72.999c-22.667 -14.667 -46 -25.334 -70 -32.001s-52 -10 -84 -10c-41.333 0 -79.833 5 -115.5 15s-70.5 25.667 -104.5 47l36 64c28.667 -20.667 57.834 -35.667 87.501 -45
s61.834 -14 96.501 -14c26 0 47 2.16699 63 6.5s31.333 12.166 46 23.499c32.667 24.667 49 57.334 49 98.001c0 60.667 -41 103.334 -123 128.001l-69 21c-31.333 9.33301 -56.166 18.333 -74.499 27s-34.166 20 -47.499 34c-28.667 30.667 -43 68 -43 112
c0 29.333 5.33301 56 16 80s25.667 44.667 45 62s42.666 30.833 69.999 40.5s57.666 14.5 90.999 14.5c72.667 0 141.667 -22 207 -66l-36 -59c-16.667 10.667 -32 19.667 -46 27s-27.5 13.333 -40.5 18s-26 8 -39 10s-26.833 3 -41.5 3c-43.333 0 -77 -10 -101 -30
s-36 -47.667 -36 -83c0 -28 8.83301 -50.333 26.5 -67s46.834 -31.667 87.501 -45l79 -25c30.667 -9.33301 55 -19.166 73 -29.499s34 -23.5 48 -39.5s25 -34.833 33 -56.5s12 -43.167 12 -64.5zM296.997 722.998l-171 135l36 44l139 -85l135 85l31 -44z" />
    <glyph glyph-name="scaron" unicode="&#x161;" horiz-adv-x="481" 
d="M426 148c0 -24 -4.50488 -46.002 -13.5049 -66.002s-21.833 -37.167 -38.5 -51.5s-36.5 -25.5 -59.5 -33.5s-48.5 -12 -76.5 -12c-32 0 -64.167 4.5 -96.5 13.5s-61.166 21.167 -86.499 36.5l30 58c51.333 -31.333 104 -47 158 -47c30.667 0 55.167 7.66699 73.5 23
s27.5 36.333 27.5 63c0 22.667 -6.5 40.5 -19.5 53.5s-33.833 22.5 -62.5 28.5l-62 13c-41.333 8.66699 -72.666 25 -93.999 49s-32 53.333 -32 88c0 22.667 4.33301 43.334 13 62.001s20.834 34.667 36.501 48s34.334 23.833 56.001 31.5s45.5 11.5 71.5 11.5
s52.5 -3.66699 79.5 -11s51.167 -17 72.5 -29l-29 -58c-22 10.667 -42.833 19.334 -62.5 26.001s-40.5 10 -62.5 10c-28.667 0 -51.5 -7.5 -68.5 -22.5s-25.5 -34.833 -25.5 -59.5c0 -19.333 5.33301 -34.833 16 -46.5s29.334 -20.167 56.001 -25.5l66 -14
c88.667 -18.667 133 -65 133 -139zM247.995 557.998l-171 135l36 44l139 -85l135 85l31 -44z" />
    <glyph glyph-name="Ydieresis" unicode="&#x178;" horiz-adv-x="519" 
d="M301 267v-267h-85v272l-221 414h101l130 -262l35 -77c1.33301 4 5.5 13.5 12.5 28.5s15.167 31.167 24.5 48.5l132 262h94zM206 781c0 -14.667 -4.83203 -27.167 -14.499 -37.5s-21.834 -15.5 -36.501 -15.5s-27 5.16699 -37 15.5s-15 22.833 -15 37.5c0 14 5 26 15 36
s22 15 36 15c14.667 0 27 -5 37 -15s15 -22 15 -36zM413.001 781c0 -14.667 -4.83203 -27.167 -14.499 -37.5s-21.834 -15.5 -36.501 -15.5s-27 5.16699 -37 15.5s-15 22.833 -15 37.5c0 14 5 26 15 36s22 15 36 15c14.667 0 27 -5 37 -15s15 -22 15 -36z" />
    <glyph glyph-name="Zcaron" unicode="&#x17d;" horiz-adv-x="518" 
d="M452 0h-406.999v63l293 489c11.333 19.333 21 34.5 29 45.5l15 20.5c-3.33301 0 -11.333 -0.166992 -24 -0.5s-28.334 -0.5 -47.001 -0.5h-256l23 69h391v-70l-285 -481c-10 -17.333 -19 -32 -27 -44s-13 -19.333 -15 -22c3.33301 0 10.5 0.166992 21.5 0.5
s23.5 0.5 37.5 0.5h272zM264.001 723l-171 135l36 44l139 -85l135 85l31 -44z" />
    <glyph glyph-name="zcaron" unicode="&#x17e;" horiz-adv-x="459" 
d="M377 0h-332v60l271 376h-250v62h332v-64l-259 -374h275zM236 558l-171 135l36 44l139 -85l135 85l31 -44z" />
    <glyph glyph-name="longs" unicode="&#x17f;" horiz-adv-x="328" 
d="M349 639c-7.33301 4.66699 -17.5 9.99902 -30.5 15.999s-27.167 9 -42.5 9c-32 0 -57.333 -11.167 -76 -33.5s-28 -58.5 -28 -108.5v-522h-77v439h-74v59h74v13c0 34.667 2.33301 64 7 88s15.667 46 33 66c34.667 40 83.667 60 147 60c18.667 0 36.167 -2.66699 52.5 -8
s31.5 -11.666 45.5 -18.999z" />
    <glyph glyph-name="florin" unicode="&#x192;" horiz-adv-x="324" 
d="M336 640c-8.66699 5.33301 -19.1689 10.5 -31.502 15.5s-24.833 7.5 -37.5 7.5c-21.333 0 -38.166 -7.5 -50.499 -22.5s-19.5 -36.833 -21.5 -65.5l-5 -77h134l-28 -59h-110l-26 -384c-2 -34 -4.33301 -63.167 -7 -87.5s-8 -45.833 -16 -64.5s-20 -35.834 -36 -51.501
s-39 -32.167 -69 -49.5l-37 56c20 12.667 35.5 24.667 46.5 36s19.333 23.333 25 36s9.33398 26.334 11.001 41.001s3.16699 31.667 4.5 51l26 417h-46v59h50l5 78c2 34.667 8.66699 60.667 20 78s25.333 32 42 44c12 8.66699 25 15.167 39 19.5s29.667 6.5 47 6.5
c10 0 20.5 -1.16699 31.5 -3.5s21.167 -5 30.5 -8s17.833 -6.16699 25.5 -9.5s13.167 -6 16.5 -8z" />
    <glyph glyph-name="uni02BB" unicode="&#x2bb;" horiz-adv-x="270" 
d="M215 667c-39.333 -19.333 -61.666 -49 -66.999 -89c3.33301 0.666992 7 1 11 1c15.333 0 28.333 -6.33301 39 -19s16 -27.667 16 -45c0 -20 -6.83301 -37 -20.5 -51s-30.167 -21 -49.5 -21c-23.333 0 -42.333 9 -57 27s-22 41 -22 69c0 17.333 3.33301 34.833 10 52.5
s16 34.5 28 50.5c10 13.333 22.667 26 38 38s30.666 22.333 45.999 31z" />
    <glyph glyph-name="afii57929" unicode="&#x2bc;" horiz-adv-x="270" 
d="M205 602c0 -17.333 -3.33301 -34.833 -10 -52.5s-16 -34.5 -28 -50.5c-10 -13.333 -22.667 -26 -38 -38s-30.666 -22.333 -45.999 -31l-28 44c39.333 19.333 61.666 49 66.999 89c-3.33301 -0.666992 -7 -1 -11 -1c-15.333 0 -28.333 6.33301 -39 19s-16 27.667 -16 45
c0 20 6.83301 37 20.5 51s30.167 21 49.5 21c23.333 0 42.333 -9 57 -27s22 -41 22 -69z" />
    <glyph glyph-name="circumflex" unicode="&#x2c6;" horiz-adv-x="411" 
d="M340 561l-139 85l-135 -85l-31 44l170 135l171 -135z" />
    <glyph glyph-name="caron" unicode="&#x2c7;" horiz-adv-x="411" 
d="M206 558l-171 135l36 44l139 -85l135 85l31 -44z" />
    <glyph glyph-name="breve" unicode="&#x2d8;" horiz-adv-x="411" 
d="M376 693c-3.33301 -4.66699 -10.498 -13.334 -21.498 -26.001s-24.167 -25.5 -39.5 -38.5s-32.5 -24.667 -51.5 -35s-38.167 -15.5 -57.5 -15.5s-38.5 5.16699 -57.5 15.5s-36.333 22 -52 35s-29 25.833 -40 38.5s-18.167 21.334 -21.5 26.001l36 44l20.5 -17
c9 -7.33301 19.667 -14.5 32 -21.5s25.833 -13.167 40.5 -18.5s30 -8 46 -8c13.333 0 27.166 2.83301 41.499 8.5s27.666 12.167 39.999 19.5s23.333 14.5 33 21.5s16.5 12.167 20.5 15.5z" />
    <glyph glyph-name="dotaccent" unicode="&#x2d9;" horiz-adv-x="252" 
d="M187 652c0 -17.333 -5.83301 -31.834 -17.5 -43.501s-26.167 -17.5 -43.5 -17.5s-31.833 5.83301 -43.5 17.5s-17.5 25.834 -17.5 42.501c0 17.333 5.83301 32 17.5 44s26.167 18 43.5 18s31.833 -5.83301 43.5 -17.5s17.5 -26.167 17.5 -43.5z" />
    <glyph glyph-name="ring" unicode="&#x2da;" horiz-adv-x="300" 
d="M255 659c0 -14.667 -2.66504 -28.334 -7.99805 -41.001s-12.833 -23.834 -22.5 -33.501s-20.834 -17.334 -33.501 -23.001s-26 -8.5 -40 -8.5c-14.667 0 -28.334 2.83301 -41.001 8.5s-23.834 13.334 -33.501 23.001s-17.334 20.834 -23.001 33.501
s-8.5 26.334 -8.5 41.001s2.66699 28.334 8 41.001s12.833 23.834 22.5 33.501s20.834 17.334 33.501 23.001s26 8.5 40 8.5s27.5 -2.83301 40.5 -8.5s24.333 -13.334 34 -23.001s17.334 -20.834 23.001 -33.501s8.5 -26.334 8.5 -41.001zM210.002 659
c0 16 -6.00098 30 -18.001 42s-26.667 18 -44 18c-15.333 0 -28.666 -6 -39.999 -18s-17 -26 -17 -42s6 -30 18 -42s26 -18 42 -18c15.333 0 29 6 41 18s18 26 18 42z" />
    <glyph glyph-name="ogonek" unicode="&#x2db;" horiz-adv-x="290" 
d="M235 -173c-10 -5.33301 -22.334 -10.667 -37.001 -16s-29.667 -8 -45 -8c-32 0 -56.333 8.66699 -73 26s-25 37.666 -25 60.999c0 15.333 2.33301 29.666 7 42.999s10.334 25.5 17.001 36.5s13.667 20.5 21 28.5s14 14.333 20 19l51 -29
c-2.66699 -2 -7 -5.83301 -13 -11.5s-12 -12.667 -18 -21s-11.333 -17.666 -16 -27.999s-7 -20.833 -7 -31.5c0 -9.33301 3 -17.666 9 -24.999s15 -11 27 -11c11.333 0 21 0.833008 29 2.5s18.667 5.5 32 11.5z" />
    <glyph glyph-name="tilde" unicode="&#x2dc;" horiz-adv-x="395" 
d="M370 656c-16.667 -20.667 -33.667 -36.334 -51 -47.001s-40.666 -16 -69.999 -16c-15.333 0 -27.833 2 -37.5 6s-18.667 8.16699 -27 12.5s-17.166 8.5 -26.499 12.5s-21.333 6 -36 6c-16 0 -28.833 -3.66699 -38.5 -11s-19.834 -16.666 -30.501 -27.999l-28 45
c16.667 20.667 33.5 36.334 50.5 47.001s40.167 16 69.5 16c15.333 0 27.833 -2 37.5 -6s18.667 -8.16699 27 -12.5s17.166 -8.5 26.499 -12.5s21.333 -6 36 -6c16 0 29 3.66699 39 11s20.333 16.666 31 27.999z" />
    <glyph glyph-name="hungarumlaut" unicode="&#x2dd;" horiz-adv-x="428" 
d="M85 524l-50 21l86 210l81 -33zM239 530l-44 31l124 189l74 -47z" />
    <glyph glyph-name="uni037E" unicode="&#x37e;" horiz-adv-x="320" 
d="M240 29c0 -17.333 -3.33398 -34.833 -10.001 -52.5s-16 -34.5 -28 -50.5c-10 -13.333 -22.667 -26 -38 -38s-30.666 -22.333 -45.999 -31l-28 44c39.333 19.333 61.666 49 66.999 89c-3.33301 -0.666992 -5.66602 -1 -6.99902 -1h-4c-15.333 0 -28.333 6.33301 -39 19
s-16 27.667 -16 45c0 20 6.83301 37 20.5 51s30.167 21 49.5 21c23.333 0 42.333 -9 57 -27s22 -41 22 -69zM224.999 372c0 -19.333 -6.5 -35.667 -19.5 -49s-28.833 -20 -47.5 -20s-34.667 7 -48 21s-20 30.667 -20 50c0 17.333 6.5 32.333 19.5 45s28.833 19 47.5 19
s34.667 -6.5 48 -19.5s20 -28.5 20 -46.5z" />
    <glyph glyph-name="uni0394" unicode="&#x394;" horiz-adv-x="604" 
d="M567 0h-549v58l234 628h103l228 -616zM300 614l-195 -544h385z" />
    <glyph glyph-name="uni03A9" unicode="&#x3a9;" horiz-adv-x="699" 
d="M634 341c0 -58.667 -11.168 -112.002 -33.501 -160.002s-53.5 -84.667 -93.5 -110h122l-13 -71h-197v71c17.333 10 33.5 21.833 48.5 35.5s28 30.5 39 50.5s19.667 44 26 72s9.5 61.333 9.5 100c0 50.667 -3.5 92.167 -10.5 124.5s-16.167 60.5 -27.5 84.5
c-12 25.333 -31 47.333 -57 66s-59 28 -99 28c-32 0 -61.667 -7.16699 -89 -21.5s-47.666 -33.833 -60.999 -58.5c-12 -22.667 -22 -47.667 -30 -75s-12 -62.333 -12 -105c0 -47.333 3.66699 -87.666 11 -120.999s16.833 -61.666 28.5 -84.999s25 -42.333 40 -57
s30.167 -27.334 45.5 -38.001v-71h-214l13 71h110c-40 31.333 -70.833 72.333 -92.5 123s-32.5 104.334 -32.5 161.001c0 58.667 7.66699 109.167 23 151.5s37 78.833 65 109.5c24 26.667 52.5 47 85.5 61s69.5 21 109.5 21c30 0 56.667 -3.5 80 -10.5s44 -16 62 -27
s33.333 -23.167 46 -36.5s23 -26 31 -38c21.333 -32 37.833 -67 49.5 -105s17.5 -84.667 17.5 -140z" />
    <glyph glyph-name="uni03BC" unicode="&#x3bc;" horiz-adv-x="558" 
d="M447 -21c-16.667 13.333 -28.999 25.832 -36.999 37.499s-13.667 25.834 -17 42.501c-38 -50.667 -90.667 -76 -158 -76c-12.667 0 -25.167 1.5 -37.5 4.5s-22.166 7.83301 -29.499 14.5v-195l-78 -15v702l78 16v-359c0 -24.667 2 -42.5 6 -53.5s11.667 -20.5 23 -28.5
c8 -5.33301 17.5 -9.83301 28.5 -13.5s22.167 -5.5 33.5 -5.5c24.667 0 48.667 8.16699 72 24.5s41.666 38.166 54.999 65.499v353l77 13v-353c0 -16.667 0.333008 -31 1 -43s2.16699 -22.667 4.5 -32s5.66602 -17.666 9.99902 -24.999s10.5 -14.333 18.5 -21z" />
    <glyph glyph-name="pi" unicode="&#x3c0;" horiz-adv-x="550" 
d="M496 436h-50.001v-274c0 -20 0.333008 -36.667 1 -50s2.33398 -24.5 5.00098 -33.5s6.66699 -16.5 12 -22.5s12.666 -11.333 21.999 -16l-40 -56c-28.667 9.33301 -49 27 -61 53c-5.33301 11.333 -9.16602 22.833 -11.499 34.5s-3.5 26.167 -3.5 43.5v321h-183v-436h-76
v436h-66v62h475z" />
    <glyph glyph-name="uni2007" unicode="&#x2007;" 
 />
    <glyph glyph-name="uni2008" unicode="&#x2008;" horiz-adv-x="284" 
 />
    <glyph glyph-name="uni200B" unicode="&#x200b;" horiz-adv-x="0" 
 />
    <glyph glyph-name="endash" unicode="&#x2013;" horiz-adv-x="595" 
d="M55 250v59h485v-59h-485z" />
    <glyph glyph-name="emdash" unicode="&#x2014;" horiz-adv-x="822" 
d="M55 250v59h712v-59h-712z" />
    <glyph glyph-name="quoteleft" unicode="&#x2018;" horiz-adv-x="270" 
d="M215 667c-39.333 -19.333 -61.666 -49 -66.999 -89c3.33301 0.666992 7 1 11 1c15.333 0 28.333 -6.33301 39 -19s16 -27.667 16 -45c0 -20 -6.83301 -37 -20.5 -51s-30.167 -21 -49.5 -21c-23.333 0 -42.333 9 -57 27s-22 41 -22 69c0 17.333 3.33301 34.833 10 52.5
s16 34.5 28 50.5c10 13.333 22.667 26 38 38s30.666 22.333 45.999 31z" />
    <glyph glyph-name="quoteright" unicode="&#x2019;" horiz-adv-x="270" 
d="M205 602c0 -17.333 -3.33301 -34.833 -10 -52.5s-16 -34.5 -28 -50.5c-10 -13.333 -22.667 -26 -38 -38s-30.666 -22.333 -45.999 -31l-28 44c39.333 19.333 61.666 49 66.999 89c-3.33301 -0.666992 -7 -1 -11 -1c-15.333 0 -28.333 6.33301 -39 19s-16 27.667 -16 45
c0 20 6.83301 37 20.5 51s30.167 21 49.5 21c23.333 0 42.333 -9 57 -27s22 -41 22 -69z" />
    <glyph glyph-name="quotesinglbase" unicode="&#x201a;" horiz-adv-x="270" 
d="M205 29c0 -17.333 -3.33301 -34.833 -10 -52.5s-16 -34.5 -28 -50.5c-10 -13.333 -22.667 -26 -38 -38s-30.666 -22.333 -45.999 -31l-28 44c39.333 19.333 61.666 49 66.999 89c-3.33301 -0.666992 -7 -1 -11 -1c-15.333 0 -28.333 6.33301 -39 19s-16 27.667 -16 45
c0 20 6.83301 37 20.5 51s30.167 21 49.5 21c23.333 0 42.333 -9 57 -27s22 -41 22 -69z" />
    <glyph glyph-name="quotedblleft" unicode="&#x201c;" horiz-adv-x="467" 
d="M412 667c-39.333 -19.333 -61.666 -49 -66.999 -89c3.33301 0.666992 7 1 11 1c15.333 0 28.333 -6.33301 39 -19s16 -27.667 16 -45c0 -20 -6.83301 -37 -20.5 -51s-30.167 -21 -49.5 -21c-23.333 0 -42.333 9 -57 27s-22 41 -22 69c0 17.333 3.33301 34.833 10 52.5
s16 34.5 28 50.5c10 13.333 22.667 26 38 38s30.666 22.333 45.999 31zM215 667c-39.333 -19.333 -61.666 -49 -66.999 -89c3.33301 0.666992 7 1 11 1c15.333 0 28.333 -6.33301 39 -19s16 -27.667 16 -45c0 -20 -6.83301 -37 -20.5 -51s-30.167 -21 -49.5 -21
c-23.333 0 -42.333 9 -57 27s-22 41 -22 69c0 17.333 3.33301 34.833 10 52.5s16 34.5 28 50.5c10 13.333 22.667 26 38 38s30.666 22.333 45.999 31z" />
    <glyph glyph-name="quotedblright" unicode="&#x201d;" horiz-adv-x="467" 
d="M402 602c0 -17.333 -3.33301 -34.833 -10 -52.5s-16 -34.5 -28 -50.5c-10 -13.333 -22.667 -26 -38 -38s-30.666 -22.333 -45.999 -31l-28 44c39.333 19.333 61.666 49 66.999 89c-3.33301 -0.666992 -7 -1 -11 -1c-15.333 0 -28.333 6.33301 -39 19s-16 27.667 -16 45
c0 20 6.83301 37 20.5 51s30.167 21 49.5 21c23.333 0 42.333 -9 57 -27s22 -41 22 -69zM205 602c0 -17.333 -3.33301 -34.833 -10 -52.5s-16 -34.5 -28 -50.5c-10 -13.333 -22.667 -26 -38 -38s-30.666 -22.333 -45.999 -31l-28 44c39.333 19.333 61.666 49 66.999 89
c-3.33301 -0.666992 -7 -1 -11 -1c-15.333 0 -28.333 6.33301 -39 19s-16 27.667 -16 45c0 20 6.83301 37 20.5 51s30.167 21 49.5 21c23.333 0 42.333 -9 57 -27s22 -41 22 -69z" />
    <glyph glyph-name="quotedblbase" unicode="&#x201e;" horiz-adv-x="468" 
d="M403 29c0 -17.333 -3.33301 -34.833 -10 -52.5s-16 -34.5 -28 -50.5c-10 -13.333 -22.667 -26 -38 -38s-30.666 -22.333 -45.999 -31l-28 44c39.333 19.333 61.666 49 66.999 89c-3.33301 -0.666992 -7 -1 -11 -1c-15.333 0 -28.333 6.33301 -39 19s-16 27.667 -16 45
c0 20 6.83301 37 20.5 51s30.167 21 49.5 21c23.333 0 42.333 -9 57 -27s22 -41 22 -69zM205 29c0 -17.333 -3.33301 -34.833 -10 -52.5s-16 -34.5 -28 -50.5c-10 -13.333 -22.667 -26 -38 -38s-30.666 -22.333 -45.999 -31l-28 44c39.333 19.333 61.666 49 66.999 89
c-3.33301 -0.666992 -7 -1 -11 -1c-15.333 0 -28.333 6.33301 -39 19s-16 27.667 -16 45c0 20 6.83301 37 20.5 51s30.167 21 49.5 21c23.333 0 42.333 -9 57 -27s22 -41 22 -69z" />
    <glyph glyph-name="dagger" unicode="&#x2020;" horiz-adv-x="476" 
d="M431 455h-150v-455h-79v455h-157v69h157v162h79v-162h160z" />
    <glyph glyph-name="daggerdbl" unicode="&#x2021;" horiz-adv-x="489" 
d="M434 455h-150v-224h157v-69h-157v-162h-79v162h-160l10 69h150v224h-157v69h157v162h79v-162h160z" />
    <glyph glyph-name="bullet" unicode="&#x2022;" horiz-adv-x="524" 
d="M439 354c0 -24.667 -4.66699 -47.667 -14 -69s-22 -40 -38 -56s-34.667 -28.667 -56 -38s-44.333 -14 -69 -14s-47.667 4.66699 -69 14s-40 22 -56 38s-28.667 34.667 -38 56s-14 44.333 -14 69s4.66699 47.667 14 69s22 40 38 56s34.667 28.667 56 38s44.333 14 69 14
s47.667 -4.66699 69 -14s40 -22 56 -38s28.667 -34.667 38 -56s14 -44.333 14 -69z" />
    <glyph glyph-name="ellipsis" unicode="&#x2026;" horiz-adv-x="744" 
d="M669 56c0 -19.333 -6.50098 -35.666 -19.501 -48.999s-28.5 -20 -46.5 -20c-19.333 0 -35.5 6.66699 -48.5 20s-19.5 29.666 -19.5 48.999c0 18.667 6.33301 34.334 19 47.001s28.334 19 47.001 19c19.333 0 35.5 -6.33301 48.5 -19s19.5 -28.334 19.5 -47.001z
M438.999 56c0 -19.333 -6.50098 -35.666 -19.501 -48.999s-28.5 -20 -46.5 -20c-19.333 0 -35.5 6.66699 -48.5 20s-19.5 29.666 -19.5 48.999c0 18.667 6.33301 34.334 19 47.001s28.334 19 47.001 19c19.333 0 35.5 -6.33301 48.5 -19s19.5 -28.334 19.5 -47.001z
M208.998 56c0 -19.333 -6.50098 -35.666 -19.501 -48.999s-28.5 -20 -46.5 -20c-19.333 0 -35.5 6.66699 -48.5 20s-19.5 29.666 -19.5 48.999c0 18.667 6.33301 34.334 19 47.001s28.334 19 47.001 19c19.333 0 35.5 -6.33301 48.5 -19s19.5 -28.334 19.5 -47.001z" />
    <glyph glyph-name="perthousand" unicode="&#x2030;" horiz-adv-x="1228" 
d="M1183 156c0 -51.333 -14.332 -91.833 -42.999 -121.5s-68 -44.5 -118 -44.5s-89.333 15.333 -118 46s-43 72.667 -43 126s14.167 95 42.5 125s67.5 45 117.5 45c55.333 0 96.166 -16.333 122.499 -49s39.5 -75 39.5 -127zM813.001 156
c0 -51.333 -14.332 -91.833 -42.999 -121.5s-68 -44.5 -118 -44.5s-89.333 15.333 -118 46s-43 72.667 -43 126s14.167 95 42.5 125s67.5 45 117.5 45c55.333 0 96.166 -16.333 122.499 -49s39.5 -75 39.5 -127zM367.002 515c0 -51.333 -14.332 -91.833 -42.999 -121.5
s-68 -44.5 -118 -44.5s-89.333 15.333 -118 46s-43 72.667 -43 126s14.167 95 42.5 125s67.5 45 117.5 45c55.333 0 96.166 -16.333 122.499 -49s39.5 -75 39.5 -127zM298.003 0h-66l335 686h66zM746.003 152c0 14.667 -0.999023 29.5 -2.99902 44.5s-6.33301 28.5 -13 40.5
s-16.334 21.667 -29.001 29s-29.667 11 -51 11c-32 0 -55.167 -9.33301 -69.5 -28s-21.5 -45 -21.5 -79c0 -41.333 7 -72.5 21 -93.5s39 -31.5 75 -31.5c28.667 0 51 9 67 27s24 44.667 24 80zM1116 152c0 14.667 -0.999023 29.5 -2.99902 44.5s-6.33301 28.5 -13 40.5
s-16.334 21.667 -29.001 29s-29.667 11 -51 11c-32 0 -55.167 -9.33301 -69.5 -28s-21.5 -45 -21.5 -79c0 -41.333 7 -72.5 21 -93.5s39 -31.5 75 -31.5c28.667 0 51 9 67 27s24 44.667 24 80zM300.005 511c0 14.667 -0.999023 29.5 -2.99902 44.5s-6.33301 28.5 -13 40.5
s-16.334 21.667 -29.001 29s-29.667 11 -51 11c-32 0 -55.167 -9.33301 -69.5 -28s-21.5 -45 -21.5 -79c0 -41.333 7 -72.5 21 -93.5s39 -31.5 75 -31.5c28.667 0 51 9 67 27s24 44.667 24 80z" />
    <glyph glyph-name="guilsinglleft" unicode="&#x2039;" horiz-adv-x="318" 
d="M208 26l-143 214l143 214l55 -36l-117 -178l117 -178z" />
    <glyph glyph-name="guilsinglright" unicode="&#x203a;" horiz-adv-x="318" 
d="M110 26l-55 36l117 178l-117 178l55 36l143 -214z" />
    <glyph glyph-name="fraction" unicode="&#x2044;" horiz-adv-x="303" 
d="M-79 -154h-66l527 917h66z" />
    <glyph glyph-name="uni2070" unicode="&#x2070;" horiz-adv-x="345" 
d="M320 456c0 -29.333 -3.50195 -56.668 -10.502 -82.001s-17 -47.166 -30 -65.499s-28.833 -32.666 -47.5 -42.999s-39.334 -15.5 -62.001 -15.5c-27.333 0 -50.166 7.16699 -68.499 21.5s-33.166 32.166 -44.499 53.499s-19.5 44.166 -24.5 68.499s-7.5 46.833 -7.5 67.5
c0 26 3.83301 51 11.5 75s18 45.167 31 63.5s28.333 33 46 44s36.834 16.5 57.501 16.5c28 0 51.5 -6.66699 70.5 -20s34.333 -30.166 46 -50.499s20 -42.5 25 -66.5s7.5 -46.333 7.5 -67zM246.998 455.998c0 20.667 -0.664062 37.667 -1.99707 51s-4.66602 27 -9.99902 41
c-6.66699 19.333 -15.5 33.5 -26.5 42.5s-23.167 13.5 -36.5 13.5c-9.33301 0 -18.833 -3.5 -28.5 -10.5s-18.167 -17.833 -25.5 -32.5c-13.333 -24.667 -20 -58.667 -20 -102c0 -20.667 1.16699 -39.167 3.5 -55.5s5.16602 -29.5 8.49902 -39.5
c7.33301 -19.333 16.666 -34.166 27.999 -44.499s22.666 -15.5 33.999 -15.5c10.667 0 21.5 4.5 32.5 13.5s20.167 21.167 27.5 36.5c5.33301 12 9.16602 26.667 11.499 44s3.5 36.666 3.5 57.999z" />
    <glyph glyph-name="uni2074" unicode="&#x2074;" horiz-adv-x="343" 
d="M269 331c0 -2 0.166992 -4.00098 0.5 -6.00098s0.5 -4 0.5 -6v-60l-67 -18v77c0 2 0.166992 4.16699 0.5 6.5s0.5 4.5 0.5 6.5h-179v47l146 275h75l-26.5 -51.5l-36.5 -70.5l-41.5 -77c-14.333 -26 -27.833 -49.333 -40.5 -70l7 1h96l-1 6
c-1.33301 5.33301 -1.5 10.333 -0.5 15s1.83301 10.334 2.5 17.001l8 108l57 17v-155l-1 -8h49v-54h-49z" />
    <glyph glyph-name="uni2075" unicode="&#x2075;" horiz-adv-x="300" 
d="M275 385c0 -25.333 -7.33105 -49.332 -21.998 -71.999s-34 -39.667 -58 -51c-14.667 -7.33301 -31.167 -13 -49.5 -17s-36.166 -6 -53.499 -6c-9.33301 0 -17.333 0.333008 -24 1s-16.334 2.66699 -29.001 6l-14 58c16.667 -7.33301 28.167 -11.5 34.5 -12.5
s14.166 -1.5 23.499 -1.5c17.333 0 33.333 2.5 48 7.5s27.5 11.667 38.5 20s19.5 18.166 25.5 29.499s9 23.666 9 36.999c0 7.33301 -1.33301 14.5 -4 21.5s-6 13.167 -10 18.5c-6 8.66699 -14 15 -24 19s-24 6 -42 6c-14 0 -28.333 -1.33301 -43 -4
s-29.667 -7.66699 -45 -15l22 218h199l-11 -57h-127l-8 -91c6 0.666992 10.833 1.16699 14.5 1.5s8.5 0.5 14.5 0.5c23.333 0 44 -3.16699 62 -9.5s33.333 -16.833 46 -31.5c9.33301 -10.667 16.166 -22.667 20.499 -36s6.5 -26.666 6.5 -39.999z" />
    <glyph glyph-name="uni2076" unicode="&#x2076;" horiz-adv-x="337" 
d="M312 384c0 -19.333 -3.66602 -37.168 -10.999 -53.501s-17.333 -30.5 -30 -42.5s-27.667 -21.333 -45 -28s-36 -10 -56 -10c-44.667 0 -80 15.333 -106 46s-39 70.334 -39 119.001c0 32 4.83301 60.333 14.5 85s24.834 48.667 45.501 72c23.333 26 49 47.333 77 64
s61 30.334 99 41.001l18 -46c-19.333 -6 -33.333 -10.833 -42 -14.5s-18.334 -8.83398 -29.001 -15.501c-22.667 -13.333 -42.5 -29.5 -59.5 -48.5s-29.833 -41.167 -38.5 -66.5c11.333 6.66699 23.333 11.834 36 15.501s25 5.5 37 5.5c31.333 0 59.666 -10 84.999 -30
c15.333 -12 26.5 -25.333 33.5 -40s10.5 -32.334 10.5 -53.001zM238.001 382.998c0 22.667 -5.66602 39.665 -16.999 50.998c-5.33301 6 -12.333 10.667 -21 14s-17.667 5 -27 5c-22.667 0 -46.334 -8.66699 -71.001 -26c-0.666992 -5.33301 -1 -9.66602 -1 -12.999v-11
c0 -11.333 0.833008 -22.833 2.5 -34.5s5 -22.167 10 -31.5s12 -17.166 21 -23.499s20.833 -9.5 35.5 -9.5c20.667 0 37.167 6.83301 49.5 20.5s18.5 33.167 18.5 58.5z" />
    <glyph glyph-name="uni2077" unicode="&#x2077;" horiz-adv-x="337" 
d="M298 588c-26.667 -36.667 -48.1699 -67.5 -64.5029 -92.5s-31.166 -49.167 -44.499 -72.5c-17.333 -31.333 -31.833 -61.833 -43.5 -91.5s-18.834 -55.167 -21.501 -76.5l-80 -19l6.5 30c1.66699 8 3.5 15.333 5.5 22s4.33301 13.334 7 20.001l10 24
c9.33301 20.667 19.833 42.667 31.5 66s24.334 46.5 38.001 69.5s27.834 45.167 42.501 66.5s29.667 40.666 45 57.999c-5.33301 0 -10.666 -0.166992 -15.999 -0.5s-11 -0.5 -17 -0.5h-172l17 57h270z" />
    <glyph glyph-name="uni2078" unicode="&#x2078;" horiz-adv-x="339" 
d="M314 372c0 -36.667 -15.6641 -67.0029 -46.9971 -91.0029c-26.667 -20.667 -59.334 -31 -98.001 -31c-20 0 -38.833 2.83301 -56.5 8.5s-33 13.667 -46 24s-23.167 22.5 -30.5 36.5s-11 29.333 -11 46c0 24 6.66699 44.333 20 61s30.666 30.334 51.999 41.001
c-18 10.667 -32.167 23.5 -42.5 38.5s-15.5 31.5 -15.5 49.5c0 16 4.5 31.833 13.5 47.5s20.167 27.834 33.5 36.501c10 6.66699 23.167 11.667 39.5 15s33.166 5 50.499 5c36 0 65.833 -8.5 89.5 -25.5s35.5 -40.5 35.5 -70.5c0 -22.667 -6.83301 -41.667 -20.5 -57
s-30.167 -27.666 -49.5 -36.999c11.333 -5.33301 22 -10.833 32 -16.5s18.833 -12.167 26.5 -19.5s13.667 -16 18 -26s6.5 -21.667 6.5 -35zM245.003 360.997c0 14.667 -4.33301 26.333 -13 35c-6 6 -14.833 12.167 -26.5 18.5s-30.167 15.166 -55.5 26.499
c-16 -8.66699 -29.5 -18.167 -40.5 -28.5s-16.5 -25.166 -16.5 -44.499s7 -35 21 -47s33.333 -18 58 -18c22.667 0 40.5 5.33301 53.5 16s19.5 24.667 19.5 42zM235.003 558.996c0 14 -5.5 25.5029 -16.5 34.5029s-27.167 13.5 -48.5 13.5s-37.5 -4.5 -48.5 -13.5
s-16.5 -20.5 -16.5 -34.5c0 -8.66699 2.33301 -16.334 7 -23.001s10.667 -12.667 18 -18s15 -9.83301 23 -13.5s15.667 -6.83398 23 -9.50098c22.667 11.333 38.167 22.166 46.5 32.499s12.5 20.833 12.5 31.5z" />
    <glyph glyph-name="uni2079" unicode="&#x2079;" horiz-adv-x="357" 
d="M332 512c0 -34 -7.49902 -67.834 -22.499 -101.501s-35.167 -63.834 -60.5 -90.501c-14.667 -15.333 -30.334 -28.333 -47.001 -39s-36 -20.667 -58 -30l-22 -8.5c-6 -2.33301 -12 -4.16602 -18 -5.49902s-12.167 -2.5 -18.5 -3.5s-13.833 -1.83301 -22.5 -2.5l-38 45
c10.667 1.33301 19.334 2.5 26.001 3.5s12.667 2 18 3s10.166 2.33301 14.499 4l14.5 5.5c26 11.333 50.5 25.5 73.5 42.5s42.167 38.167 57.5 63.5l3 5c-16 -6.66699 -33.667 -10 -53 -10c-18.667 0 -36 3.16699 -52 9.5s-29.667 15.333 -41 27s-20.333 25.334 -27 41.001
s-10 32.834 -10 51.501c0 19.333 3.66699 37.5 11 54.5s17.5 31.667 30.5 44s28.333 22 46 29s36.5 10.5 56.5 10.5c38.667 0 70.667 -12.667 96 -38c14.667 -14.667 25.5 -30.834 32.5 -48.501s10.5 -38.167 10.5 -61.5zM260.001 511.999c0 30 -6.66699 53.167 -20 69.5
s-29.666 24.5 -48.999 24.5c-20 0 -36.5 -7.5 -49.5 -22.5s-19.5 -35.5 -19.5 -61.5c0 -24.667 5.66699 -43.5 17 -56.5s26.666 -19.5 45.999 -19.5c23.333 0 46 7 68 21c2 8.66699 3.66699 16.5 5 23.5s2 14.167 2 21.5z" />
    <glyph glyph-name="uni2080" unicode="&#x2080;" horiz-adv-x="345" 
d="M320 -54c0 -29.333 -3.50195 -56.668 -10.502 -82.001s-17 -47.166 -30 -65.499s-28.833 -32.666 -47.5 -42.999s-39.334 -15.5 -62.001 -15.5c-27.333 0 -50.166 7.16699 -68.499 21.5s-33.166 32.166 -44.499 53.499s-19.5 44.166 -24.5 68.499s-7.5 46.833 -7.5 67.5
c0 26 3.83301 51 11.5 75s18 45.167 31 63.5s28.333 33 46 44s36.834 16.5 57.501 16.5c28 0 51.5 -6.66699 70.5 -20s34.333 -30.166 46 -50.499s20 -42.5 25 -66.5s7.5 -46.333 7.5 -67zM246.998 -54.002c0 20.667 -0.664062 37.667 -1.99707 51s-4.66602 27 -9.99902 41
c-6.66699 19.333 -15.5 33.5 -26.5 42.5s-23.167 13.5 -36.5 13.5c-9.33301 0 -18.833 -3.5 -28.5 -10.5s-18.167 -17.833 -25.5 -32.5c-13.333 -24.667 -20 -58.667 -20 -102c0 -20.667 1.16699 -39.167 3.5 -55.5s5.16602 -29.5 8.49902 -39.5
c7.33301 -19.333 16.666 -34.166 27.999 -44.499s22.666 -15.5 33.999 -15.5c10.667 0 21.5 4.5 32.5 13.5s20.167 21.167 27.5 36.5c5.33301 12 9.16602 26.667 11.499 44s3.5 36.666 3.5 57.999z" />
    <glyph glyph-name="uni2081" unicode="&#x2081;" horiz-adv-x="285" 
d="M70 -250v54.999h62v256c-14 -9.33301 -28.667 -17.166 -44 -23.499l-46 -19.5l-17 41l124 83h51v-337h60v-55h-190z" />
    <glyph glyph-name="uni2082" unicode="&#x2082;" horiz-adv-x="318" 
d="M278 -250h-246.999v40c13.333 9.33301 27.333 20.333 42 33s31.667 29.334 51 50.001c33.333 35.333 56.666 64.833 69.999 88.5s20 45.167 20 64.5s-5.83301 35 -17.5 47s-26.5 18 -44.5 18s-34.5 -4.33301 -49.5 -13l-44.5 -26l-33 35
c26.667 22 51.334 37.833 74.001 47.5s45.667 14.5 69 14.5c16.667 0 32.5 -3 47.5 -9s27.833 -14.167 38.5 -24.5s19.167 -22.5 25.5 -36.5s9.5 -29 9.5 -45c0 -16.667 -2.83301 -32.667 -8.5 -48s-13 -29.833 -22 -43.5s-19 -26.834 -30 -39.501
s-22.167 -24.667 -33.5 -36l-34 -33c-10.667 -11.333 -20.334 -21 -29.001 -29c3.33301 0 6.83301 0.166992 10.5 0.5s7.16699 0.5 10.5 0.5h140z" />
    <glyph glyph-name="uni2083" unicode="&#x2083;" horiz-adv-x="323" 
d="M298 -127c0 -28 -9.5 -52.6699 -28.5 -74.0029s-41.833 -37.666 -68.5 -48.999c-14.667 -6 -32.334 -10.833 -53.001 -14.5s-42 -5.5 -64 -5.5c-7.33301 0 -13 0.166992 -17 0.5s-10.667 1.16602 -20 2.49902l-17 51c13.333 -2 22.333 -3.16699 27 -3.5
s10.667 -0.5 18 -0.5c25.333 0 48 2.33301 68 7s38.333 14.334 55 29.001c9.33301 8 16.333 17.5 21 28.5s7 22.167 7 33.5c0 13.333 -3.83301 25 -11.5 35s-18.167 16.667 -31.5 20c-4 0.666992 -7.66699 1.33398 -11 2.00098s-7.33301 1.33398 -12 2.00098
s-10.667 1 -18 1h-45v51h16c22 0 38.667 0.333008 50 1s20 2.33398 26 5.00098c8 3.33301 14.667 9 20 17s8 17.333 8 28c0 15.333 -5.5 27.833 -16.5 37.5s-26.167 14.5 -45.5 14.5s-36.5 -3.5 -51.5 -10.5s-30.167 -15.833 -45.5 -26.5l-33 37c18 16 39.333 29.5 64 40.5
s49.667 16.5 75 16.5c36 0 65.667 -9.5 89 -28.5s35 -43.833 35 -74.5c0 -18.667 -4.66699 -35.167 -14 -49.5s-22.666 -25.833 -39.999 -34.5c19.333 -8.66699 34.833 -20.334 46.5 -35.001s17.5 -32.667 17.5 -54z" />
    <glyph glyph-name="uni2084" unicode="&#x2084;" horiz-adv-x="343" 
d="M269 -179c0 -2 0.166992 -4.00098 0.5 -6.00098s0.5 -4 0.5 -6v-60l-67 -18v77c0 2 0.166992 4.16699 0.5 6.5s0.5 4.5 0.5 6.5h-179v47l146 275h75l-26.5 -51.5l-36.5 -70.5l-41.5 -77c-14.333 -26 -27.833 -49.333 -40.5 -70l7 1h96l-1 6
c-1.33301 5.33301 -1.5 10.333 -0.5 15s1.83301 10.334 2.5 17.001l8 108l57 17v-155l-1 -8h49v-54h-49z" />
    <glyph glyph-name="uni2085" unicode="&#x2085;" horiz-adv-x="300" 
d="M275 -125c0 -25.333 -7.33105 -49.332 -21.998 -71.999s-34 -39.667 -58 -51c-14.667 -7.33301 -31.167 -13 -49.5 -17s-36.166 -6 -53.499 -6c-9.33301 0 -17.333 0.333008 -24 1s-16.334 2.66699 -29.001 6l-14 58c16.667 -7.33301 28.167 -11.5 34.5 -12.5
s14.166 -1.5 23.499 -1.5c17.333 0 33.333 2.5 48 7.5s27.5 11.667 38.5 20s19.5 18.166 25.5 29.499s9 23.666 9 36.999c0 7.33301 -1.33301 14.5 -4 21.5s-6 13.167 -10 18.5c-6 8.66699 -14 15 -24 19s-24 6 -42 6c-14 0 -28.333 -1.33301 -43 -4
s-29.667 -7.66699 -45 -15l22 218h199l-11 -57h-127l-8 -91c6 0.666992 10.833 1.16699 14.5 1.5s8.5 0.5 14.5 0.5c23.333 0 44 -3.16699 62 -9.5s33.333 -16.833 46 -31.5c9.33301 -10.667 16.166 -22.667 20.499 -36s6.5 -26.666 6.5 -39.999z" />
    <glyph glyph-name="uni2086" unicode="&#x2086;" horiz-adv-x="337" 
d="M312 -126c0 -19.333 -3.66602 -37.168 -10.999 -53.501s-17.333 -30.5 -30 -42.5s-27.667 -21.333 -45 -28s-36 -10 -56 -10c-44.667 0 -80 15.333 -106 46s-39 70.334 -39 119.001c0 32 4.83301 60.333 14.5 85s24.834 48.667 45.501 72c23.333 26 49 47.333 77 64
s61 30.334 99 41.001l18 -46c-19.333 -6 -33.333 -10.833 -42 -14.5s-18.334 -8.83398 -29.001 -15.501c-22.667 -13.333 -42.5 -29.5 -59.5 -48.5s-29.833 -41.167 -38.5 -66.5c11.333 6.66699 23.333 11.834 36 15.501s25 5.5 37 5.5c31.333 0 59.666 -10 84.999 -30
c15.333 -12 26.5 -25.333 33.5 -40s10.5 -32.334 10.5 -53.001zM238.001 -127.002c0 22.667 -5.66602 39.666 -16.999 50.999c-5.33301 6 -12.333 10.667 -21 14s-17.667 5 -27 5c-22.667 0 -46.334 -8.66699 -71.001 -26c-0.666992 -5.33301 -1 -9.33301 -1 -12v-12
c0 -11.333 0.833008 -22.833 2.5 -34.5s5 -22.167 10 -31.5s12 -17.166 21 -23.499s20.833 -9.5 35.5 -9.5c20.667 0 37.167 6.83301 49.5 20.5s18.5 33.167 18.5 58.5z" />
    <glyph glyph-name="uni2087" unicode="&#x2087;" horiz-adv-x="337" 
d="M298 78l-63.0029 -89.499c-18.667 -27.667 -34 -52.834 -46 -75.501c-37.333 -71.333 -59 -127.333 -65 -168l-80 -19l6.5 30c1.66699 8 3.5 15.333 5.5 22s4.33301 13.334 7 20.001l10 24c9.33301 20.667 19.833 42.667 31.5 66s24.334 46.5 38.001 69.5
s27.834 45.167 42.501 66.5s29.667 40.666 45 57.999c-5.33301 0 -10.666 -0.166992 -15.999 -0.5s-11 -0.5 -17 -0.5h-172l17 57h270z" />
    <glyph glyph-name="uni2088" unicode="&#x2088;" horiz-adv-x="339" 
d="M314 -138c0 -36.667 -15.6641 -67.0029 -46.9971 -91.0029c-26.667 -20.667 -59.334 -31 -98.001 -31c-20 0 -38.833 2.83301 -56.5 8.5s-33 13.667 -46 24s-23.167 22.5 -30.5 36.5s-11 29.333 -11 46c0 24 6.66699 44.333 20 61s30.666 30.334 51.999 41.001
c-18 10.667 -32.167 23.5 -42.5 38.5s-15.5 31.5 -15.5 49.5c0 16 4.5 31.833 13.5 47.5s20.167 27.834 33.5 36.501c10 6.66699 23.167 11.667 39.5 15s33.166 5 50.499 5c36 0 65.833 -8.5 89.5 -25.5s35.5 -40.5 35.5 -70.5c0 -22.667 -6.83301 -41.667 -20.5 -57
s-30.167 -27.666 -49.5 -36.999c11.333 -5.33301 22 -10.833 32 -16.5s18.833 -12.167 26.5 -19.5s13.667 -16 18 -26s6.5 -21.667 6.5 -35zM245.003 -149.003c0 14.667 -4.33301 26.333 -13 35c-6 6 -14.833 12.167 -26.5 18.5s-30.167 15.166 -55.5 26.499
c-16 -8.66699 -29.5 -18.167 -40.5 -28.5s-16.5 -25.166 -16.5 -44.499s7 -35 21 -47s33.333 -18 58 -18c22.667 0 40.5 5.33301 53.5 16s19.5 24.667 19.5 42zM235.003 48.9961c0 14 -5.5 25.5029 -16.5 34.5029s-27.167 13.5 -48.5 13.5s-37.5 -4.5 -48.5 -13.5
s-16.5 -20.5 -16.5 -34.5c0 -8.66699 2.33301 -16.334 7 -23.001s10.667 -12.667 18 -18s15 -9.83301 23 -13.5s15.667 -6.83398 23 -9.50098c22.667 11.333 38.167 22.166 46.5 32.499s12.5 20.833 12.5 31.5z" />
    <glyph glyph-name="uni2089" unicode="&#x2089;" horiz-adv-x="357" 
d="M332 2c0 -34 -7.49902 -67.834 -22.499 -101.501s-35.167 -63.834 -60.5 -90.501c-14.667 -15.333 -30.334 -28.333 -47.001 -39s-36 -20.667 -58 -30l-22 -8.5c-6 -2.33301 -12 -4.16602 -18 -5.49902s-12.167 -2.5 -18.5 -3.5s-13.833 -1.83301 -22.5 -2.5l-38 45
c10.667 1.33301 19.334 2.5 26.001 3.5s12.667 2 18 3s10.166 2.33301 14.499 4l14.5 5.5c26 11.333 50.5 25.5 73.5 42.5s42.167 38.167 57.5 63.5l3 5c-16 -6.66699 -33.667 -10 -53 -10c-18.667 0 -36 3.16699 -52 9.5s-29.667 15.333 -41 27s-20.333 25.334 -27 41.001
s-10 32.834 -10 51.501c0 19.333 3.66699 37.5 11 54.5s17.5 31.667 30.5 44s28.333 22 46 29s36.5 10.5 56.5 10.5c38.667 0 70.667 -12.667 96 -38c14.667 -14.667 25.5 -30.834 32.5 -48.501s10.5 -38.167 10.5 -61.5zM260.001 1.99902c0 30 -6.66699 53.167 -20 69.5
s-29.666 24.5 -48.999 24.5c-20 0 -36.5 -7.5 -49.5 -22.5s-19.5 -35.5 -19.5 -61.5c0 -24.667 5.66699 -43.5 17 -56.5s26.666 -19.5 45.999 -19.5c23.333 0 46 7 68 21c2 8.66699 3.66699 16.5 5 23.5s2 14.167 2 21.5z" />
    <glyph glyph-name="Euro" unicode="&#x20ac;" horiz-adv-x="622" 
d="M582 27c-19.333 -10.667 -42.499 -19.6621 -69.499 -26.9951s-57.5 -11 -91.5 -11c-37.333 0 -73.333 7.66699 -108 23s-65.334 38 -92.001 68c-18.667 21.333 -33.834 44.833 -45.501 70.5s-20.5 53.5 -26.5 83.5h-110v59h102
c-1.33301 13.333 -2.16602 26.666 -2.49902 39.999s0.166992 26.666 1.5 39.999h-101v59h109c7.33301 38.667 19.5 74.167 36.5 106.5s37.667 60.166 62 83.499s51.666 41.333 81.999 54s63.166 19 98.499 19c33.333 0 63 -4.16699 89 -12.5s44 -16.5 54 -24.5l-14 -72
c-20.667 15.333 -41.167 26.333 -61.5 33s-43.166 10 -68.499 10c-40 0 -74 -10 -102 -30s-50.333 -49.333 -67 -88c-9.33301 -22 -16.666 -48.333 -21.999 -79h269v-59h-275c-2 -24.667 -2 -51.334 0 -80.001h275v-59h-269c2.66699 -16.667 7.66699 -33.334 15 -50.001
c17.333 -43.333 42.5 -75.5 75.5 -96.5s69.167 -31.5 108.5 -31.5c25.333 0 48.5 3.5 69.5 10.5s42.5 18.167 64.5 33.5z" />
    <glyph glyph-name="uni20B4" unicode="&#x20b4;" horiz-adv-x="622" 
d="M393 432c16 12 28.8301 25.1699 38.4971 39.5029s14.5 30.833 14.5 49.5c0 36 -11.167 63.833 -33.5 83.5s-51.5 29.5 -87.5 29.5c-29.333 0 -56.333 -4.33301 -81 -13s-53.334 -23.667 -86.001 -45l-36 59c64.667 44 133.667 66 207 66
c28.667 0 54.834 -4.33301 78.501 -13s43.834 -20.334 60.501 -35.001s29.667 -31.667 39 -51s14 -39.333 14 -60c0 -23.333 -3.83301 -43.833 -11.5 -61.5s-18.167 -33.834 -31.5 -48.501h84v-59h-159c-23.333 -14.667 -47.666 -28.334 -72.999 -41.001
s-48.666 -25.667 -69.999 -39h302v-59h-365c-9.33301 -16.667 -14 -34 -14 -52c0 -21.333 4 -40 12 -56s18.667 -29.333 32 -40s28.833 -18.667 46.5 -24s36.167 -8 55.5 -8c37.333 0 69.833 4.66699 97.5 14s54.167 24.333 79.5 45l36 -64
c-31.333 -21.333 -63.666 -37 -96.999 -47s-71 -15 -113 -15c-29.333 0 -57.333 4.33301 -84 13s-50.334 21 -71.001 37s-37 35.333 -49 58s-18 48 -18 76c0 22 4.66699 43 14 63h-65v59h111c17.333 15.333 37 29.5 59 42.5s44.333 25.5 67 37.5h-237v59h334z" />
    <glyph glyph-name="afii61352" unicode="&#x2116;" horiz-adv-x="921" 
d="M181 686l252 -492l10 -21.5c4 -8.33301 7.66699 -16.666 11 -24.999l10 -24.5l8 -19c-1.33301 13.333 -2.5 29.666 -3.5 48.999s-1.83301 39 -2.5 59s-1.33398 39 -2.00098 57s-1 32.667 -1 44v373h78v-686h-86l-244 477c-7.33301 13.333 -15.166 29.5 -23.499 48.5
l-21.5 48.5c2.66699 -30.667 4.5 -60.167 5.5 -88.5s1.5 -57.5 1.5 -87.5v-398h-78v686h86zM885 523c0 -28.667 -3.6709 -52.667 -11.0039 -72s-17.166 -35 -29.499 -47s-26.166 -20.5 -41.499 -25.5s-31 -7.5 -47 -7.5c-40 0 -71.5 14 -94.5 42s-34.5 67 -34.5 117
c0 28 3.66699 52 11 72s17 36.167 29 48.5s25.5 21.333 40.5 27s30.5 8.5 46.5 8.5c14.667 0 29.834 -2.5 45.501 -7.5s29.834 -13.667 42.501 -26s23 -29 31 -50s12 -47.5 12 -79.5zM826.996 520c0 14 -0.664062 28.167 -1.99707 42.5s-4.5 27.333 -9.5 39
s-12.333 21.334 -22 29.001s-22.834 11.5 -39.501 11.5c-16 0 -28.667 -3.16699 -38 -9.5s-16.5 -14.5 -21.5 -24.5s-8.33301 -21.333 -10 -34s-2.5 -25.334 -2.5 -38.001c0 -8 0.333008 -18.833 1 -32.5s3.5 -27 8.5 -40s12.5 -24.333 22.5 -34s24.667 -14.5 44 -14.5
c17.333 0 30.666 4 39.999 12s16.166 17.667 20.499 29s6.83301 23 7.5 35s1 21.667 1 29zM630.999 203v52h251v-52h-251z" />
    <glyph glyph-name="uni2117" unicode="&#x2117;" horiz-adv-x="874" 
d="M809 354c0 -53.333 -9.83301 -102.666 -29.5 -147.999s-46.5 -84.5 -80.5 -117.5s-73.5 -59 -118.5 -78s-92.833 -28.5 -143.5 -28.5s-98.5 9.5 -143.5 28.5s-84.5 45 -118.5 78s-60.833 72.167 -80.5 117.5s-29.5 94.666 -29.5 147.999
c0 52.667 9.83301 101.834 29.5 147.501s46.5 85 80.5 118s73.5 59 118.5 78s92.833 28.5 143.5 28.5s98.5 -9.5 143.5 -28.5s84.5 -45 118.5 -78s60.833 -72.333 80.5 -118s29.5 -94.834 29.5 -147.501zM743 354c0 44.667 -8 86.5 -24 125.5s-37.833 72.667 -65.5 101
s-60 50.666 -97 66.999s-76.833 24.5 -119.5 24.5s-82.667 -8.16699 -120 -24.5s-69.666 -38.666 -96.999 -66.999s-49 -62 -65 -101s-24 -80.833 -24 -125.5c0 -45.333 8 -87.333 24 -126s37.667 -72.167 65 -100.5s59.666 -50.666 96.999 -66.999s77.333 -24.5 120 -24.5
s82.5 8.16699 119.5 24.5s69.333 38.666 97 66.999s49.5 61.833 65.5 100.5s24 80.667 24 126zM596 444c0 -21.333 -2.99805 -40.0029 -8.99805 -56.0029s-16 -30.333 -30 -43s-29 -21.5 -45 -26.5s-34.333 -7.5 -55 -7.5h-63v-161h-58v413h116
c21.333 0 38.666 -1.16699 51.999 -3.5s25.666 -7.16602 36.999 -14.499c17.333 -11.333 30.833 -25.666 40.5 -42.999s14.5 -36.666 14.5 -57.999zM531.002 433.997c0 28.667 -7 49 -21 61c-7.33301 6.66699 -16.5 11.334 -27.5 14.001s-25.833 4 -44.5 4h-44v-153h60
c16.667 0 29.167 1.66699 37.5 5s15.5 8.66602 21.5 15.999c12 14 18 31.667 18 53z" />
    <glyph glyph-name="trademark" unicode="&#x2122;" horiz-adv-x="992" 
d="M831 274v346h-2l-136 -346h-45l-136 346h-2v-346h-66v412h105l123 -313l123 313h102v-412h-66zM231 620v-346h-66v346h-130v66h326v-66h-130z" />
    <glyph glyph-name="Omega" unicode="&#x2126;" horiz-adv-x="699" 
d="M634 341c0 -58.667 -11.168 -112.002 -33.501 -160.002s-53.5 -84.667 -93.5 -110h122l-13 -71h-197v71c17.333 10 33.5 21.833 48.5 35.5s28 30.5 39 50.5s19.667 44 26 72s9.5 61.333 9.5 100c0 50.667 -3.5 92.167 -10.5 124.5s-16.167 60.5 -27.5 84.5
c-12 25.333 -31 47.333 -57 66s-59 28 -99 28c-32 0 -61.667 -7.16699 -89 -21.5s-47.666 -33.833 -60.999 -58.5c-12 -22.667 -22 -47.667 -30 -75s-12 -62.333 -12 -105c0 -47.333 3.66699 -87.666 11 -120.999s16.833 -61.666 28.5 -84.999s25 -42.333 40 -57
s30.167 -27.334 45.5 -38.001v-71h-214l13 71h110c-40 31.333 -70.833 72.333 -92.5 123s-32.5 104.334 -32.5 161.001c0 58.667 7.66699 109.167 23 151.5s37 78.833 65 109.5c24 26.667 52.5 47 85.5 61s69.5 21 109.5 21c30 0 56.667 -3.5 80 -10.5s44 -16 62 -27
s33.333 -23.167 46 -36.5s23 -26 31 -38c21.333 -32 37.833 -67 49.5 -105s17.5 -84.667 17.5 -140z" />
    <glyph glyph-name="onethird" unicode="&#x2153;" horiz-adv-x="951" 
d="M90 260v54.999h62v256c-14 -9.33301 -28.667 -17.166 -44 -23.499l-46 -19.5l-17 41l124 83h51v-337h60v-55h-190zM246 -154.001h-66l527 917h66zM926 122.999c0 -28 -9.5 -52.6699 -28.5 -74.0029s-41.833 -37.666 -68.5 -48.999
c-14.667 -6 -32.334 -10.833 -53.001 -14.5s-42 -5.5 -64 -5.5c-7.33301 0 -13 0.166992 -17 0.5s-10.667 1.16602 -20 2.49902l-17 51c13.333 -2 22.333 -3.16699 27 -3.5s10.667 -0.5 18 -0.5c25.333 0 48 2.33301 68 7s38.333 14.334 55 29.001
c9.33301 8 16.333 17.5 21 28.5s7 22.167 7 33.5c0 13.333 -3.83301 25 -11.5 35s-18.167 16.667 -31.5 20c-4 0.666992 -7.66699 1.33398 -11 2.00098s-7.33301 1.33398 -12 2.00098s-10.667 1 -18 1h-45v51h16c22 0 38.667 0.333008 50 1s20 2.33398 26 5.00098
c8 3.33301 14.667 9 20 17s8 17.333 8 28c0 15.333 -5.5 27.833 -16.5 37.5s-26.167 14.5 -45.5 14.5s-36.5 -3.5 -51.5 -10.5s-30.167 -15.833 -45.5 -26.5l-33 37c18 16 39.333 29.5 64 40.5s49.667 16.5 75 16.5c36 0 65.667 -9.5 89 -28.5s35 -43.833 35 -74.5
c0 -18.667 -4.66699 -35.167 -14 -49.5s-22.666 -25.833 -39.999 -34.5c19.333 -8.66699 34.833 -20.334 46.5 -35.001s17.5 -32.667 17.5 -54z" />
    <glyph glyph-name="twothirds" unicode="&#x2154;" horiz-adv-x="984" 
d="M298 260h-247v40c13.333 9.33301 27.333 20.333 42 33s31.667 29.334 51 50.001c33.333 35.333 56.666 64.833 69.999 88.5s20 45.167 20 64.5s-5.83301 35 -17.5 47s-26.5 18 -44.5 18s-34.5 -4.33301 -49.5 -13l-44.5 -26l-33 35c26.667 22 51.334 37.833 74.001 47.5
s45.667 14.5 69 14.5c16.667 0 32.5 -3 47.5 -9s27.833 -14.167 38.5 -24.5s19.167 -22.5 25.5 -36.5s9.5 -29 9.5 -45c0 -16.667 -2.83301 -32.667 -8.5 -48s-13 -29.833 -22 -43.5s-19 -26.834 -30 -39.501s-22.167 -24.667 -33.5 -36l-34 -34l-29 -28
c3.33301 0 6.83301 0.166992 10.5 0.5s7.16699 0.5 10.5 0.5h140zM279 -154h-66l527 917h66zM959 123c0 -28 -9.5 -52.6699 -28.5 -74.0029s-41.833 -37.666 -68.5 -48.999c-14.667 -6 -32.334 -10.833 -53.001 -14.5s-42 -5.5 -64 -5.5c-7.33301 0 -13 0.166992 -17 0.5
s-10.667 1.16602 -20 2.49902l-17 51c13.333 -2 22.333 -3.16699 27 -3.5s10.667 -0.5 18 -0.5c25.333 0 48 2.33301 68 7s38.333 14.334 55 29.001c9.33301 8 16.333 17.5 21 28.5s7 22.167 7 33.5c0 13.333 -3.83301 25 -11.5 35s-18.167 16.667 -31.5 20
c-4 0.666992 -7.66699 1.33398 -11 2.00098s-7.33301 1.33398 -12 2.00098s-10.667 1 -18 1h-45v51h16c22 0 38.667 0.333008 50 1s20 2.33398 26 5.00098c8 3.33301 14.667 9 20 17s8 17.333 8 28c0 15.333 -5.5 27.833 -16.5 37.5s-26.167 14.5 -45.5 14.5
s-36.5 -3.5 -51.5 -10.5s-30.167 -15.833 -45.5 -26.5l-33 37c18 16 39.333 29.5 64 40.5s49.667 16.5 75 16.5c36 0 65.667 -9.5 89 -28.5s35 -43.833 35 -74.5c0 -18.667 -4.66699 -35.167 -14 -49.5s-22.666 -25.833 -39.999 -34.5
c19.333 -8.66699 34.833 -20.334 46.5 -35.001s17.5 -32.667 17.5 -54z" />
    <glyph glyph-name="uni2155" unicode="&#x2155;" horiz-adv-x="928" 
d="M90 260v54.999h62v256c-14 -9.33301 -28.667 -17.166 -44 -23.499l-46 -19.5l-17 41l124 83h51v-337h60v-55h-190zM246 -154.001h-66l527 917h66zM903 124.999c0 -25.333 -7.33105 -49.332 -21.998 -71.999s-34 -39.667 -58 -51c-14.667 -7.33301 -31.167 -13 -49.5 -17
s-36.166 -6 -53.499 -6c-9.33301 0 -17.333 0.333008 -24 1s-16.334 2.66699 -29.001 6l-14 58c16.667 -7.33301 28.167 -11.5 34.5 -12.5s14.166 -1.5 23.499 -1.5c17.333 0 33.333 2.5 48 7.5s27.5 11.667 38.5 20s19.5 18.166 25.5 29.499s9 23.666 9 36.999
c0 7.33301 -1.33301 14.5 -4 21.5s-6 13.167 -10 18.5c-6 8.66699 -14 15 -24 19s-24 6 -42 6c-14 0 -28.333 -1.33301 -43 -4s-29.667 -7.66699 -45 -15l22 218h199l-11 -57h-127l-8 -91c6 0.666992 10.833 1.16699 14.5 1.5s8.5 0.5 14.5 0.5
c23.333 0 44 -3.16699 62 -9.5s33.333 -16.833 46 -31.5c9.33301 -10.667 16.166 -22.667 20.499 -36s6.5 -26.666 6.5 -39.999z" />
    <glyph glyph-name="uni2156" unicode="&#x2156;" horiz-adv-x="961" 
d="M298 260h-247v40c13.333 9.33301 27.333 20.333 42 33s31.667 29.334 51 50.001c33.333 35.333 56.666 64.833 69.999 88.5s20 45.167 20 64.5s-5.83301 35 -17.5 47s-26.5 18 -44.5 18s-34.5 -4.33301 -49.5 -13l-44.5 -26l-33 35c26.667 22 51.334 37.833 74.001 47.5
s45.667 14.5 69 14.5c16.667 0 32.5 -3 47.5 -9s27.833 -14.167 38.5 -24.5s19.167 -22.5 25.5 -36.5s9.5 -29 9.5 -45c0 -16.667 -2.83301 -32.667 -8.5 -48s-13 -29.833 -22 -43.5s-19 -26.834 -30 -39.501s-22.167 -24.667 -33.5 -36l-34 -34l-29 -28
c3.33301 0 6.83301 0.166992 10.5 0.5s7.16699 0.5 10.5 0.5h140zM279 -154h-66l527 917h66zM936 125c0 -25.333 -7.33105 -49.332 -21.998 -71.999s-34 -39.667 -58 -51c-14.667 -7.33301 -31.167 -13 -49.5 -17s-36.166 -6 -53.499 -6c-9.33301 0 -17.333 0.333008 -24 1
s-16.334 2.66699 -29.001 6l-14 58c16.667 -7.33301 28.167 -11.5 34.5 -12.5s14.166 -1.5 23.499 -1.5c17.333 0 33.333 2.5 48 7.5s27.5 11.667 38.5 20s19.5 18.166 25.5 29.499s9 23.666 9 36.999c0 7.33301 -1.33301 14.5 -4 21.5s-6 13.167 -10 18.5
c-6 8.66699 -14 15 -24 19s-24 6 -42 6c-14 0 -28.333 -1.33301 -43 -4s-29.667 -7.66699 -45 -15l22 218h199l-11 -57h-127l-8 -91c6 0.666992 10.833 1.16699 14.5 1.5s8.5 0.5 14.5 0.5c23.333 0 44 -3.16699 62 -9.5s33.333 -16.833 46 -31.5
c9.33301 -10.667 16.166 -22.667 20.499 -36s6.5 -26.666 6.5 -39.999z" />
    <glyph glyph-name="uni2157" unicode="&#x2157;" horiz-adv-x="966" 
d="M318 383c0 -28 -9.5 -52.6699 -28.5 -74.0029s-41.833 -37.666 -68.5 -48.999c-14.667 -6 -32.334 -10.833 -53.001 -14.5s-42 -5.5 -64 -5.5c-7.33301 0 -13 0.166992 -17 0.5s-10.667 1.16602 -20 2.49902l-17 51c13.333 -2 22.333 -3.16699 27 -3.5
s10.667 -0.5 18 -0.5c25.333 0 48 2.33301 68 7s38.333 14.334 55 29.001c9.33301 8 16.333 17.5 21 28.5s7 22.167 7 33.5c0 13.333 -3.83301 25 -11.5 35s-18.167 16.667 -31.5 20c-4 0.666992 -7.66699 1.33398 -11 2.00098s-7.33301 1.33398 -12 2.00098
s-10.667 1 -18 1h-45v51h16c22 0 38.667 0.333008 50 1s20 2.33398 26 5.00098c8 3.33301 14.667 9 20 17s8 17.333 8 28c0 15.333 -5.5 27.833 -16.5 37.5s-26.167 14.5 -45.5 14.5s-36.5 -3.5 -51.5 -10.5s-30.167 -15.833 -45.5 -26.5l-33 37c18 16 39.333 29.5 64 40.5
s49.667 16.5 75 16.5c36 0 65.667 -9.5 89 -28.5s35 -43.833 35 -74.5c0 -18.667 -4.66699 -35.167 -14 -49.5s-22.666 -25.833 -39.999 -34.5c19.333 -8.66699 34.833 -20.334 46.5 -35.001s17.5 -32.667 17.5 -54zM284 -154.003h-66l527 917h66zM941 124.997
c0 -25.333 -7.33105 -49.332 -21.998 -71.999s-34 -39.667 -58 -51c-14.667 -7.33301 -31.167 -13 -49.5 -17s-36.166 -6 -53.499 -6c-9.33301 0 -17.333 0.333008 -24 1s-16.334 2.66699 -29.001 6l-14 58c16.667 -7.33301 28.167 -11.5 34.5 -12.5
s14.166 -1.5 23.499 -1.5c17.333 0 33.333 2.5 48 7.5s27.5 11.667 38.5 20s19.5 18.166 25.5 29.499s9 23.666 9 36.999c0 7.33301 -1.33301 14.5 -4 21.5s-6 13.167 -10 18.5c-6 8.66699 -14 15 -24 19s-24 6 -42 6c-14 0 -28.333 -1.33301 -43 -4
s-29.667 -7.66699 -45 -15l22 218h199l-11 -57h-127l-8 -91c6 0.666992 10.833 1.16699 14.5 1.5s8.5 0.5 14.5 0.5c23.333 0 44 -3.16699 62 -9.5s33.333 -16.833 46 -31.5c9.33301 -10.667 16.166 -22.667 20.499 -36s6.5 -26.666 6.5 -39.999z" />
    <glyph glyph-name="uni2158" unicode="&#x2158;" horiz-adv-x="946" 
d="M269 331c0 -2 0.166992 -4.00098 0.5 -6.00098s0.5 -4 0.5 -6v-60l-67 -18v77c0 2 0.166992 4.16699 0.5 6.5s0.5 4.5 0.5 6.5h-179v47l146 275h75l-26.5 -51.5l-36.5 -70.5l-41.5 -77c-14.333 -26 -27.833 -49.333 -40.5 -70l7 1h96l-1 6
c-1.33301 5.33301 -1.5 10.333 -0.5 15s1.83301 10.334 2.5 17.001l8 108l57 17v-155l-1 -8h49v-54h-49zM264 -154.001h-66l527 917h66zM921 124.999c0 -25.333 -7.33105 -49.332 -21.998 -71.999s-34 -39.667 -58 -51c-14.667 -7.33301 -31.167 -13 -49.5 -17
s-36.166 -6 -53.499 -6c-9.33301 0 -17.333 0.333008 -24 1s-16.334 2.66699 -29.001 6l-14 58c16.667 -7.33301 28.167 -11.5 34.5 -12.5s14.166 -1.5 23.499 -1.5c17.333 0 33.333 2.5 48 7.5s27.5 11.667 38.5 20s19.5 18.166 25.5 29.499s9 23.666 9 36.999
c0 7.33301 -1.33301 14.5 -4 21.5s-6 13.167 -10 18.5c-6 8.66699 -14 15 -24 19s-24 6 -42 6c-14 0 -28.333 -1.33301 -43 -4s-29.667 -7.66699 -45 -15l22 218h199l-11 -57h-127l-8 -91c6 0.666992 10.833 1.16699 14.5 1.5s8.5 0.5 14.5 0.5
c23.333 0 44 -3.16699 62 -9.5s33.333 -16.833 46 -31.5c9.33301 -10.667 16.166 -22.667 20.499 -36s6.5 -26.666 6.5 -39.999z" />
    <glyph glyph-name="uni2159" unicode="&#x2159;" horiz-adv-x="965" 
d="M90 260v54.999h62v256c-14 -9.33301 -28.667 -17.166 -44 -23.499l-46 -19.5l-17 41l124 83h51v-337h60v-55h-190zM246 -154.001h-66l527 917h66zM940 123.999c0 -19.333 -3.66602 -37.168 -10.999 -53.501s-17.333 -30.5 -30 -42.5s-27.667 -21.333 -45 -28
s-36 -10 -56 -10c-44.667 0 -80 15.333 -106 46s-39 70.334 -39 119.001c0 32 4.83301 60.333 14.5 85s24.834 48.667 45.501 72c23.333 26 49 47.333 77 64s61 30.334 99 41.001l18 -46c-19.333 -6 -33.333 -10.833 -42 -14.5s-18.334 -8.83398 -29.001 -15.501
c-22.667 -13.333 -42.5 -29.5 -59.5 -48.5s-29.833 -41.167 -38.5 -66.5c11.333 6.66699 23.333 11.834 36 15.501s25 5.5 37 5.5c31.333 0 59.666 -10 84.999 -30c15.333 -12 26.5 -25.333 33.5 -40s10.5 -32.334 10.5 -53.001zM866.001 122.997
c0 22.667 -5.66602 39.665 -16.999 50.998c-5.33301 6 -12.333 10.667 -21 14s-17.667 5 -27 5c-22.667 0 -46.334 -8.66699 -71.001 -26c-0.666992 -5.33301 -1 -9.66602 -1 -12.999v-11c0 -11.333 0.833008 -22.833 2.5 -34.5s5 -22.167 10 -31.5s12 -17.166 21 -23.499
s20.833 -9.5 35.5 -9.5c20.667 0 37.167 6.83301 49.5 20.5s18.5 33.167 18.5 58.5z" />
    <glyph glyph-name="uni215A" unicode="&#x215a;" horiz-adv-x="940" 
d="M275 385c0 -25.333 -7.33105 -49.332 -21.998 -71.999s-34 -39.667 -58 -51c-14.667 -7.33301 -31.167 -13 -49.5 -17s-36.166 -6 -53.499 -6c-9.33301 0 -17.333 0.333008 -24 1s-16.334 2.66699 -29.001 6l-14 58c16.667 -7.33301 28.167 -11.5 34.5 -12.5
s14.166 -1.5 23.499 -1.5c17.333 0 33.333 2.5 48 7.5s27.5 11.667 38.5 20s19.5 18.166 25.5 29.499s9 23.666 9 36.999c0 7.33301 -1.33301 14.5 -4 21.5s-6 13.167 -10 18.5c-6 8.66699 -14 15 -24 19s-24 6 -42 6c-14 0 -28.333 -1.33301 -43 -4
s-29.667 -7.66699 -45 -15l22 218h199l-11 -57h-127l-8 -91c6 0.666992 10.833 1.16699 14.5 1.5s8.5 0.5 14.5 0.5c23.333 0 44 -3.16699 62 -9.5s33.333 -16.833 46 -31.5c9.33301 -10.667 16.166 -22.667 20.499 -36s6.5 -26.666 6.5 -39.999zM221.002 -153.999h-66
l527 917h66zM915.002 124.001c0 -19.333 -3.66602 -37.168 -10.999 -53.501s-17.333 -30.5 -30 -42.5s-27.667 -21.333 -45 -28s-36 -10 -56 -10c-44.667 0 -80 15.333 -106 46s-39 70.334 -39 119.001c0 32 4.83301 60.333 14.5 85s24.834 48.667 45.501 72
c23.333 26 49 47.333 77 64s61 30.334 99 41.001l18 -46c-19.333 -6 -33.333 -10.833 -42 -14.5s-18.334 -8.83398 -29.001 -15.501c-22.667 -13.333 -42.5 -29.5 -59.5 -48.5s-29.833 -41.167 -38.5 -66.5c11.333 6.66699 23.333 11.834 36 15.501s25 5.5 37 5.5
c31.333 0 59.666 -10 84.999 -30c15.333 -12 26.5 -25.333 33.5 -40s10.5 -32.334 10.5 -53.001zM841.003 122.999c0 22.667 -5.66602 39.665 -16.999 50.998c-5.33301 6 -12.333 10.667 -21 14s-17.667 5 -27 5c-22.667 0 -46.334 -8.66699 -71.001 -26
c-0.666992 -5.33301 -1 -9.66602 -1 -12.999v-11c0 -11.333 0.833008 -22.833 2.5 -34.5s5 -22.167 10 -31.5s12 -17.166 21 -23.499s20.833 -9.5 35.5 -9.5c20.667 0 37.167 6.83301 49.5 20.5s18.5 33.167 18.5 58.5z" />
    <glyph glyph-name="oneeighth" unicode="&#x215b;" horiz-adv-x="967" 
d="M90 260v54.999h62v256c-14 -9.33301 -28.667 -17.166 -44 -23.499l-46 -19.5l-17 41l124 83h51v-337h60v-55h-190zM246 -154.001h-66l527 917h66zM942 111.999c0 -36.667 -15.6641 -67.0029 -46.9971 -91.0029c-26.667 -20.667 -59.334 -31 -98.001 -31
c-20 0 -38.833 2.83301 -56.5 8.5s-33 13.667 -46 24s-23.167 22.5 -30.5 36.5s-11 29.333 -11 46c0 24 6.66699 44.333 20 61s30.666 30.334 51.999 41.001c-18 10.667 -32.167 23.5 -42.5 38.5s-15.5 31.5 -15.5 49.5c0 16 4.5 31.833 13.5 47.5
s20.167 27.834 33.5 36.501c10 6.66699 23.167 11.667 39.5 15s33.166 5 50.499 5c36 0 65.833 -8.5 89.5 -25.5s35.5 -40.5 35.5 -70.5c0 -22.667 -6.83301 -41.667 -20.5 -57s-30.167 -27.666 -49.5 -36.999c11.333 -5.33301 22 -10.833 32 -16.5
s18.833 -12.167 26.5 -19.5s13.667 -16 18 -26s6.5 -21.667 6.5 -35zM873.003 100.996c0 14.667 -4.33301 26.333 -13 35c-6 6 -14.833 12.167 -26.5 18.5s-30.167 15.166 -55.5 26.499c-16 -8.66699 -29.5 -18.167 -40.5 -28.5s-16.5 -25.166 -16.5 -44.499s7 -35 21 -47
s33.333 -18 58 -18c22.667 0 40.5 5.33301 53.5 16s19.5 24.667 19.5 42zM863.003 298.995c0 14 -5.5 25.5029 -16.5 34.5029s-27.167 13.5 -48.5 13.5s-37.5 -4.5 -48.5 -13.5s-16.5 -20.5 -16.5 -34.5c0 -8.66699 2.33301 -16.334 7 -23.001s10.667 -12.667 18 -18
s15 -9.83301 23 -13.5s15.667 -6.83398 23 -9.50098c22.667 11.333 38.167 22.166 46.5 32.499s12.5 20.833 12.5 31.5z" />
    <glyph glyph-name="threeeighths" unicode="&#x215c;" horiz-adv-x="1005" 
d="M318 383c0 -28 -9.5 -52.6699 -28.5 -74.0029s-41.833 -37.666 -68.5 -48.999c-14.667 -6 -32.334 -10.833 -53.001 -14.5s-42 -5.5 -64 -5.5c-7.33301 0 -13 0.166992 -17 0.5s-10.667 1.16602 -20 2.49902l-17 51c13.333 -2 22.333 -3.16699 27 -3.5
s10.667 -0.5 18 -0.5c25.333 0 48 2.33301 68 7s38.333 14.334 55 29.001c9.33301 8 16.333 17.5 21 28.5s7 22.167 7 33.5c0 13.333 -3.83301 25 -11.5 35s-18.167 16.667 -31.5 20c-4 0.666992 -7.66699 1.33398 -11 2.00098s-7.33301 1.33398 -12 2.00098
s-10.667 1 -18 1h-45v51h16c22 0 38.667 0.333008 50 1s20 2.33398 26 5.00098c8 3.33301 14.667 9 20 17s8 17.333 8 28c0 15.333 -5.5 27.833 -16.5 37.5s-26.167 14.5 -45.5 14.5s-36.5 -3.5 -51.5 -10.5s-30.167 -15.833 -45.5 -26.5l-33 37c18 16 39.333 29.5 64 40.5
s49.667 16.5 75 16.5c36 0 65.667 -9.5 89 -28.5s35 -43.833 35 -74.5c0 -18.667 -4.66699 -35.167 -14 -49.5s-22.666 -25.833 -39.999 -34.5c19.333 -8.66699 34.833 -20.334 46.5 -35.001s17.5 -32.667 17.5 -54zM284 -154.003h-66l527 917h66zM980 111.997
c0 -36.667 -15.6641 -67.0029 -46.9971 -91.0029c-26.667 -20.667 -59.334 -31 -98.001 -31c-20 0 -38.833 2.83301 -56.5 8.5s-33 13.667 -46 24s-23.167 22.5 -30.5 36.5s-11 29.333 -11 46c0 24 6.66699 44.333 20 61s30.666 30.334 51.999 41.001
c-18 10.667 -32.167 23.5 -42.5 38.5s-15.5 31.5 -15.5 49.5c0 16 4.5 31.833 13.5 47.5s20.167 27.834 33.5 36.501c10 6.66699 23.167 11.667 39.5 15s33.166 5 50.499 5c36 0 65.833 -8.5 89.5 -25.5s35.5 -40.5 35.5 -70.5c0 -22.667 -6.83301 -41.667 -20.5 -57
s-30.167 -27.666 -49.5 -36.999c11.333 -5.33301 22 -10.833 32 -16.5s18.833 -12.167 26.5 -19.5s13.667 -16 18 -26s6.5 -21.667 6.5 -35zM911.003 100.994c0 14.667 -4.33301 26.333 -13 35c-6 6 -14.833 12.167 -26.5 18.5s-30.167 15.166 -55.5 26.499
c-16 -8.66699 -29.5 -18.167 -40.5 -28.5s-16.5 -25.166 -16.5 -44.499s7 -35 21 -47s33.333 -18 58 -18c22.667 0 40.5 5.33301 53.5 16s19.5 24.667 19.5 42zM901.003 298.993c0 14 -5.5 25.5029 -16.5 34.5029s-27.167 13.5 -48.5 13.5s-37.5 -4.5 -48.5 -13.5
s-16.5 -20.5 -16.5 -34.5c0 -8.66699 2.33301 -16.334 7 -23.001s10.667 -12.667 18 -18s15 -9.83301 23 -13.5s15.667 -6.83398 23 -9.50098c22.667 11.333 38.167 22.166 46.5 32.499s12.5 20.833 12.5 31.5z" />
    <glyph glyph-name="fiveeighths" unicode="&#x215d;" horiz-adv-x="942" 
d="M275 385c0 -25.333 -7.33105 -49.332 -21.998 -71.999s-34 -39.667 -58 -51c-14.667 -7.33301 -31.167 -13 -49.5 -17s-36.166 -6 -53.499 -6c-9.33301 0 -17.333 0.333008 -24 1s-16.334 2.66699 -29.001 6l-14 58c16.667 -7.33301 28.167 -11.5 34.5 -12.5
s14.166 -1.5 23.499 -1.5c17.333 0 33.333 2.5 48 7.5s27.5 11.667 38.5 20s19.5 18.166 25.5 29.499s9 23.666 9 36.999c0 7.33301 -1.33301 14.5 -4 21.5s-6 13.167 -10 18.5c-6 8.66699 -14 15 -24 19s-24 6 -42 6c-14 0 -28.333 -1.33301 -43 -4
s-29.667 -7.66699 -45 -15l22 218h199l-11 -57h-127l-8 -91c6 0.666992 10.833 1.16699 14.5 1.5s8.5 0.5 14.5 0.5c23.333 0 44 -3.16699 62 -9.5s33.333 -16.833 46 -31.5c9.33301 -10.667 16.166 -22.667 20.499 -36s6.5 -26.666 6.5 -39.999zM221.002 -153.999h-66
l527 917h66zM917.002 112.001c0 -36.667 -15.6641 -67.0029 -46.9971 -91.0029c-26.667 -20.667 -59.334 -31 -98.001 -31c-20 0 -38.833 2.83301 -56.5 8.5s-33 13.667 -46 24s-23.167 22.5 -30.5 36.5s-11 29.333 -11 46c0 24 6.66699 44.333 20 61
s30.666 30.334 51.999 41.001c-18 10.667 -32.167 23.5 -42.5 38.5s-15.5 31.5 -15.5 49.5c0 16 4.5 31.833 13.5 47.5s20.167 27.834 33.5 36.501c10 6.66699 23.167 11.667 39.5 15s33.166 5 50.499 5c36 0 65.833 -8.5 89.5 -25.5s35.5 -40.5 35.5 -70.5
c0 -22.667 -6.83301 -41.667 -20.5 -57s-30.167 -27.666 -49.5 -36.999c11.333 -5.33301 22 -10.833 32 -16.5s18.833 -12.167 26.5 -19.5s13.667 -16 18 -26s6.5 -21.667 6.5 -35zM848.005 100.998c0 14.667 -4.33301 26.333 -13 35c-6 6 -14.833 12.167 -26.5 18.5
s-30.167 15.166 -55.5 26.499c-16 -8.66699 -29.5 -18.167 -40.5 -28.5s-16.5 -25.166 -16.5 -44.499s7 -35 21 -47s33.333 -18 58 -18c22.667 0 40.5 5.33301 53.5 16s19.5 24.667 19.5 42zM838.005 298.997c0 14 -5.5 25.5029 -16.5 34.5029s-27.167 13.5 -48.5 13.5
s-37.5 -4.5 -48.5 -13.5s-16.5 -20.5 -16.5 -34.5c0 -8.66699 2.33301 -16.334 7 -23.001s10.667 -12.667 18 -18s15 -9.83301 23 -13.5s15.667 -6.83398 23 -9.50098c22.667 11.333 38.167 22.166 46.5 32.499s12.5 20.833 12.5 31.5z" />
    <glyph glyph-name="seveneighths" unicode="&#x215e;" horiz-adv-x="979" 
d="M298 588c-26.667 -36.667 -48.1699 -67.5 -64.5029 -92.5s-31.166 -49.167 -44.499 -72.5c-17.333 -31.333 -31.833 -61.833 -43.5 -91.5s-18.834 -55.167 -21.501 -76.5l-80 -19l6.5 30c1.66699 8 3.5 15.333 5.5 22s4.33301 13.334 7 20.001l10 24
c9.33301 20.667 19.833 42.667 31.5 66s24.334 46.5 38.001 69.5s27.834 45.167 42.501 66.5s29.667 40.666 45 57.999c-5.33301 0 -10.666 -0.166992 -15.999 -0.5s-11 -0.5 -17 -0.5h-172l17 57h270zM257.997 -154h-66l527 917h66zM953.997 112
c0 -36.667 -15.6641 -67.0029 -46.9971 -91.0029c-26.667 -20.667 -59.334 -31 -98.001 -31c-20 0 -38.833 2.83301 -56.5 8.5s-33 13.667 -46 24s-23.167 22.5 -30.5 36.5s-11 29.333 -11 46c0 24 6.66699 44.333 20 61s30.666 30.334 51.999 41.001
c-18 10.667 -32.167 23.5 -42.5 38.5s-15.5 31.5 -15.5 49.5c0 16 4.5 31.833 13.5 47.5s20.167 27.834 33.5 36.501c10 6.66699 23.167 11.667 39.5 15s33.166 5 50.499 5c36 0 65.833 -8.5 89.5 -25.5s35.5 -40.5 35.5 -70.5c0 -22.667 -6.83301 -41.667 -20.5 -57
s-30.167 -27.666 -49.5 -36.999c11.333 -5.33301 22 -10.833 32 -16.5s18.833 -12.167 26.5 -19.5s13.667 -16 18 -26s6.5 -21.667 6.5 -35zM885 100.997c0 14.667 -4.33301 26.333 -13 35c-6 6 -14.833 12.167 -26.5 18.5s-30.167 15.166 -55.5 26.499
c-16 -8.66699 -29.5 -18.167 -40.5 -28.5s-16.5 -25.166 -16.5 -44.499s7 -35 21 -47s33.333 -18 58 -18c22.667 0 40.5 5.33301 53.5 16s19.5 24.667 19.5 42zM875 298.996c0 14 -5.5 25.5029 -16.5 34.5029s-27.167 13.5 -48.5 13.5s-37.5 -4.5 -48.5 -13.5
s-16.5 -20.5 -16.5 -34.5c0 -8.66699 2.33301 -16.334 7 -23.001s10.667 -12.667 18 -18s15 -9.83301 23 -13.5s15.667 -6.83398 23 -9.50098c22.667 11.333 38.167 22.166 46.5 32.499s12.5 20.833 12.5 31.5z" />
    <glyph glyph-name="uni215F" unicode="&#x215f;" horiz-adv-x="628" 
d="M90 260v54.999h62v256c-14 -9.33301 -28.667 -17.166 -44 -23.499l-46 -19.5l-17 41l124 83h51v-337h60v-55h-190zM246 -154.001h-66l527 917h66z" />
    <glyph glyph-name="arrowleft" unicode="&#x2190;" horiz-adv-x="1162" 
d="M1137 275c0 -13.333 -4.66699 -24.833 -14 -34.5s-20.666 -14.5 -33.999 -14.5s-24.833 4.83301 -34.5 14.5s-14.5 21.167 -14.5 34.5s4.83301 24.666 14.5 33.999s21.167 14 34.5 14s24.666 -4.66699 33.999 -14s14 -20.666 14 -33.999zM992 275
c0 -13.333 -4.66699 -24.833 -14 -34.5s-20.666 -14.5 -33.999 -14.5s-24.833 4.83301 -34.5 14.5s-14.5 21.167 -14.5 34.5s4.83301 24.666 14.5 33.999s21.167 14 34.5 14s24.666 -4.66699 33.999 -14s14 -20.666 14 -33.999zM847 275
c0 -13.333 -4.66699 -24.833 -14 -34.5s-20.666 -14.5 -33.999 -14.5s-24.833 4.83301 -34.5 14.5s-14.5 21.167 -14.5 34.5s4.83301 24.666 14.5 33.999s21.167 14 34.5 14s24.666 -4.66699 33.999 -14s14 -20.666 14 -33.999zM371 635
c0 -13.333 -4.66699 -24.833 -14 -34.5s-20.666 -14.5 -33.999 -14.5s-24.833 4.83301 -34.5 14.5s-14.5 21.167 -14.5 34.5s4.83301 24.666 14.5 33.999s21.167 14 34.5 14s24.666 -4.66699 33.999 -14s14 -20.666 14 -33.999zM702 275
c0 -13.333 -4.66699 -24.833 -14 -34.5s-20.666 -14.5 -33.999 -14.5s-24.833 4.83301 -34.5 14.5s-14.5 21.167 -14.5 34.5s4.83301 24.666 14.5 33.999s21.167 14 34.5 14s24.666 -4.66699 33.999 -14s14 -20.666 14 -33.999zM557 275
c0 -13.333 -4.66699 -24.833 -14 -34.5s-20.666 -14.5 -33.999 -14.5s-24.833 4.83301 -34.5 14.5s-14.5 21.167 -14.5 34.5s4.83301 24.666 14.5 33.999s21.167 14 34.5 14s24.666 -4.66699 33.999 -14s14 -20.666 14 -33.999zM288 515
c0 -13.333 -4.66699 -24.833 -14 -34.5s-20.666 -14.5 -33.999 -14.5s-24.833 4.83301 -34.5 14.5s-14.5 21.167 -14.5 34.5s4.83301 24.666 14.5 33.999s21.167 14 34.5 14s24.666 -4.66699 33.999 -14s14 -20.666 14 -33.999zM412 275
c0 -13.333 -4.66699 -24.833 -14 -34.5s-20.666 -14.5 -33.999 -14.5s-24.833 4.83301 -34.5 14.5s-14.5 21.167 -14.5 34.5s4.83301 24.666 14.5 33.999s21.167 14 34.5 14s24.666 -4.66699 33.999 -14s14 -20.666 14 -33.999zM205 395
c0 -13.333 -4.66699 -24.833 -14 -34.5s-20.666 -14.5 -33.999 -14.5s-24.833 4.83301 -34.5 14.5s-14.5 21.167 -14.5 34.5s4.83301 24.666 14.5 33.999s21.167 14 34.5 14s24.666 -4.66699 33.999 -14s14 -20.666 14 -33.999zM267 275
c0 -13.333 -4.66699 -24.833 -14 -34.5s-20.666 -14.5 -33.999 -14.5s-24.833 4.83301 -34.5 14.5s-14.5 21.167 -14.5 34.5s4.83301 24.666 14.5 33.999s21.167 14 34.5 14s24.666 -4.66699 33.999 -14s14 -20.666 14 -33.999zM122 275
c0 -13.333 -4.66699 -24.833 -14 -34.5s-20.666 -14.5 -33.999 -14.5s-24.833 4.83301 -34.5 14.5s-14.5 21.167 -14.5 34.5s4.83301 24.666 14.5 33.999s21.167 14 34.5 14s24.666 -4.66699 33.999 -14s14 -20.666 14 -33.999zM205 155
c0 -13.333 -4.66699 -24.833 -14 -34.5s-20.666 -14.5 -33.999 -14.5s-24.833 4.83301 -34.5 14.5s-14.5 21.167 -14.5 34.5s4.83301 24.666 14.5 33.999s21.167 14 34.5 14s24.666 -4.66699 33.999 -14s14 -20.666 14 -33.999zM288 35
c0 -13.333 -4.66699 -24.833 -14 -34.5s-20.666 -14.5 -33.999 -14.5s-24.833 4.83301 -34.5 14.5s-14.5 21.167 -14.5 34.5s4.83301 24.666 14.5 33.999s21.167 14 34.5 14s24.666 -4.66699 33.999 -14s14 -20.666 14 -33.999zM371 -85
c0 -13.333 -4.66699 -24.833 -14 -34.5s-20.666 -14.5 -33.999 -14.5s-24.833 4.83301 -34.5 14.5s-14.5 21.167 -14.5 34.5s4.83301 24.666 14.5 33.999s21.167 14 34.5 14s24.666 -4.66699 33.999 -14s14 -20.666 14 -33.999z" />
    <glyph glyph-name="arrowup" unicode="&#x2191;" horiz-adv-x="1162" 
d="M990 533c0 -13.333 -4.83301 -24.666 -14.5 -33.999s-21.167 -14 -34.5 -14s-24.666 4.66699 -33.999 14s-14 20.666 -14 33.999s4.66699 24.833 14 34.5s20.666 14.5 33.999 14.5s24.833 -4.83301 34.5 -14.5s14.5 -21.167 14.5 -34.5zM870 616
c0 -13.333 -4.83301 -24.666 -14.5 -33.999s-21.167 -14 -34.5 -14s-24.666 4.66699 -33.999 14s-14 20.666 -14 33.999s4.66699 24.833 14 34.5s20.666 14.5 33.999 14.5s24.833 -4.83301 34.5 -14.5s14.5 -21.167 14.5 -34.5zM750 699
c0 -13.333 -4.83301 -24.666 -14.5 -33.999s-21.167 -14 -34.5 -14s-24.666 4.66699 -33.999 14s-14 20.666 -14 33.999s4.66699 24.833 14 34.5s20.666 14.5 33.999 14.5s24.833 -4.83301 34.5 -14.5s14.5 -21.167 14.5 -34.5zM630 782
c0 -13.333 -4.83301 -24.666 -14.5 -33.999s-21.167 -14 -34.5 -14s-24.666 4.66699 -33.999 14s-14 20.666 -14 33.999s4.66699 24.833 14 34.5s20.666 14.5 33.999 14.5s24.833 -4.83301 34.5 -14.5s14.5 -21.167 14.5 -34.5zM630 637
c0 -13.333 -4.83301 -24.666 -14.5 -33.999s-21.167 -14 -34.5 -14s-24.666 4.66699 -33.999 14s-14 20.666 -14 33.999s4.66699 24.833 14 34.5s20.666 14.5 33.999 14.5s24.833 -4.83301 34.5 -14.5s14.5 -21.167 14.5 -34.5zM510 699
c0 -13.333 -4.83301 -24.666 -14.5 -33.999s-21.167 -14 -34.5 -14s-24.666 4.66699 -33.999 14s-14 20.666 -14 33.999s4.66699 24.833 14 34.5s20.666 14.5 33.999 14.5s24.833 -4.83301 34.5 -14.5s14.5 -21.167 14.5 -34.5zM630 492
c0 -13.333 -4.83301 -24.666 -14.5 -33.999s-21.167 -14 -34.5 -14s-24.666 4.66699 -33.999 14s-14 20.666 -14 33.999s4.66699 24.833 14 34.5s20.666 14.5 33.999 14.5s24.833 -4.83301 34.5 -14.5s14.5 -21.167 14.5 -34.5zM390 616
c0 -13.333 -4.83301 -24.666 -14.5 -33.999s-21.167 -14 -34.5 -14s-24.666 4.66699 -33.999 14s-14 20.666 -14 33.999s4.66699 24.833 14 34.5s20.666 14.5 33.999 14.5s24.833 -4.83301 34.5 -14.5s14.5 -21.167 14.5 -34.5zM630 347
c0 -13.333 -4.83301 -24.666 -14.5 -33.999s-21.167 -14 -34.5 -14s-24.666 4.66699 -33.999 14s-14 20.666 -14 33.999s4.66699 24.833 14 34.5s20.666 14.5 33.999 14.5s24.833 -4.83301 34.5 -14.5s14.5 -21.167 14.5 -34.5zM630 202
c0 -13.333 -4.83301 -24.666 -14.5 -33.999s-21.167 -14 -34.5 -14s-24.666 4.66699 -33.999 14s-14 20.666 -14 33.999s4.66699 24.833 14 34.5s20.666 14.5 33.999 14.5s24.833 -4.83301 34.5 -14.5s14.5 -21.167 14.5 -34.5zM270 533
c0 -13.333 -4.83301 -24.666 -14.5 -33.999s-21.167 -14 -34.5 -14s-24.666 4.66699 -33.999 14s-14 20.666 -14 33.999s4.66699 24.833 14 34.5s20.666 14.5 33.999 14.5s24.833 -4.83301 34.5 -14.5s14.5 -21.167 14.5 -34.5zM630 57
c0 -13.333 -4.83301 -24.666 -14.5 -33.999s-21.167 -14 -34.5 -14s-24.666 4.66699 -33.999 14s-14 20.666 -14 33.999s4.66699 24.833 14 34.5s20.666 14.5 33.999 14.5s24.833 -4.83301 34.5 -14.5s14.5 -21.167 14.5 -34.5zM630 -88
c0 -13.333 -4.83301 -24.666 -14.5 -33.999s-21.167 -14 -34.5 -14s-24.666 4.66699 -33.999 14s-14 20.666 -14 33.999s4.66699 24.833 14 34.5s20.666 14.5 33.999 14.5s24.833 -4.83301 34.5 -14.5s14.5 -21.167 14.5 -34.5zM630 -233
c0 -13.333 -4.83301 -24.666 -14.5 -33.999s-21.167 -14 -34.5 -14s-24.666 4.66699 -33.999 14s-14 20.666 -14 33.999s4.66699 24.833 14 34.5s20.666 14.5 33.999 14.5s24.833 -4.83301 34.5 -14.5s14.5 -21.167 14.5 -34.5z" />
    <glyph glyph-name="arrowright" unicode="&#x2192;" horiz-adv-x="1162" 
d="M888 635c0 -13.333 -4.83301 -24.833 -14.5 -34.5s-21.167 -14.5 -34.5 -14.5s-24.666 4.83301 -33.999 14.5s-14 21.167 -14 34.5s4.66699 24.666 14 33.999s20.666 14 33.999 14s24.833 -4.66699 34.5 -14s14.5 -20.666 14.5 -33.999zM971 515
c0 -13.333 -4.83301 -24.833 -14.5 -34.5s-21.167 -14.5 -34.5 -14.5s-24.666 4.83301 -33.999 14.5s-14 21.167 -14 34.5s4.66699 24.666 14 33.999s20.666 14 33.999 14s24.833 -4.66699 34.5 -14s14.5 -20.666 14.5 -33.999zM1054 395
c0 -13.333 -4.83301 -24.833 -14.5 -34.5s-21.167 -14.5 -34.5 -14.5s-24.666 4.83301 -33.999 14.5s-14 21.167 -14 34.5s4.66699 24.666 14 33.999s20.666 14 33.999 14s24.833 -4.66699 34.5 -14s14.5 -20.666 14.5 -33.999zM1137 275
c0 -13.333 -4.83301 -24.833 -14.5 -34.5s-21.167 -14.5 -34.5 -14.5s-24.666 4.83301 -33.999 14.5s-14 21.167 -14 34.5s4.66699 24.666 14 33.999s20.666 14 33.999 14s24.833 -4.66699 34.5 -14s14.5 -20.666 14.5 -33.999zM992 275
c0 -13.333 -4.83301 -24.833 -14.5 -34.5s-21.167 -14.5 -34.5 -14.5s-24.666 4.83301 -33.999 14.5s-14 21.167 -14 34.5s4.66699 24.666 14 33.999s20.666 14 33.999 14s24.833 -4.66699 34.5 -14s14.5 -20.666 14.5 -33.999zM1054 155
c0 -13.333 -4.83301 -24.833 -14.5 -34.5s-21.167 -14.5 -34.5 -14.5s-24.666 4.83301 -33.999 14.5s-14 21.167 -14 34.5s4.66699 24.666 14 33.999s20.666 14 33.999 14s24.833 -4.66699 34.5 -14s14.5 -20.666 14.5 -33.999zM847 275
c0 -13.333 -4.83301 -24.833 -14.5 -34.5s-21.167 -14.5 -34.5 -14.5s-24.666 4.83301 -33.999 14.5s-14 21.167 -14 34.5s4.66699 24.666 14 33.999s20.666 14 33.999 14s24.833 -4.66699 34.5 -14s14.5 -20.666 14.5 -33.999zM971 35
c0 -13.333 -4.83301 -24.833 -14.5 -34.5s-21.167 -14.5 -34.5 -14.5s-24.666 4.83301 -33.999 14.5s-14 21.167 -14 34.5s4.66699 24.666 14 33.999s20.666 14 33.999 14s24.833 -4.66699 34.5 -14s14.5 -20.666 14.5 -33.999zM702 275
c0 -13.333 -4.83301 -24.833 -14.5 -34.5s-21.167 -14.5 -34.5 -14.5s-24.666 4.83301 -33.999 14.5s-14 21.167 -14 34.5s4.66699 24.666 14 33.999s20.666 14 33.999 14s24.833 -4.66699 34.5 -14s14.5 -20.666 14.5 -33.999zM557 275
c0 -13.333 -4.83301 -24.833 -14.5 -34.5s-21.167 -14.5 -34.5 -14.5s-24.666 4.83301 -33.999 14.5s-14 21.167 -14 34.5s4.66699 24.666 14 33.999s20.666 14 33.999 14s24.833 -4.66699 34.5 -14s14.5 -20.666 14.5 -33.999zM888 -85
c0 -13.333 -4.83301 -24.833 -14.5 -34.5s-21.167 -14.5 -34.5 -14.5s-24.666 4.83301 -33.999 14.5s-14 21.167 -14 34.5s4.66699 24.666 14 33.999s20.666 14 33.999 14s24.833 -4.66699 34.5 -14s14.5 -20.666 14.5 -33.999zM412 275
c0 -13.333 -4.83301 -24.833 -14.5 -34.5s-21.167 -14.5 -34.5 -14.5s-24.666 4.83301 -33.999 14.5s-14 21.167 -14 34.5s4.66699 24.666 14 33.999s20.666 14 33.999 14s24.833 -4.66699 34.5 -14s14.5 -20.666 14.5 -33.999zM267 275
c0 -13.333 -4.83301 -24.833 -14.5 -34.5s-21.167 -14.5 -34.5 -14.5s-24.666 4.83301 -33.999 14.5s-14 21.167 -14 34.5s4.66699 24.666 14 33.999s20.666 14 33.999 14s24.833 -4.66699 34.5 -14s14.5 -20.666 14.5 -33.999zM122 275
c0 -13.333 -4.83301 -24.833 -14.5 -34.5s-21.167 -14.5 -34.5 -14.5s-24.666 4.83301 -33.999 14.5s-14 21.167 -14 34.5s4.66699 24.666 14 33.999s20.666 14 33.999 14s24.833 -4.66699 34.5 -14s14.5 -20.666 14.5 -33.999z" />
    <glyph glyph-name="arrowdown" unicode="&#x2193;" horiz-adv-x="1162" 
d="M630 783c0 -13.333 -4.83301 -24.833 -14.5 -34.5s-21.167 -14.5 -34.5 -14.5s-24.666 4.83301 -33.999 14.5s-14 21.167 -14 34.5s4.66699 24.666 14 33.999s20.666 14 33.999 14s24.833 -4.66699 34.5 -14s14.5 -20.666 14.5 -33.999zM630 638
c0 -13.333 -4.83301 -24.833 -14.5 -34.5s-21.167 -14.5 -34.5 -14.5s-24.666 4.83301 -33.999 14.5s-14 21.167 -14 34.5s4.66699 24.666 14 33.999s20.666 14 33.999 14s24.833 -4.66699 34.5 -14s14.5 -20.666 14.5 -33.999zM630 493
c0 -13.333 -4.83301 -24.833 -14.5 -34.5s-21.167 -14.5 -34.5 -14.5s-24.666 4.83301 -33.999 14.5s-14 21.167 -14 34.5s4.66699 24.666 14 33.999s20.666 14 33.999 14s24.833 -4.66699 34.5 -14s14.5 -20.666 14.5 -33.999zM990 17
c0 -13.333 -4.83301 -24.833 -14.5 -34.5s-21.167 -14.5 -34.5 -14.5s-24.666 4.83301 -33.999 14.5s-14 21.167 -14 34.5s4.66699 24.666 14 33.999s20.666 14 33.999 14s24.833 -4.66699 34.5 -14s14.5 -20.666 14.5 -33.999zM630 348
c0 -13.333 -4.83301 -24.833 -14.5 -34.5s-21.167 -14.5 -34.5 -14.5s-24.666 4.83301 -33.999 14.5s-14 21.167 -14 34.5s4.66699 24.666 14 33.999s20.666 14 33.999 14s24.833 -4.66699 34.5 -14s14.5 -20.666 14.5 -33.999zM630 203
c0 -13.333 -4.83301 -24.833 -14.5 -34.5s-21.167 -14.5 -34.5 -14.5s-24.666 4.83301 -33.999 14.5s-14 21.167 -14 34.5s4.66699 24.666 14 33.999s20.666 14 33.999 14s24.833 -4.66699 34.5 -14s14.5 -20.666 14.5 -33.999zM870 -66
c0 -13.333 -4.83301 -24.833 -14.5 -34.5s-21.167 -14.5 -34.5 -14.5s-24.666 4.83301 -33.999 14.5s-14 21.167 -14 34.5s4.66699 24.666 14 33.999s20.666 14 33.999 14s24.833 -4.66699 34.5 -14s14.5 -20.666 14.5 -33.999zM630 58
c0 -13.333 -4.83301 -24.833 -14.5 -34.5s-21.167 -14.5 -34.5 -14.5s-24.666 4.83301 -33.999 14.5s-14 21.167 -14 34.5s4.66699 24.666 14 33.999s20.666 14 33.999 14s24.833 -4.66699 34.5 -14s14.5 -20.666 14.5 -33.999zM750 -149
c0 -13.333 -4.83301 -24.833 -14.5 -34.5s-21.167 -14.5 -34.5 -14.5s-24.666 4.83301 -33.999 14.5s-14 21.167 -14 34.5s4.66699 24.666 14 33.999s20.666 14 33.999 14s24.833 -4.66699 34.5 -14s14.5 -20.666 14.5 -33.999zM630 -87
c0 -13.333 -4.83301 -24.833 -14.5 -34.5s-21.167 -14.5 -34.5 -14.5s-24.666 4.83301 -33.999 14.5s-14 21.167 -14 34.5s4.66699 24.666 14 33.999s20.666 14 33.999 14s24.833 -4.66699 34.5 -14s14.5 -20.666 14.5 -33.999zM630 -232
c0 -13.333 -4.83301 -24.833 -14.5 -34.5s-21.167 -14.5 -34.5 -14.5s-24.666 4.83301 -33.999 14.5s-14 21.167 -14 34.5s4.66699 24.666 14 33.999s20.666 14 33.999 14s24.833 -4.66699 34.5 -14s14.5 -20.666 14.5 -33.999zM510 -149
c0 -13.333 -4.83301 -24.833 -14.5 -34.5s-21.167 -14.5 -34.5 -14.5s-24.666 4.83301 -33.999 14.5s-14 21.167 -14 34.5s4.66699 24.666 14 33.999s20.666 14 33.999 14s24.833 -4.66699 34.5 -14s14.5 -20.666 14.5 -33.999zM390 -66
c0 -13.333 -4.83301 -24.833 -14.5 -34.5s-21.167 -14.5 -34.5 -14.5s-24.666 4.83301 -33.999 14.5s-14 21.167 -14 34.5s4.66699 24.666 14 33.999s20.666 14 33.999 14s24.833 -4.66699 34.5 -14s14.5 -20.666 14.5 -33.999zM270 17
c0 -13.333 -4.83301 -24.833 -14.5 -34.5s-21.167 -14.5 -34.5 -14.5s-24.666 4.83301 -33.999 14.5s-14 21.167 -14 34.5s4.66699 24.666 14 33.999s20.666 14 33.999 14s24.833 -4.66699 34.5 -14s14.5 -20.666 14.5 -33.999z" />
    <glyph glyph-name="uni2196" unicode="&#x2196;" horiz-adv-x="1162" 
d="M975 -128c9.33301 -9.33301 13.999 -20.666 13.999 -33.999s-5 -24.833 -15 -34.5s-21.333 -14.5 -34 -14.5c-13.333 0 -24.833 4.83301 -34.5 14.5s-14.5 21.167 -14.5 34.5s4.66699 24.666 14 33.999s21 14 35 14c12.667 0 24.334 -4.66699 35.001 -14zM230.999 446
c9.33301 -9.33301 13.999 -20.666 13.999 -33.999s-5 -24.833 -15 -34.5s-21.333 -14.5 -34 -14.5c-13.333 0 -24.833 4.83301 -34.5 14.5s-14.5 21.167 -14.5 34.5s4.66699 24.666 14 33.999s21 14 35 14c12.667 0 24.334 -4.66699 35.001 -14zM358.998 418
c-9.33301 -9.33301 -20.666 -14 -33.999 -14s-24.833 4.83301 -34.5 14.5s-14.5 21.167 -14.5 34.5s4.66699 24.666 14 33.999s20.666 14 33.999 14s24.833 -4.83301 34.5 -14.5s14.5 -21.167 14.5 -34.5s-4.66699 -24.666 -14 -33.999zM768.998 8
c-9.33301 -9.33301 -20.666 -14 -33.999 -14s-24.833 4.83301 -34.5 14.5s-14.5 21.167 -14.5 34.5s4.66699 24.666 14 33.999s20.666 14 33.999 14s24.833 -4.83301 34.5 -14.5s14.5 -21.167 14.5 -34.5s-4.66699 -24.666 -14 -33.999zM686.998 599
c-9.33301 -9.33301 -20.666 -14 -33.999 -14s-24.833 4.83301 -34.5 14.5s-14.5 21.167 -14.5 34.5s4.66699 24.666 14 33.999s20.666 14 33.999 14s24.833 -4.83301 34.5 -14.5s14.5 -21.167 14.5 -34.5s-4.66699 -24.666 -14 -33.999zM563.998 213
c-9.33301 -9.33301 -20.666 -14 -33.999 -14s-24.833 4.83301 -34.5 14.5s-14.5 21.167 -14.5 34.5s4.66699 24.666 14 33.999s20.666 14 33.999 14s24.833 -4.83301 34.5 -14.5s14.5 -21.167 14.5 -34.5s-4.66699 -24.666 -14 -33.999zM177.998 90
c-9.33301 -9.33301 -20.666 -14 -33.999 -14s-24.833 4.83301 -34.5 14.5s-14.5 21.167 -14.5 34.5s4.66699 24.666 14 33.999s20.666 14 33.999 14s24.833 -4.83301 34.5 -14.5s14.5 -21.167 14.5 -34.5s-4.66699 -24.666 -14 -33.999zM543.998 642
c9.33301 -9.33301 13.9971 -20.666 13.9971 -33.999s-5 -24.833 -15 -34.5s-21.333 -14.5 -34 -14.5c-13.333 0 -24.666 4.66699 -33.999 14s-14 20.666 -14 33.999c0 12 4.33301 23.167 13 33.5s20.334 15.5 35.001 15.5c12.667 0 24.334 -4.66699 35.001 -14zM256.995 589
c9.33301 -9.33301 13.999 -20.333 13.999 -33c0 -13.333 -5 -24.833 -15 -34.5s-21.333 -14.5 -34 -14.5c-13.333 0 -24.833 4.83301 -34.5 14.5s-14.5 21.167 -14.5 34.5c0 12.667 4.83301 23.667 14.5 33s21.167 14 34.5 14c12.667 0 24.334 -4.66699 35.001 -14z
M203.994 234c-9.33301 -9.33301 -20.666 -14.002 -33.999 -14.002s-24.833 4.83301 -34.5 14.5s-14.5 21.167 -14.5 34.5c0 12.667 4.66699 23.667 14 33s20.666 14 33.999 14s24.833 -4.66699 34.5 -14s14.5 -20.666 14.5 -33.999s-4.66699 -24.666 -14 -33.999z
M399.994 546.998c-9.33301 -9.33301 -20.666 -14.002 -33.999 -14.002s-24.833 4.83301 -34.5 14.5s-14.5 21.167 -14.5 34.5c0 12.667 4.66699 23.667 14 33s20.666 14 33.999 14s24.833 -4.66699 34.5 -14s14.5 -20.666 14.5 -33.999s-4.66699 -24.666 -14 -33.999z
M871.994 -26.0039c9.33301 -9.33301 13.9971 -20.3311 13.9971 -32.998c0 -13.333 -5 -24.833 -15 -34.5s-21.333 -14.5 -34 -14.5c-13.333 0 -24.666 4.66699 -33.999 14s-14 20.666 -14 33.999c0 11.333 4.33301 22.166 13 32.499s20.334 15.5 35.001 15.5
c12.667 0 24.334 -4.66699 35.001 -14zM666.991 178.998c9.33301 -9.33301 13.9971 -20.3311 13.9971 -32.998c0 -13.333 -5 -24.833 -15 -34.5s-21.333 -14.5 -34 -14.5c-13.333 0 -24.666 4.66699 -33.999 14s-14 20.666 -14 33.999c0 11.333 4.33301 22.166 13 32.499
s20.334 15.5 35.001 15.5c12.667 0 24.334 -4.66699 35.001 -14zM461.988 384c9.33301 -9.33301 13.9971 -20.3311 13.9971 -32.998c0 -13.333 -5 -24.833 -15 -34.5s-21.333 -14.5 -34 -14.5c-13.333 0 -24.666 4.66699 -33.999 14s-14 20.666 -14 33.999
c0 11.333 4.33301 22.166 13 32.499s20.334 15.5 35.001 15.5c12.667 0 24.334 -4.66699 35.001 -14z" />
    </font>
</defs>
</svg>
